<?xml version="1.0" encoding="utf-8"?>
<!-- Generator: Adobe Illustrator 27.5.0, SVG Export Plug-In . SVG Version: 6.00 Build 0)  -->
<svg version="1.1" xmlns="http://www.w3.org/2000/svg" xmlns:xlink="http://www.w3.org/1999/xlink" x="0px" y="0px"
	 viewBox="0 0 3710 3710" style="enable-background:new 0 0 3710 3710;" xml:space="preserve">
<g id="Background">
	<g>
		<g>
			<rect style="fill:#FFFFFF;" width="3710" height="3710"/>
		</g>
	</g>
</g>
<g id="Illustration">
	<g>
		<linearGradient id="SVGID_1_" gradientUnits="userSpaceOnUse" x1="3411.7842" y1="3619.0376" x2="1354.1959" y2="1398.1486">
			<stop  offset="0" style="stop-color:#DAE3FE"/>
			<stop  offset="1" style="stop-color:#E9EFFD"/>
		</linearGradient>
		<path style="fill:url(#SVGID_1_);" d="M3125.046,2353.436c-282.728,660.843-1029.038,944.69-1613.783,896.294
			c-159.659-13.214-480.897-39.802-731.723-276.999c-481.693-455.522-407.507-1407.69,53.611-1968.273
			c59.382-72.191,470.419-555.867,1110.943-549.393c468.957,4.74,798.113,269.648,838.137,302.65
			c50.561,41.691,162.079,140.762,262.583,297.931C3280.964,1424.939,3301.722,1940.475,3125.046,2353.436z"/>
		<g>
			<g>
				
					<linearGradient id="SVGID_00000049212848892352073150000015869370555276199568_" gradientUnits="userSpaceOnUse" x1="1361.9331" y1="804.204" x2="1545.4668" y2="591.1741" gradientTransform="matrix(0.994 0.1094 -0.1094 0.994 172.77 42.3154)">
					<stop  offset="0" style="stop-color:#E1473D"/>
					<stop  offset="1" style="stop-color:#E9605A"/>
				</linearGradient>
				
					<circle style="fill:url(#SVGID_00000049212848892352073150000015869370555276199568_);" cx="1648.445" cy="795.145" r="136.831"/>
				
					<linearGradient id="SVGID_00000128481629679990110550000000321278590106795656_" gradientUnits="userSpaceOnUse" x1="1649.1753" y1="435.7976" x2="1106.4612" y2="1255.684" gradientTransform="matrix(0.994 0.1094 -0.1094 0.994 172.77 42.3154)">
					<stop  offset="0" style="stop-color:#FF928E"/>
					<stop  offset="1" style="stop-color:#FE7062"/>
				</linearGradient>
				
					<circle style="fill:url(#SVGID_00000128481629679990110550000000321278590106795656_);" cx="1648.445" cy="795.145" r="132.282"/>
				<path style="fill:#FFFFFF;" d="M1546.036,730.345c-0.33,0-0.663-0.093-0.958-0.285c-0.814-0.529-1.044-1.619-0.515-2.432
					c25.68-39.443,70.646-60.757,117.436-55.608c7.464,0.822,14.862,2.317,21.989,4.444c0.93,0.276,1.459,1.257,1.184,2.187
					c-0.281,0.927-1.243,1.464-2.187,1.181c-6.928-2.065-14.117-3.519-21.371-4.317c-45.451-5.004-89.154,15.703-114.106,54.032
					C1547.173,730.064,1546.61,730.345,1546.036,730.345z"/>
				
					<ellipse transform="matrix(0.7071 -0.7071 0.7071 0.7071 -80.9361 1401.2535)" style="opacity:0.78;fill:#FFFFFF;" cx="1650.995" cy="798.325" rx="111.96" ry="111.96"/>
				<g>
					
						<linearGradient id="SVGID_00000031894416419817355890000014368133481274001545_" gradientUnits="userSpaceOnUse" x1="1324.3972" y1="2161.4458" x2="1363.0677" y2="1896.0256" gradientTransform="matrix(0.994 0.1094 -0.1094 0.994 172.77 42.3154)">
						<stop  offset="0" style="stop-color:#FF928E"/>
						<stop  offset="1" style="stop-color:#FE7062"/>
					</linearGradient>
					<path style="fill:url(#SVGID_00000031894416419817355890000014368133481274001545_);" d="M1630.965,879.855l1.333-12.107
						c-12.566-1.895-24.723-6.249-33.162-11.107c-3.014-1.734-4.236-5.466-2.96-8.7l4.318-10.94
						c1.584-4.013,6.318-5.657,10.091-3.564c8.39,4.656,18.929,8.768,30.64,10.058c12.157,1.339,21.677-1.785,22.607-10.233
						c0.839-7.623-5.667-12.927-22.064-19.32c-23.381-9.248-39.533-21.663-37.197-42.886c2.11-19.163,17.733-32.25,42.477-33.487
						l1.333-12.109c0.429-3.896,3.935-6.707,7.831-6.278l7.114,0.783c3.896,0.429,6.707,3.935,6.278,7.831l-1.197,10.872
						c11.628,1.754,19.909,4.687,26.395,7.8c3.323,1.595,4.802,5.527,3.454,8.958l-3.977,10.119
						c-1.533,3.902-6.075,5.632-9.81,3.729c-5.953-3.033-14.467-6.446-25.882-7.703c-14.424-1.588-19.202,3.934-19.792,9.291
						c-0.726,6.593,7.428,12.079,25.544,19.914c25.902,10.985,35.803,23.336,33.603,43.323
						c-2.019,18.339-17.433,33.326-44.261,34.543l-1.492,13.55c-0.429,3.896-3.935,6.707-7.831,6.278l-7.114-0.783
						C1633.347,887.258,1630.536,883.752,1630.965,879.855z"/>
				</g>
			</g>
			<g>
				
					<linearGradient id="SVGID_00000176002043344607412190000007115767435753674161_" gradientUnits="userSpaceOnUse" x1="1741.7157" y1="840.8029" x2="2061.2161" y2="469.9548" gradientTransform="matrix(0.994 0.1094 -0.1094 0.994 172.77 42.3154)">
					<stop  offset="0" style="stop-color:#E1473D"/>
					<stop  offset="1" style="stop-color:#E9605A"/>
				</linearGradient>
				<circle style="fill:url(#SVGID_00000176002043344607412190000007115767435753674161_);" cx="2177.44" cy="728.208" r="238.2"/>
				
					<linearGradient id="SVGID_00000134240179427401263720000010378063535892458668_" gradientUnits="userSpaceOnUse" x1="2241.7546" y1="199.4713" x2="1296.9832" y2="1626.7517" gradientTransform="matrix(0.994 0.1094 -0.1094 0.994 172.77 42.3154)">
					<stop  offset="0" style="stop-color:#FF928E"/>
					<stop  offset="1" style="stop-color:#FE7062"/>
				</linearGradient>
				
					<circle style="fill:url(#SVGID_00000134240179427401263720000010378063535892458668_);" cx="2177.44" cy="728.208" r="230.279"/>
				<path style="fill:#FFFFFF;" d="M1999.162,614.1c-0.329,0-0.663-0.093-0.958-0.285c-0.814-0.529-1.044-1.619-0.515-2.432
					c44.442-68.255,122.301-105.13,203.206-96.22c12.912,1.423,25.717,4.01,38.052,7.69c0.93,0.276,1.459,1.257,1.184,2.187
					c-0.278,0.927-1.253,1.466-2.187,1.181c-12.136-3.62-24.732-6.164-37.435-7.563c-79.58-8.756-156.165,27.503-199.876,94.644
					C2000.298,613.819,1999.735,614.1,1999.162,614.1z"/>
				
					<ellipse transform="matrix(0.7071 -0.7071 0.7071 0.7071 120.2221 1757.7296)" style="opacity:0.78;fill:#FFFFFF;" cx="2181.878" cy="733.744" rx="194.903" ry="194.903"/>
				<g>
					
						<linearGradient id="SVGID_00000034801940112003350700000000842082910862786449_" gradientUnits="userSpaceOnUse" x1="1545.2034" y1="1900.0089" x2="1706.9176" y2="1464.083" gradientTransform="matrix(0.994 0.1094 -0.1094 0.994 172.77 42.3154)">
						<stop  offset="0" style="stop-color:#FF928E"/>
						<stop  offset="1" style="stop-color:#FE7062"/>
					</linearGradient>
					<path style="fill:url(#SVGID_00000034801940112003350700000000842082910862786449_);" d="M2147.01,875.674l2.32-21.077
						c-21.875-3.299-43.037-10.877-57.729-19.334c-5.246-3.019-7.375-9.515-5.152-15.145l7.516-19.043
						c2.757-6.986,11-9.849,17.567-6.204c14.605,8.105,32.952,15.264,53.338,17.509c21.163,2.33,37.736-3.107,39.355-17.814
						c1.461-13.271-9.865-22.504-38.41-33.633c-40.703-16.099-68.82-37.711-64.753-74.656c3.673-33.36,30.869-56.142,73.945-58.296
						l2.321-21.079c0.747-6.783,6.851-11.676,13.633-10.929l12.384,1.363c6.783,0.747,11.676,6.85,10.929,13.633l-2.084,18.925
						c20.242,3.053,34.659,8.158,45.949,13.579c5.785,2.777,8.359,9.621,6.013,15.593l-6.924,17.615
						c-2.669,6.793-10.574,9.804-17.078,6.491c-10.363-5.28-25.184-11.221-45.056-13.409c-25.11-2.765-33.427,6.847-34.454,16.174
						c-1.264,11.478,12.932,21.027,44.467,34.666c45.091,19.123,62.328,40.625,58.497,75.419
						c-3.515,31.924-30.348,58.013-77.051,60.133l-2.597,23.588c-0.747,6.783-6.85,11.676-13.633,10.929l-12.385-1.363
						C2151.156,888.56,2146.263,882.457,2147.01,875.674z"/>
				</g>
			</g>
			<g>
				
					<linearGradient id="SVGID_00000110433617290830333390000017989008795374437275_" gradientUnits="userSpaceOnUse" x1="2309.8816" y1="920.4254" x2="2550.7629" y2="640.8313" gradientTransform="matrix(0.994 0.1094 -0.1094 0.994 172.77 42.3154)">
					<stop  offset="0" style="stop-color:#E1473D"/>
					<stop  offset="1" style="stop-color:#E9605A"/>
				</linearGradient>
				
					<circle style="fill:url(#SVGID_00000110433617290830333390000017989008795374437275_);" cx="2643.575" cy="953.274" r="179.586"/>
				
					<linearGradient id="SVGID_00000039107656966035743360000007742365190153055643_" gradientUnits="userSpaceOnUse" x1="2686.8765" y1="436.9056" x2="1974.5839" y2="1512.9766" gradientTransform="matrix(0.994 0.1094 -0.1094 0.994 172.77 42.3154)">
					<stop  offset="0" style="stop-color:#FF928E"/>
					<stop  offset="1" style="stop-color:#FE7062"/>
				</linearGradient>
				
					<circle style="fill:url(#SVGID_00000039107656966035743360000007742365190153055643_);" cx="2643.575" cy="953.274" r="173.615"/>
				<path style="fill:#FFFFFF;" d="M2509.167,867.678c-0.33,0-0.663-0.093-0.958-0.285c-0.814-0.529-1.044-1.619-0.515-2.432
					c33.593-51.598,92.491-79.47,153.611-72.737c9.757,1.075,19.435,3.03,28.766,5.812c0.93,0.276,1.459,1.256,1.184,2.187
					c-0.281,0.929-1.263,1.459-2.187,1.181c-9.129-2.722-18.601-4.635-28.148-5.685c-59.829-6.581-117.419,20.679-150.281,71.161
					C2510.304,867.397,2509.741,867.678,2509.167,867.678z"/>
				
					<ellipse transform="matrix(0.7071 -0.7071 0.7071 0.7071 98.2474 2152.0862)" style="opacity:0.78;fill:#FFFFFF;" cx="2646.922" cy="957.448" rx="146.943" ry="146.943"/>
				<g>
					
						<linearGradient id="SVGID_00000093880269513250500000000016432903528061018525_" gradientUnits="userSpaceOnUse" x1="2732.9622" y1="663.0432" x2="2588.8264" y2="1167.5184">
						<stop  offset="0" style="stop-color:#FF928E"/>
						<stop  offset="1" style="stop-color:#FE7062"/>
					</linearGradient>
					<path style="fill:url(#SVGID_00000093880269513250500000000016432903528061018525_);" d="M2620.633,1064.454l1.75-15.891
						c-16.492-2.487-32.447-8.2-43.524-14.576c-3.955-2.277-5.56-7.174-3.885-11.419l5.667-14.357
						c2.079-5.267,8.293-7.425,13.244-4.678c11.012,6.11,24.844,11.509,40.214,13.201c15.955,1.757,28.45-2.343,29.671-13.431
						c1.101-10.005-7.438-16.967-28.959-25.357c-30.687-12.138-51.886-28.431-48.819-56.286
						c2.769-25.151,23.273-42.327,55.75-43.951l1.75-15.893c0.563-5.114,5.164-8.803,10.278-8.24l9.336,1.028
						c5.114,0.563,8.803,5.165,8.24,10.279l-1.571,14.268c15.261,2.301,26.13,6.151,34.643,10.238
						c4.361,2.093,6.302,7.254,4.533,11.756l-5.219,13.281c-2.013,5.121-7.973,7.391-12.876,4.893
						c-7.814-3.981-18.987-8.46-33.97-10.109c-18.931-2.084-25.202,5.162-25.976,12.194c-0.953,8.654,9.75,15.853,33.526,26.136
						c33.995,14.417,46.99,30.628,44.102,56.86c-2.65,24.069-22.88,43.739-58.091,45.337l-1.958,17.784
						c-0.563,5.113-5.165,8.802-10.278,8.24l-9.337-1.028C2623.76,1074.169,2620.07,1069.567,2620.633,1064.454z"/>
				</g>
			</g>
		</g>
		<g>
			<path style="fill:#BDD0FB;" d="M427.372,490.33c-2.705-11.517,13.495-19.172,23.415-11.127
				c100.737,81.687,342.776,326.303,282.456,753.788c-75.682,536.343,53.705,732.051,214.76,851.428
				c0,0-221.182-56.139-360.339-254.726C246.001,1342.116,475.476,695.099,427.372,490.33z"/>
			<path style="fill:#FFFFFF;" d="M504.034,657.851c12.602,59.708,23.834,119.599,32.514,179.76
				c9.044,60.11,15.974,120.43,20.717,180.849c4.474,60.43,7.634,120.923,7.814,181.442c0.495,60.516-2.021,120.981-4.793,181.683
				c-2.378,60.68-5.173,121.797-0.731,183.347c4.368,61.424,17.298,123.386,42.955,181.47c6.414,14.476,13.158,28.907,20.82,42.852
				c7.366,14.073,15.455,27.869,23.827,41.533c16.906,27.263,35.936,53.604,57.143,78.606
				c42.567,49.918,93.906,94.199,150.462,131.676c5.953,3.944,14.481,2.975,19.049-2.165c4.485-5.047,3.484-12.239-2.19-16.232
				l-0.04-0.028c-13.457-9.451-26.772-19.024-39.547-29.077c-6.482-4.939-12.696-10.116-19.021-15.189
				c-6.094-5.274-12.428-10.346-18.327-15.777c-24.015-21.375-46.263-44.18-66.448-68.292
				c-40.6-48.001-73.102-101.49-97.726-156.941c-11.953-27.854-21.509-56.421-28.485-85.523
				c-6.951-29.11-11.324-58.726-13.742-88.58c-4.843-59.742-2.655-120.254-0.782-180.944c1.782-60.706,3.089-121.721,1.488-182.686
				c-0.706-30.481-2.046-60.947-4.017-91.377c-0.884-15.219-2.109-30.421-3.302-45.622c-1.362-15.192-2.822-30.375-4.424-45.544
				c-6.539-60.671-15.219-121.139-26.099-181.287c-11.214-60.102-24.271-119.927-39.975-179.217
				c-0.449-1.695-2.403-2.754-4.366-2.366C504.901,654.595,503.69,656.207,504.034,657.851z"/>
		</g>
		<g>
			<g>
				<path style="fill:#91B3FA;" d="M688.572,1704.912c-12.352,13.105-34.073,9.337-41.503-7.068
					c-40.999-90.513-133.775-356.906,19.449-663.807C795.909,774.875,841.441,622.05,857.304,551.241
					c3.355-14.973,23.874-16.961,30.068-2.923C955.706,703.206,1136.138,1230.049,688.572,1704.912z"/>
				<path style="fill:#FFFFFF;" d="M666.137,1695.361c-0.439,0.079-0.891,0.116-1.355,0.108c-3.882-0.059-6.982-3.255-6.922-7.137
					c0.068-4.401,8.633-444.352,172.264-812.828c1.576-3.545,5.729-5.146,9.281-3.573c3.549,1.577,5.148,5.731,3.573,9.281
					c-162.441,365.794-170.99,802.963-171.058,807.335C671.868,1691.968,669.383,1694.78,666.137,1695.361z"/>
			</g>
		</g>
		<g>
			<g>
				
					<linearGradient id="SVGID_00000070111554489997033250000008799027833488295869_" gradientUnits="userSpaceOnUse" x1="1604.649" y1="2498.5518" x2="2188.9136" y2="745.7534">
					<stop  offset="0" style="stop-color:#09005D"/>
					<stop  offset="1" style="stop-color:#1A0F91"/>
				</linearGradient>
				<path style="fill:url(#SVGID_00000070111554489997033250000008799027833488295869_);" d="M3113.268,2562.138
					c0,25.136-20.586,45.703-45.747,45.703H593.692c-25.161,0-45.747-20.567-45.747-45.703L527.36,1140.498
					c0-25.137,29.615-74.21,83.891-70.522l2417.698-62.558c31.569-0.817,62.093,11.334,84.449,33.618
					c22.356,22.283,34.588,52.75,33.843,84.29L3113.268,2562.138z"/>
				<path style="fill:#7D97F4;" d="M3068.103,2518.292c0,23.804-19.476,43.28-43.28,43.28H653.35
					c-23.804,0-43.28-19.476-43.28-43.28l-19.425-1290.578c2.288-77.664,70.377-105.577,111.652-103.928l2317.212-62.167
					c22.179-0.595,43.63,7.944,59.332,23.619c15.702,15.675,24.279,37.111,23.722,59.291L3068.103,2518.292z"/>
				<path style="fill:#91B3FA;" d="M714.548,2446.697c2.483-106.667,1.558-1051.238-4.562-1132.815
					c-6.12-81.577,120.931-96.879,315.993-106.059c195.062-9.181,1840.88-45.527,1883.256-48.964
					c95.253-7.723,114.969,134.649,105.439,443.731c-7.159,232.209-19.026,614.734-24.485,790.648
					c-1.626,52.38-44.438,93.939-96.842,94.083c-396.052,1.088-1913.998,5.439-2015.049,8.448
					C762.01,2499.231,713.564,2488.993,714.548,2446.697z"/>
			</g>
			
				<linearGradient id="SVGID_00000174586958883763307590000016647496936006822834_" gradientUnits="userSpaceOnUse" x1="2059.1782" y1="1467.8635" x2="1834.1859" y2="2789.6924">
				<stop  offset="0" style="stop-color:#09005D"/>
				<stop  offset="1" style="stop-color:#1A0F91"/>
			</linearGradient>
			<path style="fill:url(#SVGID_00000174586958883763307590000016647496936006822834_);" d="M3251.5,2725.855H459.865
				c-34.35,0-62.455-28.105-62.455-62.455l0,0c0-34.35,28.105-62.455,62.455-62.455H3251.5c34.35,0,62.455,28.105,62.455,62.455l0,0
				C3313.955,2697.75,3285.85,2725.855,3251.5,2725.855z"/>
		</g>
		<g>
			
				<linearGradient id="SVGID_00000181766590165043705110000005343018259845084810_" gradientUnits="userSpaceOnUse" x1="1866.8716" y1="1276.6893" x2="2916.6445" y2="1276.6893">
				<stop  offset="0" style="stop-color:#DAE3FE"/>
				<stop  offset="1" style="stop-color:#E9EFFD"/>
			</linearGradient>
			<path style="fill:url(#SVGID_00000181766590165043705110000005343018259845084810_);" d="M2902.715,1391.194H1880.801
				c-15.361,0-19.391-21.231-5.097-26.859l510.957-201.182c3.276-1.29,6.919-1.29,10.194,0l510.957,201.182
				C2922.106,1369.962,2918.077,1391.194,2902.715,1391.194z"/>
			<g>
				<g>
					<g>
						
							<linearGradient id="SVGID_00000089532289846775492340000001605100081903619738_" gradientUnits="userSpaceOnUse" x1="1914.5929" y1="1622.5533" x2="1936.5065" y2="1622.5533">
							<stop  offset="0" style="stop-color:#DAE3FE"/>
							<stop  offset="1" style="stop-color:#E9EFFD"/>
						</linearGradient>
						
							<rect x="1914.593" y="1420.95" style="fill:url(#SVGID_00000089532289846775492340000001605100081903619738_);" width="21.914" height="403.207"/>
						
							<linearGradient id="SVGID_00000079487407954857304660000016556961043480628098_" gradientUnits="userSpaceOnUse" x1="1947.4631" y1="1622.5533" x2="1969.3763" y2="1622.5533">
							<stop  offset="0" style="stop-color:#DAE3FE"/>
							<stop  offset="1" style="stop-color:#E9EFFD"/>
						</linearGradient>
						
							<rect x="1947.463" y="1420.95" style="fill:url(#SVGID_00000079487407954857304660000016556961043480628098_);" width="21.913" height="403.207"/>
						
							<linearGradient id="SVGID_00000178891414865115066790000017304674985334227592_" gradientUnits="userSpaceOnUse" x1="1980.3333" y1="1622.5533" x2="2002.2466" y2="1622.5533">
							<stop  offset="0" style="stop-color:#DAE3FE"/>
							<stop  offset="1" style="stop-color:#E9EFFD"/>
						</linearGradient>
						
							<rect x="1980.333" y="1420.95" style="fill:url(#SVGID_00000178891414865115066790000017304674985334227592_);" width="21.913" height="403.207"/>
					</g>
					
						<linearGradient id="SVGID_00000003086064009682501440000018192716178616101799_" gradientUnits="userSpaceOnUse" x1="1890.4883" y1="1406.7058" x2="2026.3514" y2="1406.7058">
						<stop  offset="0" style="stop-color:#DAE3FE"/>
						<stop  offset="1" style="stop-color:#E9EFFD"/>
					</linearGradient>
					<polygon style="fill:url(#SVGID_00000003086064009682501440000018192716178616101799_);" points="2026.351,1399.036 
						1890.488,1399.036 1890.488,1404.936 1910.21,1414.375 2006.629,1414.375 2026.351,1404.936 					"/>
					
						<linearGradient id="SVGID_00000132781273230565703050000006309389741988604822_" gradientUnits="userSpaceOnUse" x1="1891.5837" y1="1843.8789" x2="2027.447" y2="1843.8789">
						<stop  offset="0" style="stop-color:#DAE3FE"/>
						<stop  offset="1" style="stop-color:#E9EFFD"/>
					</linearGradient>
					<polygon style="fill:url(#SVGID_00000132781273230565703050000006309389741988604822_);" points="2027.447,1859.218 
						1891.584,1859.218 1891.584,1837.979 1911.306,1828.54 2007.725,1828.54 2027.447,1837.979 					"/>
				</g>
				<g>
					<g>
						
							<linearGradient id="SVGID_00000147925755196142991270000014024705382938655677_" gradientUnits="userSpaceOnUse" x1="2087.7092" y1="1622.5533" x2="2109.6226" y2="1622.5533">
							<stop  offset="0" style="stop-color:#DAE3FE"/>
							<stop  offset="1" style="stop-color:#E9EFFD"/>
						</linearGradient>
						
							<rect x="2087.709" y="1420.95" style="fill:url(#SVGID_00000147925755196142991270000014024705382938655677_);" width="21.913" height="403.207"/>
						
							<linearGradient id="SVGID_00000165916025212452301040000003929787960480062616_" gradientUnits="userSpaceOnUse" x1="2120.5793" y1="1622.5533" x2="2142.4927" y2="1622.5533">
							<stop  offset="0" style="stop-color:#DAE3FE"/>
							<stop  offset="1" style="stop-color:#E9EFFD"/>
						</linearGradient>
						
							<rect x="2120.579" y="1420.95" style="fill:url(#SVGID_00000165916025212452301040000003929787960480062616_);" width="21.913" height="403.207"/>
						
							<linearGradient id="SVGID_00000072252492714855830320000011538857134922785677_" gradientUnits="userSpaceOnUse" x1="2153.4497" y1="1622.5533" x2="2175.3628" y2="1622.5533">
							<stop  offset="0" style="stop-color:#DAE3FE"/>
							<stop  offset="1" style="stop-color:#E9EFFD"/>
						</linearGradient>
						
							<rect x="2153.45" y="1420.95" style="fill:url(#SVGID_00000072252492714855830320000011538857134922785677_);" width="21.913" height="403.207"/>
					</g>
					
						<linearGradient id="SVGID_00000107566071499470887760000008414966830978647483_" gradientUnits="userSpaceOnUse" x1="2063.6042" y1="1406.7058" x2="2199.4675" y2="1406.7058">
						<stop  offset="0" style="stop-color:#DAE3FE"/>
						<stop  offset="1" style="stop-color:#E9EFFD"/>
					</linearGradient>
					<polygon style="fill:url(#SVGID_00000107566071499470887760000008414966830978647483_);" points="2199.468,1399.036 
						2063.604,1399.036 2063.604,1404.936 2083.326,1414.375 2179.745,1414.375 2199.468,1404.936 					"/>
					
						<linearGradient id="SVGID_00000057150425718397368340000016683988161670648971_" gradientUnits="userSpaceOnUse" x1="2064.7" y1="1843.8789" x2="2200.5632" y2="1843.8789">
						<stop  offset="0" style="stop-color:#DAE3FE"/>
						<stop  offset="1" style="stop-color:#E9EFFD"/>
					</linearGradient>
					<polygon style="fill:url(#SVGID_00000057150425718397368340000016683988161670648971_);" points="2200.563,1859.218 
						2064.7,1859.218 2064.7,1837.979 2084.422,1828.54 2180.841,1828.54 2200.563,1837.979 					"/>
				</g>
				<g>
					<g>
						
							<linearGradient id="SVGID_00000149372032588595744290000016334109721820388237_" gradientUnits="userSpaceOnUse" x1="2260.8252" y1="1622.5533" x2="2282.7388" y2="1622.5533">
							<stop  offset="0" style="stop-color:#DAE3FE"/>
							<stop  offset="1" style="stop-color:#E9EFFD"/>
						</linearGradient>
						
							<rect x="2260.825" y="1420.95" style="fill:url(#SVGID_00000149372032588595744290000016334109721820388237_);" width="21.914" height="403.207"/>
						
							<linearGradient id="SVGID_00000108279177718395321480000016942294551888049312_" gradientUnits="userSpaceOnUse" x1="2293.6953" y1="1622.5533" x2="2315.6089" y2="1622.5533">
							<stop  offset="0" style="stop-color:#DAE3FE"/>
							<stop  offset="1" style="stop-color:#E9EFFD"/>
						</linearGradient>
						
							<rect x="2293.695" y="1420.95" style="fill:url(#SVGID_00000108279177718395321480000016942294551888049312_);" width="21.914" height="403.207"/>
						
							<linearGradient id="SVGID_00000005981927545121454060000010122252768419271564_" gradientUnits="userSpaceOnUse" x1="2326.5654" y1="1622.5533" x2="2348.479" y2="1622.5533">
							<stop  offset="0" style="stop-color:#DAE3FE"/>
							<stop  offset="1" style="stop-color:#E9EFFD"/>
						</linearGradient>
						
							<rect x="2326.565" y="1420.95" style="fill:url(#SVGID_00000005981927545121454060000010122252768419271564_);" width="21.913" height="403.207"/>
					</g>
					
						<linearGradient id="SVGID_00000067220812759385011040000016635117059318426781_" gradientUnits="userSpaceOnUse" x1="2236.7205" y1="1406.7058" x2="2372.5837" y2="1406.7058">
						<stop  offset="0" style="stop-color:#DAE3FE"/>
						<stop  offset="1" style="stop-color:#E9EFFD"/>
					</linearGradient>
					<polygon style="fill:url(#SVGID_00000067220812759385011040000016635117059318426781_);" points="2372.584,1399.036 
						2236.72,1399.036 2236.72,1404.936 2256.443,1414.375 2352.862,1414.375 2372.584,1404.936 					"/>
					
						<linearGradient id="SVGID_00000096052185538015114840000011140668700951756978_" gradientUnits="userSpaceOnUse" x1="2237.8164" y1="1843.8789" x2="2373.6797" y2="1843.8789">
						<stop  offset="0" style="stop-color:#DAE3FE"/>
						<stop  offset="1" style="stop-color:#E9EFFD"/>
					</linearGradient>
					<polygon style="fill:url(#SVGID_00000096052185538015114840000011140668700951756978_);" points="2373.68,1859.218 
						2237.816,1859.218 2237.816,1837.979 2257.538,1828.54 2353.958,1828.54 2373.68,1837.979 					"/>
				</g>
				<g>
					<g>
						
							<linearGradient id="SVGID_00000049217025744667034250000017438725534145868174_" gradientUnits="userSpaceOnUse" x1="2433.9414" y1="1622.5533" x2="2455.8547" y2="1622.5533">
							<stop  offset="0" style="stop-color:#DAE3FE"/>
							<stop  offset="1" style="stop-color:#E9EFFD"/>
						</linearGradient>
						
							<rect x="2433.941" y="1420.95" style="fill:url(#SVGID_00000049217025744667034250000017438725534145868174_);" width="21.913" height="403.207"/>
						
							<linearGradient id="SVGID_00000083798104626048284710000009973044015263124922_" gradientUnits="userSpaceOnUse" x1="2466.8115" y1="1622.5533" x2="2488.7251" y2="1622.5533">
							<stop  offset="0" style="stop-color:#DAE3FE"/>
							<stop  offset="1" style="stop-color:#E9EFFD"/>
						</linearGradient>
						
							<rect x="2466.812" y="1420.95" style="fill:url(#SVGID_00000083798104626048284710000009973044015263124922_);" width="21.913" height="403.207"/>
						
							<linearGradient id="SVGID_00000049195076093172932610000014806869147492824714_" gradientUnits="userSpaceOnUse" x1="2499.6819" y1="1622.5533" x2="2521.5952" y2="1622.5533">
							<stop  offset="0" style="stop-color:#DAE3FE"/>
							<stop  offset="1" style="stop-color:#E9EFFD"/>
						</linearGradient>
						
							<rect x="2499.682" y="1420.95" style="fill:url(#SVGID_00000049195076093172932610000014806869147492824714_);" width="21.913" height="403.207"/>
					</g>
					
						<linearGradient id="SVGID_00000008869629704587351630000011239640658564187540_" gradientUnits="userSpaceOnUse" x1="2409.8364" y1="1406.7058" x2="2545.6997" y2="1406.7058">
						<stop  offset="0" style="stop-color:#DAE3FE"/>
						<stop  offset="1" style="stop-color:#E9EFFD"/>
					</linearGradient>
					<polygon style="fill:url(#SVGID_00000008869629704587351630000011239640658564187540_);" points="2545.7,1399.036 
						2409.836,1399.036 2409.836,1404.936 2429.559,1414.375 2525.978,1414.375 2545.7,1404.936 					"/>
					
						<linearGradient id="SVGID_00000102530494330679659320000014681374028544695178_" gradientUnits="userSpaceOnUse" x1="2410.9324" y1="1843.8789" x2="2546.7957" y2="1843.8789">
						<stop  offset="0" style="stop-color:#DAE3FE"/>
						<stop  offset="1" style="stop-color:#E9EFFD"/>
					</linearGradient>
					<polygon style="fill:url(#SVGID_00000102530494330679659320000014681374028544695178_);" points="2546.796,1859.218 
						2410.932,1859.218 2410.932,1837.979 2430.654,1828.54 2527.073,1828.54 2546.796,1837.979 					"/>
				</g>
				<g>
					<g>
						
							<linearGradient id="SVGID_00000179606664294987323520000017120845148289237129_" gradientUnits="userSpaceOnUse" x1="2607.0576" y1="1622.5533" x2="2628.9712" y2="1622.5533">
							<stop  offset="0" style="stop-color:#DAE3FE"/>
							<stop  offset="1" style="stop-color:#E9EFFD"/>
						</linearGradient>
						
							<rect x="2607.058" y="1420.95" style="fill:url(#SVGID_00000179606664294987323520000017120845148289237129_);" width="21.913" height="403.207"/>
						
							<linearGradient id="SVGID_00000152984243072693039230000012345277586698722705_" gradientUnits="userSpaceOnUse" x1="2639.9275" y1="1622.5533" x2="2661.8413" y2="1622.5533">
							<stop  offset="0" style="stop-color:#DAE3FE"/>
							<stop  offset="1" style="stop-color:#E9EFFD"/>
						</linearGradient>
						
							<rect x="2639.927" y="1420.95" style="fill:url(#SVGID_00000152984243072693039230000012345277586698722705_);" width="21.914" height="403.207"/>
						
							<linearGradient id="SVGID_00000080190988280830854050000000187997005695448213_" gradientUnits="userSpaceOnUse" x1="2672.7979" y1="1622.5533" x2="2694.7112" y2="1622.5533">
							<stop  offset="0" style="stop-color:#DAE3FE"/>
							<stop  offset="1" style="stop-color:#E9EFFD"/>
						</linearGradient>
						
							<rect x="2672.798" y="1420.95" style="fill:url(#SVGID_00000080190988280830854050000000187997005695448213_);" width="21.913" height="403.207"/>
					</g>
					
						<linearGradient id="SVGID_00000016058732650952682020000003169320468062903723_" gradientUnits="userSpaceOnUse" x1="2582.9529" y1="1406.7058" x2="2718.8162" y2="1406.7058">
						<stop  offset="0" style="stop-color:#DAE3FE"/>
						<stop  offset="1" style="stop-color:#E9EFFD"/>
					</linearGradient>
					<polygon style="fill:url(#SVGID_00000016058732650952682020000003169320468062903723_);" points="2718.816,1399.036 
						2582.953,1399.036 2582.953,1404.936 2602.675,1414.375 2699.094,1414.375 2718.816,1404.936 					"/>
					
						<linearGradient id="SVGID_00000020398418500027779470000016531459144809936022_" gradientUnits="userSpaceOnUse" x1="2584.0486" y1="1843.8789" x2="2719.9119" y2="1843.8789">
						<stop  offset="0" style="stop-color:#DAE3FE"/>
						<stop  offset="1" style="stop-color:#E9EFFD"/>
					</linearGradient>
					<polygon style="fill:url(#SVGID_00000020398418500027779470000016531459144809936022_);" points="2719.912,1859.218 
						2584.049,1859.218 2584.049,1837.979 2603.771,1828.54 2700.19,1828.54 2719.912,1837.979 					"/>
				</g>
				<g>
					<g>
						
							<linearGradient id="SVGID_00000140003558291671049330000004694329713727169726_" gradientUnits="userSpaceOnUse" x1="2780.1736" y1="1622.5533" x2="2802.0872" y2="1622.5533">
							<stop  offset="0" style="stop-color:#DAE3FE"/>
							<stop  offset="1" style="stop-color:#E9EFFD"/>
						</linearGradient>
						
							<rect x="2780.174" y="1420.95" style="fill:url(#SVGID_00000140003558291671049330000004694329713727169726_);" width="21.913" height="403.207"/>
						
							<linearGradient id="SVGID_00000163070308700536918160000001105162357277375626_" gradientUnits="userSpaceOnUse" x1="2813.0439" y1="1622.5533" x2="2834.9573" y2="1622.5533">
							<stop  offset="0" style="stop-color:#DAE3FE"/>
							<stop  offset="1" style="stop-color:#E9EFFD"/>
						</linearGradient>
						
							<rect x="2813.044" y="1420.95" style="fill:url(#SVGID_00000163070308700536918160000001105162357277375626_);" width="21.913" height="403.207"/>
						
							<linearGradient id="SVGID_00000134937641748728137670000011111190923480416701_" gradientUnits="userSpaceOnUse" x1="2845.9141" y1="1622.5533" x2="2867.8274" y2="1622.5533">
							<stop  offset="0" style="stop-color:#DAE3FE"/>
							<stop  offset="1" style="stop-color:#E9EFFD"/>
						</linearGradient>
						
							<rect x="2845.914" y="1420.95" style="fill:url(#SVGID_00000134937641748728137670000011111190923480416701_);" width="21.913" height="403.207"/>
					</g>
					
						<linearGradient id="SVGID_00000121968888002529156710000004398807833750995363_" gradientUnits="userSpaceOnUse" x1="2756.0691" y1="1406.7058" x2="2891.9324" y2="1406.7058">
						<stop  offset="0" style="stop-color:#DAE3FE"/>
						<stop  offset="1" style="stop-color:#E9EFFD"/>
					</linearGradient>
					<polygon style="fill:url(#SVGID_00000121968888002529156710000004398807833750995363_);" points="2891.932,1399.036 
						2756.069,1399.036 2756.069,1404.936 2775.791,1414.375 2872.21,1414.375 2891.932,1404.936 					"/>
					
						<linearGradient id="SVGID_00000105388403006711988320000012350683981930531242_" gradientUnits="userSpaceOnUse" x1="2757.1646" y1="1843.8789" x2="2893.0278" y2="1843.8789">
						<stop  offset="0" style="stop-color:#DAE3FE"/>
						<stop  offset="1" style="stop-color:#E9EFFD"/>
					</linearGradient>
					<polygon style="fill:url(#SVGID_00000105388403006711988320000012350683981930531242_);" points="2893.028,1859.218 
						2757.165,1859.218 2757.165,1837.979 2776.887,1828.54 2873.306,1828.54 2893.028,1837.979 					"/>
				</g>
			</g>
			
				<linearGradient id="SVGID_00000039106280292905713870000000421270650861141906_" gradientUnits="userSpaceOnUse" x1="1855.3602" y1="1880.0461" x2="2935.0183" y2="1880.0461">
				<stop  offset="0" style="stop-color:#DAE3FE"/>
				<stop  offset="1" style="stop-color:#E9EFFD"/>
			</linearGradient>
			<path style="fill:url(#SVGID_00000039106280292905713870000000421270650861141906_);" d="M2932.926,1891.81H1857.452
				c-1.155,0-2.092-0.937-2.092-2.092v-19.344c0-1.156,0.937-2.092,2.092-2.092h1075.474c1.156,0,2.092,0.937,2.092,2.092v19.344
				C2935.018,1890.873,2934.082,1891.81,2932.926,1891.81z"/>
			
				<linearGradient id="SVGID_00000111182015342156269870000006080668030058016134_" gradientUnits="userSpaceOnUse" x1="1802.2595" y1="1933.6368" x2="2981.2566" y2="1933.6368">
				<stop  offset="0" style="stop-color:#DAE3FE"/>
				<stop  offset="1" style="stop-color:#E9EFFD"/>
			</linearGradient>
			<path style="fill:url(#SVGID_00000111182015342156269870000006080668030058016134_);" d="M2976.757,1963.7H1806.76
				c-2.485,0-4.5-2.015-4.5-4.5v-51.126c0-2.485,2.015-4.5,4.5-4.5h1169.997c2.485,0,4.5,2.015,4.5,4.5v51.126
				C2981.257,1961.685,2979.242,1963.7,2976.757,1963.7z"/>
		</g>
		<g>
			<g style="opacity:0.54;">
				<path style="fill:#7D97F4;" d="M1435.793,2281.078l592.874-3.303c24.271-0.135,39.347,26.33,26.854,47.139l-2.977,4.958
					c-5.625,9.369-15.752,15.102-26.681,15.102h-589.897c-17.187,0-31.12-13.933-31.12-31.121v-1.656
					C1404.846,2295.078,1418.674,2281.174,1435.793,2281.078z"/>
				<path style="fill:#7D97F4;" d="M1352.975,2312.889v0.965c0,17.187-13.933,31.121-31.12,31.121h-131.611
					c-14.094,0-26.428-9.472-30.066-23.088l0,0c-5.255-19.668,9.479-39.003,29.838-39.152l131.611-0.964
					C1338.902,2281.643,1352.975,2295.613,1352.975,2312.889z"/>
			</g>
			<g>
				<path style="fill:#7D97F4;" d="M1578.408,2392.79l450.259-3.302c24.271-0.135,39.347,26.33,26.854,47.138l-2.977,4.958
					c-5.625,9.369-15.752,15.101-26.681,15.101h-447.282c-17.187,0-31.12-13.933-31.12-31.12v-1.656
					C1547.462,2406.79,1561.289,2392.885,1578.408,2392.79z"/>
				<path style="fill:#7D97F4;" d="M1495.59,2424.6v0.965c0,17.187-13.933,31.12-31.12,31.12h-131.612
					c-14.093,0-26.427-9.471-30.065-23.087l0,0c-5.255-19.669,9.479-39.003,29.838-39.152l131.612-0.964
					C1481.518,2393.354,1495.59,2407.324,1495.59,2424.6z"/>
			</g>
		</g>
		<g>
			
				<linearGradient id="SVGID_00000017477258565971717610000007408047893806335623_" gradientUnits="userSpaceOnUse" x1="1448.6337" y1="1391.0748" x2="1603.3159" y2="788.1642">
				<stop  offset="0" style="stop-color:#4F52FF"/>
				<stop  offset="1" style="stop-color:#4042E2"/>
			</linearGradient>
			<path style="fill:url(#SVGID_00000017477258565971717610000007408047893806335623_);" d="M1928.779,836.281l-17.49,359.876
				l-2.712,55.722c-0.181,7.278-6.298,13.087-13.577,12.905l-715.975-17.858c-7.279-0.182-13.098-6.288-12.917-13.566l0.582-55.775
				l3.723-355.821c0.182-7.278,9.112-21.268,24.793-19.806l700.184-0.658c9.141,0,17.892,3.729,24.2,10.348
				C1925.9,818.258,1929.223,827.162,1928.779,836.281z"/>
			
				<linearGradient id="SVGID_00000132786605080595951190000011295916152971559348_" gradientUnits="userSpaceOnUse" x1="1602.5748" y1="896.1522" x2="1857.4491" y2="316.0938">
				<stop  offset="0" style="stop-color:#4F52FF"/>
				<stop  offset="1" style="stop-color:#4042E2"/>
			</linearGradient>
			<path style="fill:url(#SVGID_00000132786605080595951190000011295916152971559348_);" d="M1891.351,1240.185
				c-0.169,6.789-5.984,12.202-12.921,12.029l-682.045-17.011c-6.937-0.173-12.474-5.87-12.305-12.659l3.901-384.112
				c0.169-6.789,8.665-19.84,23.604-18.471l666.991-0.271c8.709-0.003,17.043,3.488,23.057,9.661
				c6.013,6.172,9.181,14.485,8.762,22.999L1891.351,1240.185z"/>
			<path style="fill:#FFFFFF;" d="M1878.382,1255.709c-0.151,0-0.299-0.002-0.45-0.005l-76.352-1.905
				c-0.968-0.024-1.737-0.831-1.713-1.802c0.024-0.954,0.807-1.713,1.758-1.713c0.014,0,0.027,0,0.045,0l76.352,1.905
				c0.117,0.004,0.237,0.005,0.357,0.005c9.304,0,18.549-8.954,18.782-18.304l5.823-233.527c0.024-0.968,0.714-1.639,1.802-1.713
				c0.968,0.024,1.737,0.831,1.713,1.802l-5.823,233.527C1900.395,1245.277,1889.625,1255.709,1878.382,1255.709z"/>
			<g>
				
					<linearGradient id="SVGID_00000064324390413619283060000016957342108221499785_" gradientUnits="userSpaceOnUse" x1="958.0027" y1="280.7997" x2="664.0008" y2="392.6768" gradientTransform="matrix(0.9997 0.0249 -0.0249 0.9997 608.4447 611.8865)">
					<stop  offset="0" style="stop-color:#FEBBBA"/>
					<stop  offset="1" style="stop-color:#FF928E"/>
				</linearGradient>
				<path style="fill:url(#SVGID_00000064324390413619283060000016957342108221499785_);" d="M1357.603,975.805
					c0.182-7.315-5.6-13.393-12.915-13.576l-88.435-2.206c-7.315-0.182-13.393,5.6-13.576,12.915l-1.678,67.265
					c-0.182,7.315,5.6,13.393,12.915,13.576l88.435,2.206c7.315,0.182,13.394-5.6,13.576-12.915L1357.603,975.805z"/>
				<g>
					<path style="opacity:0.8;fill:#FFFFFF;" d="M1307.064,1026.598c-0.052,0-0.096-0.002-0.148-0.002l-25.223-0.628
						c-3.186-0.082-5.716-2.74-5.637-5.926l0.556-22.198c0.038-1.543,0.676-2.98,1.796-4.044c1.116-1.066,2.602-1.583,4.13-1.591
						l25.22,0.628c1.545,0.039,2.98,0.676,4.044,1.796c1.064,1.119,1.631,2.585,1.593,4.128l0,0l-0.553,22.198
						C1312.763,1024.097,1310.185,1026.598,1307.064,1026.598z M1282.391,995.723c-0.584,0-1.136,0.221-1.559,0.625
						c-0.439,0.417-0.69,0.98-0.704,1.584l-0.556,22.198c-0.031,1.248,0.961,2.292,2.211,2.323l25.223,0.628
						c0.017,0.002,0.038,0.002,0.055,0.002c1.226,0,2.235-0.98,2.266-2.209l0.553-22.198c0.014-0.606-0.206-1.181-0.621-1.62
						c-0.419-0.438-0.982-0.688-1.589-0.702l-25.22-0.628C1282.428,995.723,1282.411,995.723,1282.391,995.723z M1311.637,998.718
						h0.034H1311.637z"/>
					<g>
						<path style="fill:#FFFFFF;" d="M1278.244,1004.697c-0.014,0-0.027,0-0.045,0l-36.291-0.905
							c-0.968-0.024-1.737-0.831-1.713-1.802c0.024-0.954,0.807-1.713,1.758-1.713c0.014,0,0.027,0,0.045,0l36.291,0.905
							c0.968,0.024,1.737,0.831,1.713,1.802C1279.977,1003.938,1279.194,1004.697,1278.244,1004.697z"/>
						<path style="fill:#FFFFFF;" d="M1278.017,1013.771c-0.014,0-0.027,0-0.045,0l-36.291-0.906
							c-0.968-0.024-1.737-0.831-1.713-1.802c0.024-0.968,0.738-1.727,1.802-1.713l36.292,0.906
							c0.968,0.024,1.737,0.831,1.713,1.802C1279.751,1013.012,1278.968,1013.771,1278.017,1013.771z"/>
					</g>
					<g>
						<path style="fill:#FFFFFF;" d="M1356.879,1006.657c-0.014,0-0.027,0-0.045,0l-39.319-0.98
							c-0.968-0.024-1.737-0.831-1.713-1.802c0.024-0.954,0.807-1.713,1.758-1.713c0.014,0,0.028,0,0.045,0l39.319,0.98
							c0.968,0.024,1.737,0.831,1.713,1.802C1358.613,1005.898,1357.83,1006.657,1356.879,1006.657z"/>
						<path style="fill:#FFFFFF;" d="M1356.652,1015.731c-0.014,0-0.028,0-0.045,0l-39.319-0.98
							c-0.968-0.024-1.737-0.831-1.713-1.802c0.024-0.954,0.807-1.713,1.758-1.713c0.014,0,0.027,0,0.045,0l39.319,0.98
							c0.968,0.024,1.737,0.831,1.713,1.802C1358.386,1014.972,1357.603,1015.731,1356.652,1015.731z"/>
					</g>
					<g>
						<g>
							<path style="fill:#FFFFFF;" d="M1286.72,995.97c-0.81,0-1.542-0.568-1.717-1.396l-6.973-33.107
								c-0.199-0.949,0.409-1.881,1.356-2.082c0.944-0.197,1.881,0.409,2.084,1.358l6.973,33.107
								c0.199,0.949-0.409,1.881-1.356,2.082C1286.964,995.958,1286.84,995.97,1286.72,995.97z"/>
							<path style="fill:#FFFFFF;" d="M1307.799,996.497c-0.151,0-0.306-0.019-0.46-0.062c-0.937-0.256-1.49-1.22-1.236-2.158
								l8.906-32.712c0.254-0.934,1.226-1.495,2.156-1.234c0.937,0.256,1.49,1.22,1.236,2.158l-8.906,32.712
								C1309.282,995.984,1308.575,996.497,1307.799,996.497z"/>
						</g>
						<g>
							<path style="fill:#FFFFFF;" d="M1277.396,1057.272c-0.148,0-0.299-0.019-0.446-0.058c-0.941-0.247-1.5-1.208-1.253-2.147
								l8.617-32.719c0.244-0.935,1.215-1.504,2.146-1.251c0.941,0.247,1.5,1.208,1.253,2.147l-8.617,32.719
								C1278.889,1056.75,1278.175,1057.272,1277.396,1057.272z"/>
							<path style="fill:#FFFFFF;" d="M1314.349,1058.193c-0.81,0-1.538-0.56-1.716-1.382l-7.261-33.114
								c-0.209-0.948,0.391-1.885,1.339-2.093c0.975-0.204,1.888,0.393,2.094,1.341l7.261,33.114
								c0.209,0.948-0.391,1.885-1.339,2.092C1314.6,1058.18,1314.473,1058.193,1314.349,1058.193z"/>
						</g>
					</g>
				</g>
			</g>
			<path style="fill:#91B3FA;" d="M1360.061,877.269c-0.217,8.687-7.435,15.554-16.122,15.337l-98.589-2.459
				c-8.687-0.217-15.554-7.435-15.337-16.122l0.045-1.809c0.217-8.687,7.435-15.554,16.122-15.337l98.589,2.459
				c8.687,0.217,15.554,7.435,15.337,16.122L1360.061,877.269z"/>
			<g>
				<path style="fill:#91B3FA;" d="M1363.232,1114.118c-0.207,8.289-7.094,14.841-15.383,14.634l-109.104-2.721
					c-8.289-0.207-14.841-7.094-14.634-15.383l0.006-0.227c0.207-8.289,7.094-14.841,15.383-14.634l109.104,2.721
					c8.289,0.207,14.841,7.094,14.634,15.383L1363.232,1114.118z"/>
				<path style="fill:#91B3FA;" d="M1520.5,1118.04c-0.207,8.289-7.094,14.841-15.383,14.634l-109.104-2.721
					c-8.289-0.207-14.841-7.094-14.634-15.383l0.006-0.227c0.207-8.289,7.094-14.841,15.383-14.634l109.104,2.721
					c8.289,0.207,14.841,7.094,14.634,15.383L1520.5,1118.04z"/>
				<path style="fill:#91B3FA;" d="M1677.767,1121.963c-0.207,8.289-7.094,14.841-15.383,14.634l-109.104-2.721
					c-8.289-0.207-14.841-7.094-14.634-15.383l0.006-0.227c0.207-8.289,7.094-14.841,15.383-14.634l109.104,2.721
					c8.289,0.207,14.841,7.094,14.634,15.383L1677.767,1121.963z"/>
				<path style="fill:#91B3FA;" d="M1838.059,1125.96c-0.207,8.289-7.094,14.841-15.383,14.634l-109.104-2.721
					c-8.289-0.207-14.841-7.094-14.634-15.383l0.006-0.227c0.207-8.289,7.094-14.841,15.383-14.634l109.104,2.721
					c8.289,0.207,14.841,7.094,14.634,15.383L1838.059,1125.96z"/>
			</g>
			<g style="opacity:0.8;">
				<g>
					<path style="fill:#BDD0FB;" d="M1464.4,1183.27c-0.164,6.59-5.64,11.8-12.23,11.635l-202.963-5.062
						c-6.59-0.164-11.799-5.64-11.635-12.23l0.008-0.33c0.164-6.59,5.64-11.799,12.23-11.635l202.963,5.062
						c6.59,0.164,11.8,5.64,11.635,12.23L1464.4,1183.27z"/>
				</g>
				<g>
					<path style="fill:#BDD0FB;" d="M1818.403,1186.047c-0.164,6.59-5.64,11.799-12.23,11.635l-88.037-2.196
						c-6.59-0.164-11.799-5.64-11.635-12.23l0.008-0.33c0.164-6.59,5.64-11.799,12.23-11.635l88.037,2.196
						c6.59,0.164,11.799,5.64,11.635,12.23L1818.403,1186.047z"/>
				</g>
			</g>
		</g>
		<g>
			
				<linearGradient id="SVGID_00000083771137669514468030000009960407355839755180_" gradientUnits="userSpaceOnUse" x1="1436.0336" y1="1580.8584" x2="2293.8149" y2="930.491">
				<stop  offset="0" style="stop-color:#4F52FF"/>
				<stop  offset="1" style="stop-color:#4042E2"/>
			</linearGradient>
			<path style="fill:url(#SVGID_00000083771137669514468030000009960407355839755180_);" d="M1478.479,1899.988l-313.063,17.77
				c-26.207,1.488-48.756-18.336-50.639-44.517l-26.114-363.175c-2-27.817,20.028-51.485,47.917-51.485h339.176
				c26.532,0,48.041,21.508,48.041,48.04v345.405C1523.797,1877.499,1503.912,1898.544,1478.479,1899.988z"/>
			<g>
				<path style="fill:#BDD0FB;" d="M1175.488,1688.207c0,79.263,64.484,143.749,143.747,143.749
					c79.263,0,143.749-64.486,143.749-143.749c0-44.042-19.928-83.5-51.219-109.889l0.008-0.396l-0.484-0.018
					c-24.956-20.862-57.058-33.445-92.053-33.445c-34.984,0-67.078,12.575-92.031,33.426l-0.468,0.008l0.009,0.39
					C1195.432,1604.674,1175.488,1644.147,1175.488,1688.207z M1182.353,1690.336l0.934,0.023l31.879,0.202
					c0.278,15.484,2.369,30.534,6.249,44.783l-30.648,0.268C1185.532,1721.467,1182.597,1706.222,1182.353,1690.336z
					 M1447.684,1735.663l-3.308-0.122l-20.02-0.128c2.063-7.531,3.645-15.308,4.69-23.154c0.939-7.086,1.453-14.365,1.582-21.671
					l25.49-0.19C1455.866,1706.281,1452.925,1721.521,1447.684,1735.663z M1456.041,1682.984l-0.801-0.03l-24.67-0.144
					c-0.205-6.412-0.712-12.764-1.537-18.96c-1.08-8.074-2.72-16.074-4.871-23.783c-0.199-0.7-0.425-1.384-0.632-2.079l22.333-0.184
					l0.471-0.471C1452.041,1651.539,1455.433,1666.907,1456.041,1682.984z M1230.329,1733.575
					c-3.724-13.642-5.707-28.084-5.941-42.956l26.866,0.17l25.743,0.048c0.101,15.614,0.85,30.305,2.293,44.309l-48.455,0.146
					C1230.669,1734.719,1230.488,1734.155,1230.329,1733.575z M1231.618,1638.031l25.067,0.173l23.25,0.047
					c-1.725,14.065-2.677,28.752-2.896,44.309l-52.605,0.146c0.419-13.889,2.382-27.387,5.867-40.191
					C1230.715,1641.005,1231.165,1639.517,1231.618,1638.031z M1295.28,1777.228c-1.361-5.558-2.557-10.169-3.658-16.555
					c-0.964-5.586-1.798-11.355-2.516-17.311l30.136-0.015l29.399-0.234c-0.735,6.136-1.596,11.761-2.604,17.557
					c-1.106,6.347-2.315,11.543-3.699,17.134c-0.768,3.096-1.561,5.405-2.386,7.544h-42.152
					C1296.926,1783.21,1296.089,1780.528,1295.28,1777.228z M1288.203,1735.12c-0.341-3.443-0.655-6.949-0.927-10.571
					c-0.833-10.907-1.265-22.232-1.324-33.694l33.29,0.062l32.426-0.082c-0.021,11.647-0.434,23.169-1.258,34.29
					c-0.255,3.396-0.545,6.707-0.863,9.958l-30.291-0.056L1288.203,1735.12z M1350.664,1652.075
					c0.601,9.429,0.929,19.441,1.002,30.423l-32.411-0.055l-33.281,0.093c0.109-10.496,0.562-20.882,1.398-30.938
					c0.377-4.597,0.837-9,1.338-13.328l30.533,0.063l30.325-0.084C1349.986,1642.736,1350.365,1647.304,1350.664,1652.075z
					 M1309.345,1565.088c1.811-2.641,3.5-4.578,5.307-6.084c1.007-0.834,2.013-1.486,2.987-1.93c1.024-0.462,2.017-0.714,2.94-0.736
					c0.068-0.004,0.135-0.004,0.204-0.004c0.898,0,1.823,0.19,2.707,0.557c0.953,0.389,1.925,0.995,2.903,1.807
					c1.76,1.464,3.383,3.405,5.103,6.099c1.399,2.207,2.709,4.7,4.002,7.615c0.681,1.531,1.339,3.161,1.992,4.897l-18.234-0.035
					l-16.379,0.082C1304.949,1572.471,1307.038,1568.501,1309.345,1565.088z M1343.493,1597.993
					c1.259,5.601,2.354,11.433,3.346,17.832c0.709,4.585,1.315,9.288,1.865,14.086l-29.447-0.054l-29.486,0.09
					c0.69-4.925,1.449-9.744,2.33-14.441c1.176-6.288,2.467-12.071,3.948-17.686c1.159-4.375,2.372-8.37,3.66-12.127l19.53,0.057
					l21.056-0.043C1341.429,1589.501,1342.489,1593.548,1343.493,1597.993z M1268.719,1577.528
					c3.793-3.362,7.708-6.382,11.722-8.947c6.514-4.134,13.358-7.31,20.329-9.437c1.318-0.403,2.651-0.73,3.982-1.061
					c-0.625,0.783-1.25,1.608-1.882,2.511c-3.163,4.568-5.939,9.916-8.733,16.806L1268.719,1577.528z M1335.526,1556.962
					c3.14,0.549,6.264,1.253,9.342,2.196c6.965,2.133,13.803,5.317,20.325,9.461c3.966,2.538,7.843,5.535,11.607,8.87l-13.122-0.099
					c-5.21-0.042-10.426-0.053-15.641-0.059l-1.953-0.004c-1.084-3.013-2.17-5.716-3.315-8.214
					c-1.495-3.271-3.018-6.087-4.655-8.609C1337.251,1559.183,1336.392,1558.033,1335.526,1556.962z M1379.618,1796.042
					c-4.648,4.278-9.497,8.252-14.482,11.436c-6.474,4.105-13.308,7.215-20.302,9.359c-3.423,1.052-6.898,1.853-10.398,2.416
					c0.667-0.844,1.333-1.718,2.005-2.704c3.147-4.698,5.867-10.172,8.575-17.324c0.398-1.058,0.78-1.044,1.162-3.183H1379.618z
					 M1317.21,1819.988c-0.448-0.119-0.9-0.266-1.359-0.478c-0.937-0.434-1.907-1.063-2.879-1.897
					c-1.748-1.506-3.378-3.425-5.129-6.111c-2.647-4.117-4.994-9.044-7.365-15.46h36.792c-0.035,0-0.068,0.137-0.104,0.234
					c-2.423,6.553-4.826,11.476-7.561,15.623c-1.76,2.631-3.414,4.54-5.19,5.986c-0.98,0.796-1.949,1.391-2.873,1.766
					c-0.56,0.229-1.097,0.359-1.626,0.444C1319.014,1820.057,1318.111,1820.06,1317.21,1819.988z M1301.72,1817.108
					c-0.301-0.089-0.607-0.135-0.907-0.227c-7.008-2.144-13.849-5.278-20.332-9.38c-4.997-3.182-9.867-7.182-14.539-11.46h25.619
					c0.314,0,0.623,1.744,0.947,2.619c2.685,7.17,5.363,12.626,8.432,17.32C1301.202,1816.376,1301.46,1816.736,1301.72,1817.108z
					 M1234.255,1630.118c3.852-10.612,8.714-20.461,14.547-29.375c3.603-5.498,7.581-10.591,11.824-15.237l14.193,0.116
					l16.285,0.048c-1.056,3.145-2.067,6.447-3.043,9.98c-1.593,5.776-2.992,11.741-4.282,18.242
					c-1.037,5.284-1.938,10.645-2.736,16.082L1234.255,1630.118z M1384.9,1585.473c4.258,4.666,8.253,9.788,11.871,15.322
					c5.824,8.914,10.673,18.759,14.512,29.365l-29.466-0.188l-24.401-0.044c-0.649-5.283-1.369-10.436-2.202-15.458
					c-1.096-6.589-2.291-12.593-3.653-18.358c-0.88-3.707-1.798-7.151-2.762-10.423c4.963-0.007,9.926-0.016,14.889-0.057
					L1384.9,1585.473z M1413.91,1638.068c0.451,1.485,0.899,2.974,1.312,4.486c1.935,7.125,3.434,14.712,4.451,22.54
					c0.752,5.787,1.216,11.707,1.4,17.662l-33.825-0.197l-26.37-0.045c-0.06-4.426-0.188-8.693-0.322-12.47
					c-0.236-6.256-0.579-12.505-1.027-18.575c-0.337-4.563-0.744-8.94-1.184-13.244l54.745-0.151L1413.91,1638.068z
					 M1414.663,1735.351l-32.849-0.21l-23.352-0.043c0.314-3.034,0.604-6.114,0.865-9.271c0.932-11.363,1.443-23.135,1.553-35.017
					l60.24-0.153c-0.117,6.864-0.592,13.703-1.463,20.354c-1.019,7.815-2.521,15.399-4.464,22.537
					C1415.026,1734.156,1414.836,1734.747,1414.663,1735.351z M1412.188,1742.634c-3.982,11.629-9.156,21.771-15.475,31.426
					c-2.903,4.441-6.058,9.15-9.389,11.289h-38.559c0.626,0,1.241-3.127,1.837-5.45c1.472-5.758,2.769-10.532,3.965-17.093
					c1.142-6.288,2.108-12.737,2.94-19.412L1412.188,1742.634z M1258.231,1785.349c-3.323-2.139-6.473-7.018-9.374-11.44
					c-6.34-9.67-11.533-19.432-15.533-31.096l23.361-0.238h23.553c0.797,6.416,1.729,12.519,2.824,18.669
					c1.183,6.557,2.467,12.312,3.927,18.088c0.64,2.527,1.304,3.878,1.982,6.017H1258.231z M1182.431,1683.005
					c0.599-15.94,3.938-31.181,9.555-45.286l2.169,0.054l28.112,0.194c-0.211,0.71-0.441,1.409-0.643,2.125
					c-3.77,13.594-5.906,27.915-6.393,42.652L1182.431,1683.005z M1238.457,1577.727c15.381-11.276,33.183-19.428,52.479-23.498
					c-5.078,2.047-10.037,4.533-14.79,7.515c-6.722,4.238-13.128,9.405-19.044,15.362c-0.155,0.156-0.302,0.325-0.455,0.482
					l-12.117,0.061C1242.506,1577.672,1240.481,1577.703,1238.457,1577.727z M1365.375,1559.29
					c12.464,4.474,24.089,10.71,34.589,18.401c-2.064-0.023-4.128-0.053-6.192-0.074l-4.679-0.036
					c-0.168-0.171-0.328-0.355-0.497-0.525c-5.927-5.958-12.34-11.121-19.065-15.349
					C1368.165,1560.853,1366.771,1560.069,1365.375,1559.29z M1403.657,1795.979c-11.651,9.153-24.805,16.404-39.042,21.421
					c1.673-0.916,3.333-1.857,4.967-2.882c6.741-4.249,13.158-9.387,19.074-15.345c1.024-1.031,2.021-0.992,3.018-3.131h11.914
					C1403.612,1796.042,1403.634,1795.979,1403.657,1795.979z M1291.829,1822.451c-21.189-4.321-40.589-13.577-57.006-26.409h19.25
					c0.98,2.139,1.96,2.066,2.967,3.082c5.907,5.958,12.315,11.071,19.043,15.323
					C1281.155,1817.634,1286.432,1820.339,1291.829,1822.451z M1229.205,1585.159l1.232,0.031c4.881,0.084,9.823,0.137,14.766,0.189
					l4.405,0.036c-2.772,3.356-5.42,6.886-7.901,10.591c-6.923,10.342-12.577,21.8-16.911,34.142l-29.66,0.26
					C1203.261,1613.034,1214.928,1597.647,1229.205,1585.159z M1443.316,1630.365l-22.304-0.142
					c-4.358-12.401-10.037-23.9-16.99-34.268c-2.483-3.701-5.132-7.225-7.906-10.577c4.002-0.04,8.004-0.076,12.006-0.142
					l1.212-0.019C1423.568,1597.685,1435.204,1613.035,1443.316,1630.365z M1407.529,1792.155c0.068-0.295,0.112-1.208,0.112-1.524
					c0-2.242-1.818-5.282-4.053-5.282h-5.036c1.906-2.139,3.766-3.747,5.526-6.371c7.459-11.14,13.456-22.357,17.91-35.809
					l22.714-0.182C1436.233,1762.31,1423.434,1778.703,1407.529,1792.155z M1193.744,1742.172l0.41,0.466l29.634-0.1
					c4.436,13.437,10.417,25.247,17.858,36.383c1.768,2.644,3.637,4.289,5.555,6.427h-21.238c-0.181,0-0.354,1.246-0.529,1.269
					C1212.058,1774.018,1201.212,1759.231,1193.744,1742.172z"/>
			</g>
		</g>
		<g>
			
				<linearGradient id="SVGID_00000154411807532396671170000013957831803883395254_" gradientUnits="userSpaceOnUse" x1="786.2927" y1="1251.7698" x2="1619.4658" y2="671.7133">
				<stop  offset="0" style="stop-color:#4F52FF"/>
				<stop  offset="1" style="stop-color:#4042E2"/>
			</linearGradient>
			<path style="fill:url(#SVGID_00000154411807532396671170000013957831803883395254_);" d="M503.909,1566.186H833.37
				c25.196,0,45.622-20.426,45.622-45.623v-330.345c0-23.769-18.25-43.556-41.942-45.474l-351.019-28.41
				c-27.653-2.238-50.886,20.518-49.222,48.211l21.559,358.755C459.816,1547.39,479.775,1566.186,503.909,1566.186z"/>
			<g>
				<path style="fill:#BDD0FB;" d="M842.666,1252.42c-2.652-4.231-7.122-6.979-12.257-7.54l-260.546-28.691l-5.112-19.613
					c-1.811-6.975-8.174-12.325-15.831-13.318l-49.331-6.397c-10.834-1.41-19.78,5.095-20.663,14.418
					c-0.894,9.352,6.43,17.363,17.03,18.633l36.608,4.388l54.598,210.024c1.91,7.328,8.724,12.446,16.574,12.446l192.9-4.186
					c8.677-0.191,15.394-6.887,15.629-15.575c0.114-4.289-1.404-8.275-4.27-11.221c-2.878-2.955-6.81-4.581-11.262-4.581h-0.004
					l-178.299,2.014l-9.409-36.724l192.202,4.777h0.002c7.196,0,13.721-5.03,15.865-12.231l27.578-92.508
					C846.067,1261.828,845.339,1256.683,842.666,1252.42z M603.735,1427.968v-8.759c0.006,0.004,0.011,0.009,0.017,0.013
					L603.735,1427.968z M800.327,1353.646l-200.082-4.976l-25.287-111.451l238.321,25.862L800.327,1353.646z"/>
				<path style="fill:#BDD0FB;" d="M635.758,1439.706c-18.155,0.547-34.232,15.529-35.441,33.502
					c-1.218,18.104,13.129,31.806,31.569,30.456c17.993-1.317,33.078-16.532,34.014-33.837
					C666.83,1452.641,653.477,1439.172,635.758,1439.706z M632.929,1486.447c-8.513,0.525-15.079-5.841-14.549-14.17
					c0.528-8.302,7.904-15.324,16.356-15.675c8.355-0.347,14.706,5.968,14.238,14.098
					C648.505,1478.855,641.345,1485.928,632.929,1486.447z"/>
				<path style="fill:#BDD0FB;" d="M764.817,1435.817c-15.108,0.455-28.179,14.051-28.834,30.396
					c-0.658,16.453,11.517,28.988,26.828,27.868c14.971-1.095,27.284-14.89,27.743-30.681
					C791.01,1447.709,779.593,1435.372,764.817,1435.817z M763.35,1478.41c-7.076,0.436-12.66-5.39-12.38-12.969
					c0.279-7.557,6.283-13.928,13.316-14.22c6.96-0.289,12.379,5.493,12.142,12.907
					C776.192,1471.564,770.354,1477.978,763.35,1478.41z"/>
			</g>
		</g>
		<g>
			<g>
				
					<linearGradient id="SVGID_00000041272231477992734180000014993628175266018980_" gradientUnits="userSpaceOnUse" x1="-2359.8054" y1="2508.2534" x2="-2782.2734" y2="4135.5347" gradientTransform="matrix(-1 0 0 1 -1636.0502 0)">
					<stop  offset="0" style="stop-color:#09005D"/>
					<stop  offset="1" style="stop-color:#1A0F91"/>
				</linearGradient>
				<polygon style="fill:url(#SVGID_00000041272231477992734180000014993628175266018980_);" points="833.48,3138.633 
					861.809,3138.633 861.809,2832.276 833.48,2832.276 				"/>
				
					<linearGradient id="SVGID_00000035517749427555227490000018223742151059073680_" gradientUnits="userSpaceOnUse" x1="-2316.0544" y1="2490.9209" x2="-2755.8225" y2="4184.8394" gradientTransform="matrix(-1 0 0 1 -1636.0502 0)">
					<stop  offset="0" style="stop-color:#09005D"/>
					<stop  offset="1" style="stop-color:#1A0F91"/>
				</linearGradient>
				<path style="fill:url(#SVGID_00000035517749427555227490000018223742151059073680_);" d="M723.585,3144.54h248.118v-15.399
					c0-1.679-1.361-3.041-3.04-3.041H726.626c-1.679,0-3.041,1.361-3.041,3.041V3144.54z"/>
				
					<linearGradient id="SVGID_00000167379338587318501270000010160405377940310154_" gradientUnits="userSpaceOnUse" x1="828.0829" y1="2280.1255" x2="843.9016" y2="2849.6079">
					<stop  offset="0" style="stop-color:#09005D"/>
					<stop  offset="1" style="stop-color:#1A0F91"/>
				</linearGradient>
				<path style="fill:url(#SVGID_00000167379338587318501270000010160405377940310154_);" d="M686.762,2821.642
					c0,16.756,13.709,30.465,30.465,30.465h251.031c16.756,0,30.465-13.709,30.465-30.465v-27.546
					c0-16.755-13.709-30.465-30.465-30.465H717.226c-16.756,0-30.465,13.71-30.465,30.465V2821.642z"/>
			</g>
			<g>
				
					<linearGradient id="SVGID_00000075162957474234475210000014100263966718704259_" gradientUnits="userSpaceOnUse" x1="-2792.8506" y1="2879.3367" x2="-2591.4231" y2="2879.3367" gradientTransform="matrix(-1 0 0 1 -1636.0502 0)">
					<stop  offset="0" style="stop-color:#FEBBBA"/>
					<stop  offset="1" style="stop-color:#FF928E"/>
				</linearGradient>
				<path style="fill:url(#SVGID_00000075162957474234475210000014100263966718704259_);" d="M1056.781,2628.005
					c0,0,42.095,6.526,89.424,38.165c7.448,4.979,11.534,13.659,10.412,22.548c-5.667,44.891-28.969,190.188-105.806,332.1
					c-4.051,7.483-5.216,16.195-3.428,24.514l13.349,62.124l24.756,23.212h-63.766l-42.456-114.895l18.155-5.741
					c14.076-4.451,23.733-17.398,23.988-32.159l2.131-123.25c-1.818-54.911,33.67-92.797,33.67-92.797l-101.836-4.955
					L1056.781,2628.005z"/>
				
					<linearGradient id="SVGID_00000117663906359965948910000000248648255662256568_" gradientUnits="userSpaceOnUse" x1="-2669.6052" y1="3010.5864" x2="-2699.2319" y2="3464.8633" gradientTransform="matrix(-1 0 0 1 -1636.0502 0)">
					<stop  offset="0" style="stop-color:#4F52FF"/>
					<stop  offset="1" style="stop-color:#4042E2"/>
				</linearGradient>
				<path style="fill:url(#SVGID_00000117663906359965948910000000248648255662256568_);" d="M1110.387,3141.876
					c5.807,7.6-62.502,17.629-97.014,1.005c0,0-47.841-83.236-47.841-126.092c0,0,3.797-8.739,31.888-6.757
					c0,0,16.063,98.556,33.025,109.596c16.962,11.04,47.454,1.117,47.454,1.117S1101.818,3130.662,1110.387,3141.876z"/>
				
					<linearGradient id="SVGID_00000013883221979304478640000003528462158940764597_" gradientUnits="userSpaceOnUse" x1="-3025.1685" y1="2891.7773" x2="-2604.3076" y2="2891.7773" gradientTransform="matrix(-1 0 0 1 -1636.0502 0)">
					<stop  offset="0" style="stop-color:#FEBBBA"/>
					<stop  offset="1" style="stop-color:#FF928E"/>
				</linearGradient>
				<path style="fill:url(#SVGID_00000013883221979304478640000003528462158940764597_);" d="M968.258,2763.631
					c0.542-0.937,109.641-13.118,109.641-13.118s-3.57,33.172,7.589,78.837c11.159,45.665,171.341,243.507,171.341,243.507
					l-15.485,53.286c51.93,18.089,97.51,16.485,147.775,4.725l-99.897-58.01c0,0-97.415-331.972-157.085-391.195l-109.359-37.835
					L968.258,2763.631z"/>
				
					<linearGradient id="SVGID_00000054979436777473575750000004895406194330218405_" gradientUnits="userSpaceOnUse" x1="-2817.9502" y1="2486.9119" x2="-2068.6997" y2="3435.9614" gradientTransform="matrix(-1 0 0 1 -1636.0502 0)">
					<stop  offset="0" style="stop-color:#4F52FF"/>
					<stop  offset="1" style="stop-color:#4042E2"/>
				</linearGradient>
				<path style="fill:url(#SVGID_00000054979436777473575750000004895406194330218405_);" d="M723.585,2570.469
					c0,0-62.857,93.493-68.015,136.14c-5.158,42.647,18.132,74.144,83.172,62.833c214.728-1.554,265.7,80.17,280.141,183.354
					c0.222,1.584,1.544,2.795,3.143,2.846c74.606,2.402,149.962-13.223,218.537-47.051c3.177-1.567,4.449-5.461,2.838-8.616
					c-104.712-205-25.034-245.517-250.348-306.275C962.73,2590.055,723.585,2570.469,723.585,2570.469z"/>
				
					<linearGradient id="SVGID_00000131362998681128047970000008240662399674956690_" gradientUnits="userSpaceOnUse" x1="-2955.4998" y1="2991.9412" x2="-2985.1265" y2="3446.2183" gradientTransform="matrix(-1 0 0 1 -1636.0502 0)">
					<stop  offset="0" style="stop-color:#4F52FF"/>
					<stop  offset="1" style="stop-color:#4042E2"/>
				</linearGradient>
				<path style="fill:url(#SVGID_00000131362998681128047970000008240662399674956690_);" d="M1246.38,3108.169
					c0,0-18.082,17.514-5.867,37c0,0,143.242,25.39,182.134,13.87c0,0-9.801-18.756-53.594-39.736l4.957,2.806
					c4.089,3.139,1.691,9.678-3.456,9.385C1341.696,3129.848,1281.974,3124.561,1246.38,3108.169z"/>
			</g>
			
				<linearGradient id="SVGID_00000059302804687384757040000008627180890681716884_" gradientUnits="userSpaceOnUse" x1="436.4873" y1="2574.1421" x2="942.7211" y2="2366.7268">
				<stop  offset="0" style="stop-color:#FF928E"/>
				<stop  offset="1" style="stop-color:#FE7062"/>
			</linearGradient>
			<path style="fill:url(#SVGID_00000059302804687384757040000008627180890681716884_);" d="M893.576,2558.092
				c0,0,73.198-69.699,109.229-115.864c19.476-24.954,25.593-57.806,16.585-88.153c-16.45-55.421-45.684-112.822-48.35-121.756
				c-4.087-13.694-86.161-13.124-86.161-13.124s-187.261,85.262-224.96,282.372l71.265,22.186c0,0,42.169-70.746,83.834-115.725
				c0,0-72.096,95.241-74.635,134.231L893.576,2558.092z"/>
			
				<linearGradient id="SVGID_00000007390180092950227110000017616364915458036379_" gradientUnits="userSpaceOnUse" x1="-3285.937" y1="1300.233" x2="-3307.1973" y2="1163.8132" gradientTransform="matrix(-0.9645 -0.2641 -0.2641 0.9645 -1918.4934 166.8696)">
				<stop  offset="0" style="stop-color:#FEBBBA"/>
				<stop  offset="1" style="stop-color:#FF928E"/>
			</linearGradient>
			<path style="fill:url(#SVGID_00000007390180092950227110000017616364915458036379_);" d="M999.677,2182.312
				c-1.578,2.519-40.994,65.357-42.999,66.336c-2.006,0.979-46.344-8.634-63.062-28.321l54.892-63.491L999.677,2182.312z"/>
			
				<linearGradient id="SVGID_00000118371745875924503300000004137538226690793915_" gradientUnits="userSpaceOnUse" x1="-3351.4856" y1="1068.9658" x2="-3220.2078" y2="1236.9744" gradientTransform="matrix(-0.9645 -0.2641 -0.2641 0.9645 -1918.4934 166.8696)">
				<stop  offset="0" style="stop-color:#FEBBBA"/>
				<stop  offset="1" style="stop-color:#FF928E"/>
			</linearGradient>
			<path style="fill:url(#SVGID_00000118371745875924503300000004137538226690793915_);" d="M1005.126,2029.155
				c0,0,32.987,25.962,43.592,86.806c10.605,60.843-15.149,80.543-39.874,77.446c-24.725-3.097-60.16-13.358-88.259-58.479
				C892.486,2089.806,961.75,1997.21,1005.126,2029.155z"/>
			
				<linearGradient id="SVGID_00000016035262853762446300000006991490468869957532_" gradientUnits="userSpaceOnUse" x1="-2429.8823" y1="2545.9351" x2="-2030.5979" y2="2545.9351" gradientTransform="matrix(-1 0 0 1 -1636.0502 0)">
				<stop  offset="0" style="stop-color:#FEBBBA"/>
				<stop  offset="1" style="stop-color:#FF928E"/>
			</linearGradient>
			<path style="fill:url(#SVGID_00000016035262853762446300000006991490468869957532_);" d="M1042.697,2563.267l-53.779-51.836
				l-74.397,31.429c0,0-74.054,11.474-116.438,0c-42.384-11.473-42.384-11.473-42.384-11.473l-95.779-29.818l-15.042,42.513
				c-3.819,10.794,0.019,22.777,9.352,29.408c8.287,5.888,17.999,12.36,24.19,15.068c12.613,5.518,310.93-3.817,310.93-3.817
				L1042.697,2563.267z"/>
			<g>
				
					<linearGradient id="SVGID_00000175306264190187196230000006765678171144871303_" gradientUnits="userSpaceOnUse" x1="-2349.9988" y1="1402.7155" x2="-2546.8667" y2="1989.8041" gradientTransform="matrix(-0.9988 -0.0494 -0.0494 0.9988 -1594.5812 -55.0328)">
					<stop  offset="0" style="stop-color:#09005D"/>
					<stop  offset="1" style="stop-color:#1A0F91"/>
				</linearGradient>
				<path style="fill:url(#SVGID_00000175306264190187196230000006765678171144871303_);" d="M839.177,2587.705
					c0.238,0.012,0.477,0.019,0.717,0.016l311.967-0.34c7.712-0.006,13.957-6.265,13.949-13.977
					c-0.007-7.715-6.288-14.088-13.979-13.949l-311.967,0.341c-7.712,0.006-13.957,6.265-13.949,13.977
					C825.924,2581.244,831.799,2587.34,839.177,2587.705z"/>
				
					<linearGradient id="SVGID_00000110429147176002743780000014645632422440249002_" gradientUnits="userSpaceOnUse" x1="1703.1625" y1="3123.6484" x2="1123.1345" y2="2301.062">
					<stop  offset="0" style="stop-color:#09005D"/>
					<stop  offset="1" style="stop-color:#1A0F91"/>
				</linearGradient>
				<path style="fill:url(#SVGID_00000110429147176002743780000014645632422440249002_);" d="M1432.306,2304.458h-259.808
					c-19.166,0-36.611,11.061-44.786,28.396l-120.109,254.684h322.872c12.351,0,23.448-7.547,27.988-19.033l93.14-235.672
					C1456.983,2319.215,1446.948,2304.458,1432.306,2304.458z"/>
				
					<linearGradient id="SVGID_00000062184651046744187040000011986222750007163831_" gradientUnits="userSpaceOnUse" x1="1246.7581" y1="2441.3142" x2="1290.7467" y2="2441.3142">
					<stop  offset="0" style="stop-color:#4F52FF"/>
					<stop  offset="1" style="stop-color:#4042E2"/>
				</linearGradient>
				<path style="fill:url(#SVGID_00000062184651046744187040000011986222750007163831_);" d="M1249.269,2435.043
					c-5.63,17.491-1.471,34.479,9.29,37.943c10.76,3.463,24.048-7.909,29.678-25.4c5.63-17.492,1.471-34.48-9.29-37.943
					C1268.186,2406.179,1254.898,2417.551,1249.269,2435.043z"/>
			</g>
			<g>
				<g>
					<path style="fill:#7D97F4;" d="M1644.649,3202.327c1.506,0,3.036-0.308,4.509-0.955c5.796-2.551,8.473-9.426,5.98-15.356
						l-239.6-569.887c-2.492-5.927-9.208-8.666-15.01-6.118c-5.796,2.551-8.473,9.427-5.98,15.356l239.6,569.886
						C1636.007,3199.677,1640.221,3202.327,1644.649,3202.327z"/>
					<path style="fill:#7D97F4;" d="M1374.729,3202.327c4.427,0,8.641-2.648,10.5-7.073l239.6-569.886
						c2.494-5.93-0.184-12.805-5.98-15.356c-5.792-2.552-12.514,0.187-15.009,6.118l-239.6,569.887
						c-2.494,5.93,0.184,12.805,5.98,15.356C1371.691,3202.019,1373.223,3202.327,1374.729,3202.327z"/>
					<path style="fill:#7D97F4;" d="M701.132,3202.327c1.506,0,3.036-0.308,4.508-0.955c5.796-2.551,8.474-9.426,5.98-15.356
						l-239.6-569.887c-2.493-5.927-9.206-8.666-15.009-6.118c-5.796,2.551-8.473,9.427-5.98,15.356l239.6,569.886
						C692.49,3199.677,696.704,3202.327,701.132,3202.327z"/>
					<path style="fill:#7D97F4;" d="M431.213,3202.327c4.428,0,8.641-2.648,10.501-7.073l239.6-569.886
						c2.493-5.93-0.185-12.805-5.98-15.356c-5.792-2.552-12.514,0.187-15.01,6.118l-239.6,569.887
						c-2.493,5.93,0.185,12.805,5.98,15.356C428.175,3202.019,429.708,3202.327,431.213,3202.327z"/>
				</g>
				<path style="fill:#7D97F4;" d="M403.148,2599.101c-0.73-3.537,0.263-7.195,2.709-9.973c2.446-2.779,6.088-4.388,9.931-4.388
					h1301.825c5.054,0,9.76,2.414,12.483,6.405c2.723,3.991,3.088,9.008,0.969,13.309l-14.107,28.621
					c-3.231,6.555-10.23,10.751-17.932,10.751H424.721c-7.165,0-13.323-4.762-14.684-11.357L403.148,2599.101z"/>
			</g>
			<path style="fill:#FFFFFF;" d="M894.897,2048.778c30.205-15.192,51.828-65.662,36.508-92.126
				c-39.714-68.572-139.48,8.157-92.357,73.331c7.331,10.139,17.378,18.814,29.46,22.062
				C877.561,2054.478,886.556,2052.973,894.897,2048.778z"/>
			<path style="fill:#FFFFFF;" d="M1058.407,2059.186c0.012,11.197-11.989,18.308-21.852,13.006
				c-9.928-5.338-22.364-11.107-33.774-13.758c-77.058-17.905-60.908,39.738-63.077,47.659c-4.436,16.201-13.614-12.792-16.02-7.579
				c-5.234,11.34,9.458,53.828,9.458,53.828s-61.349-27.588-70.685-55.69c-9.337-28.102,10.827-80.073,26.312-96.462
				c14.723-15.582,65.283-30.68,87.185-24.791C997.139,1981.096,1058.338,1997.417,1058.407,2059.186z"/>
			
				<linearGradient id="SVGID_00000091693539372917016710000007569971935760941470_" gradientUnits="userSpaceOnUse" x1="-3319.7932" y1="1044.2042" x2="-3188.5164" y2="1212.2114" gradientTransform="matrix(-0.9645 -0.2641 -0.2641 0.9645 -1918.4934 166.8696)">
				<stop  offset="0" style="stop-color:#FEBBBA"/>
				<stop  offset="1" style="stop-color:#FF928E"/>
			</linearGradient>
			<path style="fill:url(#SVGID_00000091693539372917016710000007569971935760941470_);" d="M943.515,2119.714
				c0,0-3.107-44.516-26.517-33.536c-23.41,10.98,5.153,41.746,16.73,52.348L943.515,2119.714z"/>
		</g>
		<g>
			
				<linearGradient id="SVGID_00000069395445512363100170000006142206348137471873_" gradientUnits="userSpaceOnUse" x1="-6285.27" y1="2950.5117" x2="-6110.2212" y2="2950.5117" gradientTransform="matrix(-1 0 0 1 -3471.8828 0)">
				<stop  offset="0" style="stop-color:#4F52FF"/>
				<stop  offset="1" style="stop-color:#4042E2"/>
			</linearGradient>
			<path style="fill:url(#SVGID_00000069395445512363100170000006142206348137471873_);" d="M2643.281,2942.045
				c29.988,2.592,82.033,6.803,123.064,8.609c24.665,1.086,38.864-1.33,47.042-4.604c-0.014,0.922-0.04,1.793-0.076,2.602
				c-0.194,4.317-3.702,7.772-8.063,8.015c-77.529,4.327-139.188,1.498-161.139,0.162c-4.539-0.277-7.244-5.209-4.923-9.079
				C2640.347,2945.815,2641.754,2943.919,2643.281,2942.045z"/>
			
				<linearGradient id="SVGID_00000097481441511488233600000003935625579132024993_" gradientUnits="userSpaceOnUse" x1="-6285.2798" y1="2916.2043" x2="-6115.1641" y2="2916.2043" gradientTransform="matrix(-1 0 0 1 -3471.8828 0)">
				<stop  offset="0" style="stop-color:#09005D"/>
				<stop  offset="1" style="stop-color:#1A0F91"/>
			</linearGradient>
			<path style="fill:url(#SVGID_00000097481441511488233600000003935625579132024993_);" d="M2766.345,2950.654
				c-41.031-1.806-93.076-6.016-123.064-8.609c29.483-36.173,123.064-60.553,123.064-60.553h26.43
				c18.178,26.204,20.811,51.152,20.612,64.558C2805.209,2949.324,2791.01,2951.739,2766.345,2950.654z"/>
			
				<linearGradient id="SVGID_00000022536573063279095800000010041444742918371762_" gradientUnits="userSpaceOnUse" x1="-6269.1089" y1="2868.3066" x2="-6219.8013" y2="2868.3066" gradientTransform="matrix(-1 0 0 1 -3471.8828 0)">
				<stop  offset="0" style="stop-color:#FEBBBA"/>
				<stop  offset="1" style="stop-color:#FF928E"/>
			</linearGradient>
			<path style="fill:url(#SVGID_00000022536573063279095800000010041444742918371762_);" d="M2797.226,2838.343l-2.474,48.944
				c-0.268,5.3-4.235,9.754-9.543,10.513c-5.281,0.755-12.354,0.852-19.854-1.645c-4.614-1.536-8.04-5.424-8.891-10.166
				l-8.546-47.646H2797.226z"/>
			<g>
				
					<linearGradient id="SVGID_00000030476777455809169430000018115734761321165464_" gradientUnits="userSpaceOnUse" x1="-6597.709" y1="2993.9182" x2="-6530.6274" y2="2993.9182" gradientTransform="matrix(-1 0 0 1 -3471.8828 0)">
					<stop  offset="0" style="stop-color:#4F52FF"/>
					<stop  offset="1" style="stop-color:#4042E2"/>
				</linearGradient>
				<path style="fill:url(#SVGID_00000030476777455809169430000018115734761321165464_);" d="M3103.983,2998.506
					c13.005-2.344,18.889-11.075,21.356-20.409c0.017,0.084,0.033,0.168,0.049,0.251c1.913,9.846-2.522,20.051-11.389,24.904
					c-10.718,5.866-22.437,6.865-31.534,6.38c-9.761-0.52-18.72-5.74-23.645-14.094l-0.074-0.126
					C3068.542,3001.678,3082.295,3002.415,3103.983,2998.506z"/>
				
					<linearGradient id="SVGID_00000108292916157221951240000001611870115852150158_" gradientUnits="userSpaceOnUse" x1="-6597.2212" y1="2927.1641" x2="-6498.7588" y2="2927.1641" gradientTransform="matrix(-1 0 0 1 -3471.8828 0)">
					<stop  offset="0" style="stop-color:#09005D"/>
					<stop  offset="1" style="stop-color:#1A0F91"/>
				</linearGradient>
				<path style="fill:url(#SVGID_00000108292916157221951240000001611870115852150158_);" d="M3042.669,2853.424h21.796
					c33.201-0.877,54.049,89.625,60.874,124.673c-2.467,9.334-8.351,18.065-21.356,20.409c-21.688,3.909-35.44,3.172-45.238-3.094
					c-17.937-30.505-26.829-75.183-31.104-101.257C3022.779,2864.5,3042.669,2853.424,3042.669,2853.424z"/>
			</g>
			
				<linearGradient id="SVGID_00000005971668933016966330000006265614425616103044_" gradientUnits="userSpaceOnUse" x1="-6546.042" y1="2842.5945" x2="-6487.1138" y2="2842.5945" gradientTransform="matrix(-1 0 0 1 -3471.8828 0)">
				<stop  offset="0" style="stop-color:#FEBBBA"/>
				<stop  offset="1" style="stop-color:#FF928E"/>
			</linearGradient>
			<path style="fill:url(#SVGID_00000005971668933016966330000006265614425616103044_);" d="M3061.664,2807.994l12.103,48.139
				c1.484,5.902-1.341,12.008-6.798,14.807c-6.771,3.475-16.303,7.126-25.064,6.069c-4.12-0.497-7.543-3.399-8.904-7.279
				l-17.769-50.647L3061.664,2807.994z"/>
			
				<linearGradient id="SVGID_00000070815044761876994790000006343630272594412191_" gradientUnits="userSpaceOnUse" x1="2727.2471" y1="3171.3008" x2="2899.7109" y2="2249.6951">
				<stop  offset="0" style="stop-color:#4F52FF"/>
				<stop  offset="1" style="stop-color:#4042E2"/>
			</linearGradient>
			<path style="fill:url(#SVGID_00000070815044761876994790000006343630272594412191_);" d="M2635.898,2173.981
				c0,0,108.161,676.097,106.379,679.813c0,0,29.873,13.578,62.44,1.73c0,0-9.781-361.422-32.699-500
				c0,0,184.594,323.041,243.213,484.005c0,0,30.574-3.646,55.882-20.302c0,0-198.756-581.458-251.782-658.905L2635.898,2173.981z"
				/>
			
				<linearGradient id="SVGID_00000125574745589788663480000009243499369393093795_" gradientUnits="userSpaceOnUse" x1="3182.9336" y1="1632.6881" x2="2750.5269" y2="2286.5708">
				<stop  offset="0" style="stop-color:#09005D"/>
				<stop  offset="1" style="stop-color:#1A0F91"/>
			</linearGradient>
			<polygon style="fill:url(#SVGID_00000125574745589788663480000009243499369393093795_);" points="2764.65,2350.717 
				2725.051,2287.466 2696.822,2281.785 2698.239,2274.739 2729.501,2281.031 2770.742,2346.903 			"/>
			
				<linearGradient id="SVGID_00000147914422000827396230000006444996096930617992_" gradientUnits="userSpaceOnUse" x1="-5735.5181" y1="1601.3447" x2="-5968.9048" y2="1904.9741" gradientTransform="matrix(-1 0 0 1 -3471.8828 0)">
				<stop  offset="0" style="stop-color:#FEBBBA"/>
				<stop  offset="1" style="stop-color:#FF928E"/>
			</linearGradient>
			<path style="fill:url(#SVGID_00000147914422000827396230000006444996096930617992_);" d="M2139.554,1511.935
				c0,0,72.985,16.097,117.377,36.593c8.817,4.07,15.849,11.188,19.854,19.961c13.276,29.083,52.998,102.011,130.032,136.814
				c-11.094,14.724-28.956,45.352-36.738,96.831c-46.267-34.436-86.21-91.946-105.386-186.263c0,0-14.603,7.938-32.819-0.909
				c-9.624-4.674-20.737-11.304-29.079-16.518c-8.311-5.196-14.502-13.272-16.906-22.704c-3.175-12.455-1.305-23.408-1.305-35.157
				l-37.516-11.623C2147.067,1528.96,2135.79,1524.703,2139.554,1511.935z"/>
			
				<linearGradient id="SVGID_00000135688785965719944680000013199617522358648977_" gradientUnits="userSpaceOnUse" x1="3747.2891" y1="1588.6144" x2="2713.7307" y2="1912.0405">
				<stop  offset="0" style="stop-color:#FF928E"/>
				<stop  offset="1" style="stop-color:#FE7062"/>
			</linearGradient>
			<path style="fill:url(#SVGID_00000135688785965719944680000013199617522358648977_);" d="M2370.079,1802.134
				c7.781-51.479,25.644-82.107,36.738-96.831c47.855,21.621,110.104,28.533,189.372,1.065c7.307-2.532,14.929-4.015,22.657-4.468
				c42.199-2.474,181.257-6.989,296.324,31.027c24.217,8,43.831,25.903,53.939,49.1c31.126,71.432,81.521,234.108-58.378,316.236
				c-10.749-26.685-23.155-48.135-33.763-63.894c22.53-38.001,29.202-89.905-10.778-157.494
				c-29.152,78.717-42.828,193.575-45.686,244.405c-0.941,16.736,1.995,33.439,8.561,48.891l0.716,1.685
				c1.405,3.306-0.529,7.106-4.063,7.9c-78.758,17.691-160.672,12.885-185.145,10.863c-4.369-0.361-7.999-3.487-9.001-7.71
				c-38.297-161.371-38.385-271.448-29.009-341.033C2566.738,1849.885,2457.188,1866.968,2370.079,1802.134z"/>
			
				<linearGradient id="SVGID_00000178914769286470112500000013761683492406428073_" gradientUnits="userSpaceOnUse" x1="2472.0637" y1="2013.1149" x2="2675.6614" y2="1985.4658" gradientTransform="matrix(0.7685 0.1281 -0.1644 0.9864 1066.1263 -533.1195)">
				<stop  offset="0" style="stop-color:#FF928E"/>
				<stop  offset="1" style="stop-color:#FE7062"/>
			</linearGradient>
			<path style="fill:url(#SVGID_00000178914769286470112500000013761683492406428073_);" d="M2615.794,1824.929
				c-0.166-0.028-0.331-0.078-0.493-0.152c-1.99-0.915-2.8-5.09-1.811-9.327c16.085-68.86,30.217-97.476,30.811-98.661
				c1.736-3.463,4.269-4.149,5.655-1.536c1.387,2.606,1.111,7.513-0.615,10.972c-0.213,0.433-13.511,27.741-28.645,92.535
				C2619.786,1822.653,2617.675,1825.242,2615.794,1824.929z"/>
			
				<linearGradient id="SVGID_00000103232508422661320340000010931216566348075697_" gradientUnits="userSpaceOnUse" x1="-6255.7314" y1="1797.5851" x2="-6230.1987" y2="1663.5375" gradientTransform="matrix(-1 0 0 1 -3471.8828 0)">
				<stop  offset="0" style="stop-color:#FEBBBA"/>
				<stop  offset="1" style="stop-color:#FF928E"/>
			</linearGradient>
			<path style="fill:url(#SVGID_00000103232508422661320340000010931216566348075697_);" d="M2796.77,1607.895
				c0,0,7.968,84.242,14.983,109.16c1.064,3.781-0.578,7.767-4.013,9.729c-11.906,6.803-40.462,17.9-79.523-1.244
				c-6.328-3.101-10.133-9.697-9.837-16.678l3.442-81.405L2796.77,1607.895z"/>
			<g>
				
					<linearGradient id="SVGID_00000057142443247002011930000013997860824430280107_" gradientUnits="userSpaceOnUse" x1="-6186.6436" y1="1551.6505" x2="-6332.3237" y2="1663.1183" gradientTransform="matrix(-1 0 0 1 -3471.8828 0)">
					<stop  offset="0" style="stop-color:#FEBBBA"/>
					<stop  offset="1" style="stop-color:#FF928E"/>
				</linearGradient>
				<path style="fill:url(#SVGID_00000057142443247002011930000013997860824430280107_);" d="M2720.103,1500.123
					c0,0-25.484,58.54-27.195,89.265c-1.711,30.725-8.332,50.663,27.195,56.85c35.527,6.187,65.455-11.511,81.669-42.117
					c0,0,25.404-47.161,19.705-66.474C2815.778,1518.333,2720.103,1500.123,2720.103,1500.123z"/>
				
					<linearGradient id="SVGID_00000003063285360655902900000011437796477576231102_" gradientUnits="userSpaceOnUse" x1="-6289.1963" y1="1463.3921" x2="-6153.5176" y2="1638.078" gradientTransform="matrix(-1 0 0 1 -3471.8828 0)">
					<stop  offset="0" style="stop-color:#09005D"/>
					<stop  offset="1" style="stop-color:#1A0F91"/>
				</linearGradient>
				<path style="fill:url(#SVGID_00000003063285360655902900000011437796477576231102_);" d="M2789.631,1582.115l-2.022-0.891
					c-2.575-1.135-3.676-4.2-2.383-6.699c5.01-9.679,14.776-31.861,2.16-37.035c-16.26-6.669-80.667-19.803-94.563-42.656
					c-13.356-21.965-1.522-50.317,16.262-58.381c1.19-0.54,2.594-0.111,3.204,1.044l1.482,2.804c1.014,1.919,3.85,1.629,4.453-0.457
					v0c0.579-2.002,3.242-2.391,4.347-0.623c4.272,6.837,15.804,17.922,46.643,23.614c43.829,8.089,72.806,25.825,73.527,56.111
					c0.046,1.924,2.093,2.994,3.736,1.992c3.236-1.972,8.415-2.897,15.335,2.922c12.037,10.121,7.111,36.375-19.276,57.972
					c-1.253,1.026-1.243,2.983,0.114,3.867c4.784,3.114,11.915,10.524-6.563,20.401c-19.112,10.216-33.384,9.378-38.879,8.471
					c-1.367-0.226-2.248-1.55-1.95-2.903l5.865-26.619c0.332-1.506-0.815-2.933-2.357-2.933H2789.631z"/>
				
					<linearGradient id="SVGID_00000094582850153509704400000010365897436665136571_" gradientUnits="userSpaceOnUse" x1="-6204.7129" y1="1528.0339" x2="-6350.394" y2="1639.5022" gradientTransform="matrix(-1 0 0 1 -3471.8828 0)">
					<stop  offset="0" style="stop-color:#FEBBBA"/>
					<stop  offset="1" style="stop-color:#FF928E"/>
				</linearGradient>
				<path style="fill:url(#SVGID_00000094582850153509704400000010365897436665136571_);" d="M2788.528,1587.732
					c0,0,9.722-37.394,26.487-26.909c16.766,10.484-8.7,41.899-22.178,43.298L2788.528,1587.732z"/>
			</g>
			
				<linearGradient id="SVGID_00000002380304027018109460000007245187003995151796_" gradientUnits="userSpaceOnUse" x1="2200.0476" y1="1577.021" x2="2253.8335" y2="1577.021">
				<stop  offset="0" style="stop-color:#FF928E"/>
				<stop  offset="1" style="stop-color:#FE7062"/>
			</linearGradient>
			<path style="fill:url(#SVGID_00000002380304027018109460000007245187003995151796_);" d="M2243.86,1605.088
				c-0.264-0.325-26.493-32.52-35.282-37.484c-4.799-2.714-7.515-5.646-8.298-8.964c-0.649-2.746,0.055-5.596,2.153-8.713
				l0.656-0.972l33.459,6.707l17.286,14.834l-2.286,2.667l-16.592-14.237l-30.215-6.056c-1.051,1.849-1.39,3.479-1.04,4.961
				c0.539,2.28,2.764,4.539,6.609,6.71c9.362,5.291,35.182,36.983,36.278,38.329L2243.86,1605.088z"/>
			
				<linearGradient id="SVGID_00000052070593085559364230000006472464494076518277_" gradientUnits="userSpaceOnUse" x1="-5190.4287" y1="8509.7891" x2="-5127.1499" y2="8885.9482" gradientTransform="matrix(-1 0 0 1 -3471.8828 0)">
				<stop  offset="0" style="stop-color:#FEBBBA"/>
				<stop  offset="1" style="stop-color:#FF928E"/>
			</linearGradient>
			<path style="fill:url(#SVGID_00000052070593085559364230000006472464494076518277_);" d="M2789.245,2155.795l-115-2.503
				c0,0,100.282-28.347,106.505-20.626c0,0,62.155-40.844,96.217-98.297c10.608,15.759,23.014,37.209,33.763,63.894
				C2880.195,2116.189,2840.092,2147.33,2789.245,2155.795z"/>
			
				<linearGradient id="SVGID_00000081632724625855809570000007539780313417520318_" gradientUnits="userSpaceOnUse" x1="2740.3188" y1="2110.8877" x2="2836.4089" y2="1946.8313">
				<stop  offset="0" style="stop-color:#FEBBBA"/>
				<stop  offset="1" style="stop-color:#FF928E"/>
			</linearGradient>
			<path style="fill:url(#SVGID_00000081632724625855809570000007539780313417520318_);" d="M2792.488,2135.881
				c0,0,2.372,45.82-57.774,39.166c-32.688-3.616-85.46-34.094-85.46-34.094S2786.802,2140.589,2792.488,2135.881z"/>
			<g>
				
					<linearGradient id="SVGID_00000152259077489000977710000012244641728156706178_" gradientUnits="userSpaceOnUse" x1="3798.1052" y1="2317.7852" x2="3567.7507" y2="2380.9192" gradientTransform="matrix(0.9988 -0.0494 0.0494 0.9988 -1090.6158 -55.0328)">
					<stop  offset="0" style="stop-color:#09005D"/>
					<stop  offset="1" style="stop-color:#1A0F91"/>
				</linearGradient>
				<path style="fill:url(#SVGID_00000152259077489000977710000012244641728156706178_);" d="M2768.936,2148.173
					c-0.219,0.011-0.437,0.017-0.658,0.015l-285.928-0.309c-7.068-0.006-12.792-5.681-12.785-12.675
					c0.007-6.996,5.764-12.776,12.813-12.65l285.929,0.309c7.068,0.006,12.792,5.681,12.785,12.675
					C2781.083,2142.314,2775.698,2147.842,2768.936,2148.173z"/>
				
					<linearGradient id="SVGID_00000152980612887225262230000003392264456341684120_" gradientUnits="userSpaceOnUse" x1="3554.1951" y1="1925.3519" x2="3391.7092" y2="2097.0894" gradientTransform="matrix(1 0 0 1 -1049.1469 0)">
					<stop  offset="0" style="stop-color:#09005D"/>
					<stop  offset="1" style="stop-color:#1A0F91"/>
				</linearGradient>
				<path style="fill:url(#SVGID_00000152980612887225262230000003392264456341684120_);" d="M2225.313,1891.31h238.124
					c17.566,0,33.555,10.03,41.048,25.75l110.084,230.962h-295.923c-11.32,0-21.491-6.844-25.652-17.261l-85.366-213.72
					C2202.695,1904.692,2211.893,1891.31,2225.313,1891.31z"/>
				
					<linearGradient id="SVGID_00000108287847549926011950000003703231494608359841_" gradientUnits="userSpaceOnUse" x1="3455.6672" y1="1968.276" x2="3382.2185" y2="2078.8811" gradientTransform="matrix(1 0 0 1 -1049.1469 0)">
					<stop  offset="0" style="stop-color:#53D8FF"/>
					<stop  offset="1" style="stop-color:#3840F7"/>
				</linearGradient>
				<path style="fill:url(#SVGID_00000108287847549926011950000003703231494608359841_);" d="M2393.073,2009.731
					c5.16,15.862,1.348,31.268-8.514,34.409c-9.863,3.141-22.042-7.172-27.201-23.035c-5.16-15.862-1.348-31.268,8.515-34.409
					C2375.734,1983.556,2387.913,1993.868,2393.073,2009.731z"/>
			</g>
		</g>
	</g>
</g>
</svg>
