<svg xmlns="http://www.w3.org/2000/svg" xml:space="preserve" style="enable-background:new 0 0 500 500" viewBox="0 0 500 500"><path d="M48.177 59.827h80.867v117.214H48.177z" style="fill:#e0e0e0"/><path d="M44.126 59.827h80.867v117.214H44.126z" style="fill:#f5f5f5"/><path d="M54.173 72.522h60.773v91.824H54.173z" style="fill:#fff"/><path d="M114.946 164.346s-.008-.155-.012-.449a1302.4 1302.4 0 0 1-.012-1.302l-.024-5.036-.054-18.915-.099-66.121.202.202-60.765.018h-.007l.22-.22-.045 91.823-.175-.175 44.235.092 12.221.045 3.208.02c.725.005 1.107.018 1.107.018s-.358.013-1.072.019l-3.175.02-12.182.044-44.344.092-.175.001v-.176l-.045-91.823v-.22h.227l60.765.018h.202v.202l-.099 66.253-.054 18.869a7790.03 7790.03 0 0 0-.024 4.996l-.012 1.279a11.15 11.15 0 0 1-.012.426z" style="fill:#e0e0e0"/><path d="M125.221 59.827c.047.037-.502.838-1.441 2.094a136.828 136.828 0 0 1-3.794 4.813 136.06 136.06 0 0 1-3.997 4.647c-1.053 1.163-1.734 1.855-1.779 1.816-.046-.041.552-.805 1.543-2.019l3.893-4.724 3.89-4.726c1-1.205 1.636-1.939 1.685-1.901z" style="fill:#e0e0e0"/><path d="M115.256 164.05a75.225 75.225 0 0 0 10.6 13.256" style="fill:#fff"/><path d="M125.856 177.306c-.04.04-.761-.586-1.848-1.681a58.165 58.165 0 0 1-3.998-4.51 58.446 58.446 0 0 1-3.52-4.893c-.83-1.301-1.282-2.142-1.233-2.172.055-.034.599.747 1.491 1.998a109.736 109.736 0 0 0 3.606 4.793 109.622 109.622 0 0 0 3.882 4.571c1.022 1.145 1.665 1.848 1.62 1.894z" style="fill:#e0e0e0"/><path d="m44.115 176.948 10.592-13.069" style="fill:#fff"/><path d="M54.707 163.879c.094.077-2.201 3.064-5.125 6.673-2.925 3.61-5.373 6.473-5.467 6.396-.094-.076 2.2-3.064 5.126-6.673 2.924-3.609 5.372-6.472 5.466-6.396zM44.126 59.827c.095-.075 2.397 2.677 5.141 6.146 2.745 3.47 4.892 6.344 4.797 6.42-.095.075-2.397-2.676-5.142-6.147-2.743-3.469-4.891-6.344-4.796-6.419zM75.663 91.166h20.349v57.777H75.663zM289.979 55.903h80.867v117.214h-80.867z" style="fill:#e0e0e0"/><path d="M285.928 55.903h80.867v117.214h-80.867z" style="fill:#f5f5f5"/><path d="M295.975 68.598h60.773v91.824h-60.773z" style="fill:#fff"/><path d="M356.748 160.421s-.008-.155-.012-.449a1302.4 1302.4 0 0 1-.012-1.302l-.024-5.036-.054-18.915-.099-66.121.202.202-60.766.018h-.007l.22-.22-.045 91.823-.175-.175 44.235.092 12.221.045 3.208.02c.725.006 1.108.018 1.108.018s-.358.013-1.072.019l-3.175.02-12.182.044-44.344.092-.175.001v-.176l-.045-91.823v-.22h.227l60.766.018h.202v.202l-.099 66.253-.054 18.87-.024 4.996-.012 1.279c-.005.286-.013.425-.013.425z" style="fill:#e0e0e0"/><path d="M367.022 55.903c.047.037-.502.838-1.441 2.094a136.828 136.828 0 0 1-3.794 4.813 136.06 136.06 0 0 1-3.997 4.647c-1.053 1.163-1.734 1.855-1.779 1.816-.046-.041.552-.805 1.543-2.019l3.893-4.724 3.89-4.726c1-1.205 1.636-1.939 1.685-1.901z" style="fill:#e0e0e0"/><path d="M357.057 160.126a75.225 75.225 0 0 0 10.6 13.256" style="fill:#fff"/><path d="M367.657 173.382c-.04.04-.761-.586-1.848-1.681a58.51 58.51 0 0 1-3.999-4.509 58.446 58.446 0 0 1-3.52-4.893c-.83-1.301-1.281-2.142-1.233-2.172.055-.034.599.747 1.491 1.998a109.736 109.736 0 0 0 3.606 4.793 110.478 110.478 0 0 0 3.881 4.571c1.025 1.144 1.668 1.847 1.622 1.893z" style="fill:#e0e0e0"/><path d="m285.916 173.024 10.592-13.069" style="fill:#fff"/><path d="M296.508 159.955c.094.077-2.201 3.064-5.125 6.673-2.926 3.61-5.373 6.473-5.467 6.396-.094-.076 2.2-3.063 5.126-6.673 2.924-3.609 5.372-6.473 5.466-6.396zM285.928 55.903c.095-.075 2.397 2.677 5.141 6.146 2.745 3.471 4.892 6.344 4.797 6.419-.095.075-2.397-2.676-5.142-6.146-2.744-3.47-4.892-6.344-4.796-6.419zM317.464 87.242h20.349v57.777h-20.349zM58.761 215.346c0-.144.56-.26 1.25-.26.691 0 1.25.117 1.25.26s-.56.26-1.25.26c-.691 0-1.25-.117-1.25-.26zM49.009 215.346c0-.144 1.092-.26 2.438-.26 1.347 0 2.438.117 2.438.26s-1.091.26-2.438.26c-1.347 0-2.438-.117-2.438-.26zM39.257 215.346c0-.144 1.092-.26 2.438-.26 1.347 0 2.438.117 2.438.26s-1.091.26-2.438.26c-1.347 0-2.438-.117-2.438-.26zM31.881 217.846c-.144 0-.26-1.119-.26-2.5.521-.521.145-.144.261-.26h.127l.127.001.248.004.469.015c.299.013.568.032.795.056.452.047.732.112.732.184s-.28.137-.732.184c-.226.024-.496.043-.795.056l-.469.015-.248.004-.127.001h-.127l.26-.26c-.001 1.38-.117 2.5-.261 2.5zM31.881 227.826c-.144 0-.26-1.117-.26-2.495 0-1.378.117-2.495.26-2.495.144 0 .26 1.117.26 2.495 0 1.378-.116 2.495-.26 2.495zM31.881 237.807c-.144 0-.26-1.117-.26-2.495 0-1.378.117-2.495.26-2.495.144 0 .26 1.117.26 2.495 0 1.378-.116 2.495-.26 2.495zM31.881 247.788c-.144 0-.26-1.117-.26-2.495 0-1.378.117-2.495.26-2.495.144 0 .26 1.117.26 2.495 0 1.378-.116 2.495-.26 2.495zM31.881 257.769c-.144 0-.26-1.117-.26-2.495 0-1.378.117-2.495.26-2.495.144 0 .26 1.117.26 2.495 0 1.377-.116 2.495-.26 2.495zM31.881 267.749c-.144 0-.26-1.117-.26-2.495 0-1.378.117-2.495.26-2.495.144 0 .26 1.117.26 2.495 0 1.378-.116 2.495-.26 2.495zM31.881 277.73c-.144 0-.26-1.117-.26-2.495 0-1.378.117-2.495.26-2.495.144 0 .26 1.117.26 2.495 0 1.378-.116 2.495-.26 2.495zM31.881 287.711c-.144 0-.26-1.117-.26-2.495 0-1.378.117-2.495.26-2.495.144 0 .26 1.117.26 2.495 0 1.378-.116 2.495-.26 2.495zM31.881 297.692c-.144 0-.26-1.117-.26-2.495 0-1.378.117-2.495.26-2.495.144 0 .26 1.117.26 2.495 0 1.378-.116 2.495-.26 2.495zM31.881 307.673c-.144 0-.26-1.117-.26-2.495 0-1.378.117-2.495.26-2.495.144 0 .26 1.117.26 2.495 0 1.377-.116 2.495-.26 2.495zM31.881 317.653c-.144 0-.26-1.117-.26-2.495 0-1.378.117-2.495.26-2.495.144 0 .26 1.117.26 2.495 0 1.378-.116 2.495-.26 2.495zM31.881 327.634c-.144 0-.26-1.117-.26-2.495 0-1.378.117-2.495.26-2.495.144 0 .26 1.117.26 2.495 0 1.378-.116 2.495-.26 2.495zM31.881 337.615c-.144 0-.26-1.117-.26-2.495 0-1.378.117-2.495.26-2.495.144 0 .26 1.117.26 2.495 0 1.378-.116 2.495-.26 2.495zM31.881 347.596c-.144 0-.26-1.117-.26-2.495 0-1.378.117-2.495.26-2.495.144 0 .26 1.117.26 2.495 0 1.377-.116 2.495-.26 2.495zM31.881 357.577c-.144 0-.26-1.117-.26-2.495 0-1.378.117-2.495.26-2.495.144 0 .26 1.117.26 2.495 0 1.377-.116 2.495-.26 2.495zM31.881 367.557c-.144 0-.26-1.117-.26-2.495 0-1.378.117-2.495.26-2.495.144 0 .26 1.117.26 2.495 0 1.378-.116 2.495-.26 2.495zM31.881 377.538c-.144 0-.26-1.117-.26-2.495 0-1.378.117-2.495.26-2.495.144 0 .26 1.117.26 2.495 0 1.378-.116 2.495-.26 2.495zM34.381 385.028c0 .144-1.119.26-2.5.26-.521-.521-.144-.145-.26-.261v-.127l.001-.127.004-.248.015-.469c.013-.299.032-.568.056-.795.047-.452.112-.732.184-.732s.137.28.184.732c.024.226.043.496.056.795l.015.469.004.248.001.127v.127c-.116-.116.26.261-.26-.259 1.38 0 2.5.117 2.5.26zM44.876 385.028c0 .144-1.175.26-2.624.26s-2.624-.117-2.624-.26c0-.144 1.175-.26 2.624-.26s2.624.117 2.624.26zM55.372 385.028c0 .144-1.175.26-2.624.26s-2.624-.117-2.624-.26c0-.144 1.175-.26 2.624-.26s2.624.117 2.624.26zM65.868 385.028c0 .144-1.175.26-2.624.26s-2.624-.117-2.624-.26c0-.144 1.175-.26 2.624-.26s2.624.117 2.624.26zM73.616 385.028c0 .144-.56.26-1.25.26-.691 0-1.25-.117-1.25-.26 0-.144.56-.26 1.25-.26s1.25.117 1.25.26zM255.918 58.609v64.809h-93.083l-3.354-64.356z" style="fill:#e0e0e0"/><path d="M173.913 44.631h64.219v93.083h-64.219z" style="fill:#fff" transform="rotate(-90 206.023 91.172)"/><path d="M253.006 123.723H159.04V58.621h93.966v65.102zm-93.083-.883h92.2V59.504h-92.2v63.336z" style="fill:#e0e0e0"/><path d="M169.563 67.041h72.92v48.262h-72.92z" style="fill:#fff"/><path d="M242.483 67.041s-.126.008-.36.012l-1.037.012-4.005.025-15.027.057-52.492.104.211-.211.019 48.256v.006l-.23-.23 72.92.047-.183.183.096-35.114a73252 73252 0 0 1 .047-9.71l.021-2.551c.007-.579.02-.886.02-.886s.013.281.02.847l.021 2.517.047 9.669.096 35.228.001.183h-.184l-72.92.047h-.23V115.296l.019-48.256v-.212h.211l52.63.104 14.979.057 3.962.026 1.013.012c.226.006.335.014.335.014z" style="fill:#e0e0e0"/><path d="M159.481 58.882c.039-.05.648.349 1.6 1.036a96.764 96.764 0 0 1 3.649 2.783 72.417 72.417 0 0 1 3.499 2.975c.867.794 1.374 1.317 1.333 1.364-.087.098-2.325-1.748-5.12-3.98-2.796-2.229-5.043-4.073-4.961-4.178zM252.564 59.062c.079.1-2.114 1.967-4.898 4.169-2.785 2.204-5.105 3.909-5.184 3.809s2.114-1.966 4.898-4.17c2.784-2.202 5.105-3.907 5.184-3.808z" style="fill:#e0e0e0"/><path d="m252.49 123.291-10.378-8.412" style="fill:#fff"/><path d="M242.112 114.879c.08-.099 2.468 1.704 5.334 4.027 2.866 2.323 5.124 4.286 5.044 4.385-.08.099-2.468-1.704-5.334-4.027-2.865-2.323-5.124-4.286-5.044-4.385zM159.481 123.281c-.079-.1 2.091-1.947 4.846-4.126 2.756-2.18 5.053-3.865 5.132-3.766.079.099-2.091 1.947-4.847 4.126-2.754 2.18-5.052 3.866-5.131 3.766z" style="fill:#e0e0e0"/><path d="M199.23 67.216h16.16v45.883h-16.16z" style="fill:#e0e0e0" transform="rotate(-90 207.31 90.157)"/><path d="M350.528 195.712H153.539a3.511 3.511 0 0 0-3.511 3.511v78.952h204.011v-78.952a3.511 3.511 0 0 0-3.511-3.511z" style="fill:#e8505b"/><path d="M350.528 195.712H153.539a3.511 3.511 0 0 0-3.511 3.511v78.952h204.011v-78.952a3.511 3.511 0 0 0-3.511-3.511z" style="opacity:.3"/><path d="M165.445 139.06h174.041v222.166H165.445z" style="fill:#fff"/><path d="M165.371 138.268h174.041v42.605H165.371z" style="fill:#f5f5f5"/><path d="M174.067 174.431h66.324v10.732h-66.324z" style="fill:#e8505b"/><path d="M174.067 227.883h155.489v15.414H174.067z" style="fill:#fafafa"/><path d="M174.067 243.277h155.489v15.414H174.067z" style="fill:#e0e0e0"/><path d="M181.163 178.052h.298v2.82h-.298v-2.82zM184.269 179.643v1.229h-.286v-1.2c0-.447-.233-.677-.637-.677-.455 0-.741.282-.741.765v1.112h-.286v-2.119h.274v.391c.153-.258.439-.407.806-.407.516 0 .87.298.87.906zM186.788 178.752l-.942 2.119h-.294l-.939-2.119h.298l.793 1.805.802-1.805h.282zM186.918 179.812c0-.628.46-1.075 1.08-1.075.62 0 1.075.447 1.075 1.075 0 .629-.455 1.08-1.075 1.08-.621-.001-1.08-.452-1.08-1.08zm1.865 0c0-.495-.334-.826-.785-.826s-.79.33-.79.826c0 .496.339.826.79.826s.785-.331.785-.826zM189.594 178.084c0-.109.093-.202.209-.202s.21.089.21.198c0 .117-.089.21-.21.21a.208.208 0 0 1-.209-.206zm.065.668h.286v2.119h-.286v-2.119zM190.529 179.812c0-.632.459-1.075 1.092-1.075.358 0 .661.141.83.419l-.214.145a.72.72 0 0 0-.616-.314c-.463 0-.802.33-.802.826 0 .499.339.826.802.826a.714.714 0 0 0 .616-.311l.214.145c-.169.274-.472.419-.83.419-.633-.001-1.092-.447-1.092-1.08zM194.82 179.901h-1.772c.032.443.371.737.834.737a.835.835 0 0 0 .648-.278l.161.186c-.189.226-.483.346-.818.346-.66 0-1.111-.451-1.111-1.08 0-.628.439-1.075 1.035-1.075.596 0 1.027.439 1.027 1.075.001.024-.004.056-.004.089zm-1.772-.214h1.502c-.036-.415-.338-.705-.753-.705-.411 0-.712.29-.749.705zM199.21 179.038l-.105.846h.572v.221h-.6l-.092.766h-.218l.093-.766h-.826l-.097.766h-.217l.093-.766h-.572v-.221h.6l.105-.846h-.576v-.222h.604l.092-.765h.222l-.097.765h.83l.093-.765h.217l-.093.765h.568v.222h-.596zm-.218 0h-.826l-.109.846h.83l.105-.846zM202.003 180.062c0 .471-.343.834-1.023.834-.407 0-.797-.141-1.015-.363l.141-.23c.181.189.508.326.874.326.467 0 .725-.217.725-.568 0-.338-.238-.56-.761-.56h-.201v-.213l.781-.979h-1.442v-.258h1.813v.205l-.797 1.003c.602.033.905.352.905.803zM204.808 180.13h-.564v.741h-.29v-.741h-1.591v-.21l1.495-1.869h.322l-1.442 1.821h1.225v-.652h.282v.652h.564v.258zM206.972 180.041c0 .479-.335.854-1.023.854-.407 0-.794-.141-1.011-.363l.141-.23c.182.189.504.326.866.326.479 0 .733-.234.733-.576 0-.362-.226-.588-.943-.588h-.6l.145-1.414h1.542v.258h-1.289l-.097.898h.363c.851.002 1.173.336 1.173.835zM209.459 180.03c0 .527-.414.866-.962.866-.75 0-1.156-.52-1.156-1.41 0-.959.524-1.458 1.289-1.458.254 0 .492.044.669.153l-.117.234c-.145-.097-.338-.133-.548-.133-.608 0-.999.391-.999 1.156 0 .064.004.145.012.229.141-.31.471-.483.862-.483.559-.001.95.33.95.846zm-.286.007c0-.371-.274-.608-.709-.608-.431 0-.725.266-.725.617 0 .31.258.604.745.604.407 0 .689-.238.689-.613zM211.72 180.614v.258h-1.978v-.206l1.172-1.148c.318-.314.378-.503.378-.697 0-.327-.229-.528-.661-.528-.33 0-.584.101-.77.314l-.205-.178c.217-.258.568-.402.999-.402.572 0 .935.29.935.761 0 .27-.085.511-.463.882l-.959.942h1.552z" style="fill:#fff"/><path d="M271.231 155.549h1.683v9.058h-1.683v-9.058zM283.41 155.549v9.058h-1.385l-4.994-6.133v6.133h-1.669v-9.058h1.384l4.995 6.133v-6.133h1.669zM294.065 155.549l-3.947 9.058h-1.656l-3.959-9.058h1.824l3.015 6.987 3.041-6.987h1.682zM294.29 160.078c0-2.678 2.07-4.658 4.878-4.658 2.808 0 4.878 1.967 4.878 4.658 0 2.691-2.07 4.658-4.878 4.658-2.808 0-4.878-1.98-4.878-4.658zm8.061 0c0-1.85-1.358-3.183-3.184-3.183-1.824 0-3.183 1.333-3.183 3.183 0 1.85 1.358 3.183 3.183 3.183 1.826 0 3.184-1.333 3.184-3.183zM305.837 155.549h1.683v9.058h-1.683v-9.058zM309.32 160.078c0-2.704 2.07-4.658 4.852-4.658 1.475 0 2.743.531 3.584 1.514l-1.087 1.022c-.66-.711-1.476-1.061-2.42-1.061-1.876 0-3.234 1.32-3.234 3.183 0 1.863 1.358 3.183 3.234 3.183.944 0 1.76-.35 2.42-1.074l1.087 1.035c-.841.983-2.109 1.514-3.598 1.514-2.768 0-4.838-1.953-4.838-4.658zM326.171 163.197v1.41h-6.794v-9.058h6.612v1.41h-4.93v2.355h4.374v1.384h-4.374v2.498h5.112zM303.67 193.558c0 .144-1.219.26-2.723.26-1.504 0-2.723-.116-2.723-.26 0-.144 1.219-.26 2.723-.26 1.504-.001 2.723.116 2.723.26zM304.626 195.83c-.134-.051.164-1.156.667-2.466.503-1.311 1.019-2.331 1.153-2.28.134.051-.164 1.155-.667 2.466-.503 1.311-1.019 2.331-1.153 2.28zM311.629 193.558c0 .144-.906.26-2.025.26-1.118 0-2.025-.116-2.025-.26 0-.144.906-.26 2.025-.26 1.119-.001 2.025.116 2.025.26zM313.294 195.276c-.135-.05.09-1 .502-2.122.413-1.123.856-1.992.991-1.943.135.049-.09 1-.502 2.122-.413 1.123-.856 1.992-.991 1.943zM323.498 193.558c0 .144-1.813.26-4.049.26-2.237 0-4.049-.116-4.049-.26 0-.144 1.813-.26 4.049-.26 2.236-.001 4.049.116 4.049.26z" style="fill:#263238"/><path d="M174.067 217.15h155.489v10.732H174.067z" style="fill:#e8505b"/><path d="M220.861 236.401c0 .144-7.473.26-16.69.26-9.22 0-16.692-.117-16.692-.26 0-.144 7.472-.26 16.692-.26 9.217-.001 16.69.116 16.69.26zM275.462 236.756c0 .144-3.26.26-7.28.26-4.022 0-7.28-.117-7.28-.26 0-.144 3.259-.26 7.28-.26 4.02-.001 7.28.116 7.28.26zM295.946 235.868c0 .144-.716.26-1.598.26-.883 0-1.598-.117-1.598-.26 0-.144.715-.26 1.598-.26.882 0 1.598.116 1.598.26zM323.823 236.223c0 .144-2.902.26-6.481.26-3.58 0-6.481-.117-6.481-.26s2.901-.26 6.481-.26c3.579 0 6.481.116 6.481.26zM238.084 251.316c0 .144-11.329.26-25.301.26-13.977 0-25.304-.117-25.304-.26 0-.144 11.327-.26 25.304-.26 13.972-.001 25.301.116 25.301.26zM272.799 251.493c0 .144-2.663.26-5.948.26-3.286 0-5.949-.116-5.949-.26 0-.144 2.663-.26 5.949-.26 3.284 0 5.948.117 5.948.26zM296.656 251.316c0 .144-1.033.26-2.308.26s-2.308-.117-2.308-.26c0-.144 1.033-.26 2.308-.26 1.275-.001 2.308.116 2.308.26zM322.047 250.961c0 .144-2.783.26-6.214.26-3.433 0-6.215-.116-6.215-.26 0-.144 2.782-.26 6.215-.26 3.432-.001 6.214.116 6.214.26z"/><path d="M255.858 281.595h73.262v9.551h-73.262z" style="fill:#e8505b"/><path d="M313.052 268.111c0 .144-3.899.26-8.708.26-4.81 0-8.709-.117-8.709-.26s3.898-.26 8.709-.26c4.809 0 8.708.116 8.708.26zM313.052 274.516c0 .144-3.899.26-8.708.26-4.81 0-8.709-.117-8.709-.26s3.898-.26 8.709-.26c4.809 0 8.708.116 8.708.26zM280.697 274.516c0 .144-3.899.26-8.708.26-4.81 0-8.709-.117-8.709-.26s3.898-.26 8.709-.26c4.809 0 8.708.116 8.708.26zM280.697 267.789c0 .144-5.816.26-12.989.26-7.175 0-12.99-.117-12.99-.26s5.815-.26 12.99-.26c7.173 0 12.989.116 12.989.26z" style="fill:#263238"/><path d="M313.052 286.854c0 .144-3.899.26-8.708.26-4.81 0-8.709-.117-8.709-.26 0-.144 3.898-.26 8.709-.26 4.809 0 8.708.116 8.708.26zM281.658 286.854c0 .144-3.899.26-8.708.26-4.81 0-8.709-.117-8.709-.26 0-.144 3.898-.26 8.709-.26 4.809 0 8.708.116 8.708.26z" style="fill:#fff"/><path d="M182.583 158.901h-1.825a1.597 1.597 0 0 1-1.597-1.598v-1.824c0-.882.715-1.598 1.597-1.598h1.825c.882 0 1.597.715 1.597 1.598v1.824c0 .883-.715 1.598-1.597 1.598z" style="fill:#e8505b"/><path d="M180.288 159.953v.064c0 .161.131.292.292.292h4.819v-4.995a.292.292 0 0 0-.584 0v4.312l-4.238.036a.29.29 0 0 0-.289.291zM216.564 155.617c0 .144-6.449.26-14.403.26-7.957 0-14.405-.117-14.405-.26 0-.144 6.448-.26 14.405-.26 7.954 0 14.403.116 14.403.26zM203.207 158.382c0 .144-3.374.26-7.536.26-4.163 0-7.537-.117-7.537-.26s3.374-.26 7.537-.26c4.162 0 7.536.116 7.536.26z" style="fill:#e8505b"/><path d="m339.412 360.434-.234-222.166.234.234-174.022.027h-.019l.26-.26-.045 222.166-.215-.215 174.041.214-174.041.216h-.216v-.216l-.045-222.166v-.26h.28l174.022.027h.234v.234l-.234 222.165z" style="fill:#263238"/><path d="M251.82 199.286c0 .144-9.311.26-20.795.26-11.487 0-20.797-.117-20.797-.26 0-.144 9.309-.26 20.797-.26 11.484 0 20.795.117 20.795.26zM251.82 203.268c0 .144-9.311.26-20.795.26-11.487 0-20.797-.117-20.797-.26 0-.144 9.309-.26 20.797-.26 11.484 0 20.795.117 20.795.26zM225.778 207.251c0 .144-3.481.26-7.774.26-4.295 0-7.775-.117-7.775-.26 0-.144 3.48-.26 7.775-.26 4.293-.001 7.774.116 7.774.26zM252.465 195.01c0 .144-17.506.26-39.096.26-21.597 0-39.099-.117-39.099-.26 0-.144 17.502-.26 39.099-.26 21.59-.001 39.096.116 39.096.26z" style="fill:#263238"/><path d="M221.824 222.517c0 .144-7.808.26-17.438.26-9.633 0-17.439-.117-17.439-.26 0-.144 7.807-.26 17.439-.26 9.63-.001 17.438.116 17.438.26zM276.077 222.517c0 .144-4.131.26-9.226.26-5.097 0-9.227-.117-9.227-.26 0-.144 4.13-.26 9.227-.26 5.095-.001 9.226.116 9.226.26zM302.479 222.517c0 .144-3.064.26-6.843.26-3.78 0-6.844-.117-6.844-.26 0-.144 3.064-.26 6.844-.26 3.779-.001 6.843.116 6.843.26zM325.305 222.517c0 .144-3.064.26-6.843.26-3.78 0-6.844-.117-6.844-.26 0-.144 3.064-.26 6.844-.26 3.779-.001 6.843.116 6.843.26z" style="fill:#fff"/><path d="M62.51 460.099V287.986c0-5.837 4.732-10.57 10.57-10.57h353.84c5.837 0 10.57 4.732 10.57 10.57v172.113H62.51z" style="fill:#e8505b"/><circle cx="313.065" cy="317.936" r="16.571" style="fill:#263238"/><path d="M333.313 317.936c-.104.01.035-1.807-.744-4.918-.365-1.557-1.103-3.396-2.26-5.342a20.107 20.107 0 0 0-5.122-5.677c-2.272-1.699-5.135-3.142-8.437-3.722-3.28-.559-6.98-.454-10.502.888-1.773.617-3.483 1.548-5.053 2.724-.812.558-1.521 1.256-2.265 1.927-.671.744-1.377 1.472-1.956 2.316-2.457 3.269-3.842 7.471-3.882 11.801.039 4.332 1.423 8.535 3.881 11.805.579.844 1.285 1.573 1.956 2.317.743.672 1.453 1.37 2.265 1.928 1.571 1.176 3.281 2.108 5.054 2.725 3.523 1.342 7.224 1.447 10.503.887 3.302-.58 6.165-2.024 8.437-3.723a20.078 20.078 0 0 0 5.122-5.677c1.157-1.947 1.895-3.785 2.26-5.342.779-3.11.639-4.927.743-4.917.01 0 .014.111.013.329l-.02.966a9.293 9.293 0 0 1-.131 1.566c-.084.617-.163 1.333-.386 2.113-.335 1.583-1.05 3.46-2.199 5.454a20.24 20.24 0 0 1-5.152 5.839c-2.302 1.756-5.22 3.255-8.599 3.871-3.356.595-7.152.506-10.777-.857-1.824-.627-3.585-1.578-5.203-2.783-.836-.572-1.568-1.287-2.334-1.977-.693-.763-1.419-1.511-2.017-2.378-2.534-3.359-3.967-7.689-4.005-12.146.039-4.456 1.473-8.784 4.006-12.142.598-.867 1.324-1.615 2.017-2.378.765-.69 1.498-1.404 2.333-1.976 1.618-1.204 3.379-2.155 5.202-2.782 3.625-1.363 7.421-1.453 10.776-.858 3.379.616 6.297 2.115 8.599 3.871a20.23 20.23 0 0 1 5.153 5.839c1.149 1.995 1.865 3.871 2.2 5.455.223.78.302 1.496.386 2.113.105.614.129 1.14.131 1.566l.02.966c.002.218-.003.329-.013.329zM436.403 353.863c0 .144-83.697.26-186.919.26-103.258 0-186.937-.117-186.937-.26 0-.144 83.679-.26 186.937-.26 103.222 0 186.919.117 186.919.26z" style="fill:#263238"/><path d="M349.026 234.747v14.706h-9.651v30.331h24.357v-45.037zM155.757 249.453v-14.706h-14.706v42.898h24.357v-28.192z" style="fill:#e8505b"/><path d="m361.685 460.099-226.948-5.166v-13.586h226.948z" style="opacity:.2"/><path d="M140.959 378.771h217.155v40.476H140.959z" style="opacity:.5"/><path d="M423.828 277.416c0 .144-78.581.26-175.494.26-96.946 0-175.511-.117-175.511-.26s78.565-.26 175.511-.26c96.913 0 175.494.116 175.494.26zM264.226 354.377c-.144 0-.26-17.16-.26-38.324 0-21.171.117-38.328.26-38.328.144 0 .26 17.157.26 38.328 0 21.164-.116 38.324-.26 38.324z" style="fill:#263238"/><path d="M121.873 352.692c-.144 0-.26-16.846-.26-37.622 0-20.783.117-37.626.26-37.626s.26 16.842.26 37.626c.001 20.776-.116 37.622-.26 37.622z" style="fill:#263238"/><path d="M308.554 312.416c.033.038-.372.343-.925 1.044a7.33 7.33 0 0 0-1.502 3.389c-.253 1.539.002 3.537 1.223 5.226a7.263 7.263 0 0 0 2.403 2.124 7.24 7.24 0 0 0 3.332.829 7.228 7.228 0 0 0 3.328-.85 7.274 7.274 0 0 0 2.392-2.138c1.204-1.7 1.454-3.696 1.189-5.234a7.317 7.317 0 0 0-1.523-3.379c-.557-.698-.964-1-.931-1.038.011-.014.118.052.313.193.189.147.464.373.772.713a7.117 7.117 0 0 1 1.731 3.446 7.393 7.393 0 0 1-1.158 5.573 7.673 7.673 0 0 1-2.541 2.312 7.654 7.654 0 0 1-3.572.924 7.668 7.668 0 0 1-3.576-.902 7.643 7.643 0 0 1-2.553-2.297c-1.283-1.823-1.507-3.956-1.193-5.565a7.124 7.124 0 0 1 1.71-3.456c.306-.342.58-.57.768-.718.196-.143.302-.21.313-.196z" style="fill:#fafafa"/><path d="M313.055 308.362c.144 0 .26 2.665.26 5.952 0 3.288-.117 5.952-.26 5.952-.144 0-.26-2.664-.26-5.952s.117-5.952.26-5.952z" style="fill:#fafafa"/><path d="M226.184 336.578h-66.269a1.795 1.795 0 0 1-1.795-1.795v-32.104c0-.991.804-1.795 1.795-1.795h66.269c.991 0 1.795.804 1.795 1.795v32.104c0 .991-.803 1.795-1.795 1.795z" style="fill:#fff"/><path d="m191.481 310.2-.931-.931-.952.952v7.681l1 1 .941-.941zM191.481 320.151l-.931-.931-.952.953v7.681l1 .999.941-.941zM201.495 320.151l-.931-.931-.952.953v7.681l.999.999.942-.941zM201.557 310.2l-.931-.931-.952.952v7.681l1 1 .941-.941zM191.628 308.159l-.931.931.952.952h7.681l1-.999-.942-.942zM191.628 328.13l-.931.931.952.952h7.681l1-.999-.942-.942z" style="fill:#263238"/><path d="m191.628 318.158-.931.931.952.952h7.681l1-1-.942-.942zM209.551 310.037l-.931-.931-.952.952v7.681l1 1 .941-.942z" style="fill:#e0e0e0"/><path d="m209.551 319.988-.931-.931-.952.952v7.681l1 1 .941-.941z" style="fill:#263238"/><path d="m219.565 319.988-.931-.931-.953.952v7.681l1 1 .942-.941z" style="fill:#e0e0e0"/><path d="m219.627 310.037-.931-.931-.952.952v7.681l1 1 .941-.942zM209.698 307.996l-.932.931.953.952h7.681l.999-1-.941-.941zM209.698 327.967l-.932.931.953.952h7.681l.999-1-.941-.941zM209.698 317.994l-.932.931.953.953h7.681l.999-1-.941-.942z" style="fill:#263238"/><path d="M228.425 339.361c-.001-.017.201-.005.577-.091a2.675 2.675 0 0 0 1.417-.881c.242-.282.444-.657.547-1.102.113-.441.05-.958.061-1.512l-.024-3.825-.083-24.377-.009-3.95-.004-2.042c.028-.663-.174-1.3-.607-1.796a2.47 2.47 0 0 0-1.715-.849l-2.156-.005-4.459.007-19.32.024-44.27.02a2.438 2.438 0 0 0-2.154 1.31c-.207.399-.286.818-.271 1.294v1.457l-.001 5.777-.004 11.296-.006 10.902-.004 5.286c-.068.857.195 1.632.79 2.172.287.266.638.462 1.015.559.369.108.772.083 1.209.086l36.156.056 24.375.083 6.627.049 1.723.026c.391.008.59.026.59.026s-.199.018-.587.027l-1.723.026-6.627.049-24.375.083-36.156.056c-.41-.004-.873.029-1.334-.1a2.859 2.859 0 0 1-1.219-.667c-.714-.611-1.033-1.654-.952-2.529l-.004-5.286-.007-10.902-.004-11.296-.001-5.777v-1.457c-.02-.497.077-1.065.329-1.533a2.96 2.96 0 0 1 2.616-1.591l44.27.02 19.32.024 4.459.007c.736.005 1.44-.007 2.182.013a2.883 2.883 0 0 1 1.993.996c.5.564.733 1.349.697 2.059l-.004 2.042-.009 3.95-.083 24.377-.024 3.825c-.02.549.038 1.07-.089 1.542a2.688 2.688 0 0 1-.594 1.14 2.677 2.677 0 0 1-1.486.865c-.386.068-.588.037-.588.037zM437.49 378.771c0 .144-83.82.26-187.194.26-103.409 0-187.212-.117-187.212-.26s83.802-.26 187.212-.26c103.374 0 187.194.116 187.194.26z" style="fill:#263238"/><path d="M127.961 441.347h236.852v9.376H127.961z" style="fill:#e8505b"/><path d="M364.814 450.723s-.017-.75-.029-2.291l-.039-7.085.068.068-236.841.193h-.012l.26-.26v9.376l-.26-.26 167.746.108 50.563.079 13.735.037 3.578.018c.808.005 1.231.017 1.231.017s-.398.012-1.194.018l-3.543.018-13.674.037-50.502.079-167.939.107h-.26V441.086h.272l236.841.193h.068v.068l-.039 7.124c-.014 1.535-.03 2.252-.03 2.252z" style="fill:#263238"/><path d="M134.737 441.079v-7.975h6.802l-6.802-4.355v-9.502h223.377v11.05l-4.872 2.356 4.872.055v8.537z" style="fill:#fff"/><path d="M134.737 419.247v9.502l6.54 4.188h-6.54v8.142h16.193v-21.832z" style="fill:#e0e0e0"/><path d="M353.243 432.653c0 .144-45.292.343-101.151.444-55.878.102-101.161.067-101.162-.077 0-.144 45.283-.343 101.161-.444 55.859-.101 101.152-.067 101.152.077zM353.243 427.101c0 .144-45.292.343-101.151.444-55.878.101-101.161.067-101.162-.077 0-.144 45.283-.343 101.161-.444 55.859-.101 101.152-.067 101.152.077z" style="fill:#ebebeb"/><path d="M484.015 460.099c0 .144-105.013.26-234.523.26-129.555 0-234.546-.116-234.546-.26 0-.144 104.99-.26 234.546-.26 129.51-.001 234.523.116 234.523.26z" style="fill:#263238"/><path d="m98.28 277.445-14.757.2 2.071 67.169-11.907 29.76c11.641.293 26.414-8.204 28.189-19.713.802-5.203-.106-10.493-.65-15.729-1.03-9.904-.754-19.892-.476-29.846.191-6.84.425-13.88 3.188-20.14 2.763-6.26 8.71-11.624 15.552-11.566l-21.21-.135z" style="opacity:.3"/><path d="m88.538 321.808 1.733 38.598 16.249-1.164 3.638-40.503z" style="fill:#ffbe9d"/><path d="M107.09 352.142s-11.437 8.117-16.973 1.09l-1.447 3.405-6.504 24.258c-.421 1.57.316 3.301 1.83 3.894a3.14 3.14 0 0 0 3.328-.636c4.704-4.475 21.928-21.023 21.76-23.267l-.066-5.956a3.029 3.029 0 0 0-1.928-2.788z" style="fill:#455a64"/><path d="m84.557 384.953 24.535-26.139-.005 1.301c.123 1.41-.493 1.967-1.163 2.871-1.984 2.677-7.479 8.665-20.508 21.169a3.144 3.144 0 0 1-2.859.798zM105.498 354.938c-.771.529-1.028 1.691-.531 2.484.497.793 1.677 1.063 2.457.548.78-.515 1.131-1.901.549-2.633s-1.985-.974-2.619-.287M91.63 371.565c-.174.084-.86-1.527-2.683-2.4-1.796-.927-3.494-.501-3.532-.691-.026-.076.363-.313 1.082-.411.713-.102 1.751.003 2.75.498.998.498 1.708 1.262 2.057 1.892.356.634.402 1.087.326 1.112zM89.426 375.668c-.147.132-1.128-.87-2.714-1.332-1.576-.497-2.949-.207-2.997-.399-.088-.157 1.393-.803 3.193-.247 1.805.537 2.679 1.896 2.518 1.978zM95.723 366.311c-.145.145-1.647-1.404-4.05-2.338-2.39-.971-4.545-.876-4.55-1.08-.049-.164 2.234-.581 4.799.454 2.575 1.008 3.95 2.879 3.801 2.964zM96.268 358.927c-.083.184-1.776-.532-3.983-.621-2.206-.119-3.959.434-4.024.244-.084-.151 1.685-1.04 4.056-.917 2.371.101 4.049 1.152 3.951 1.294z" style="fill:#263238"/><path d="M91.027 358.24c-.038-.006-.031-.425.173-1.149a8.079 8.079 0 0 1 1.467-2.82c.431-.5.906-1.157 1.822-1.397.457-.122 1.066.072 1.349.539.282.455.302.972.222 1.452-.39 1.91-2.382 3.455-4.588 3.327-2.208-.168-3.937-1.77-4.484-3.585-.108-.464-.139-1.013.191-1.479.326-.472.978-.561 1.397-.406.871.302 1.34.924 1.795 1.406a9.003 9.003 0 0 1 1.62 2.731c.259.705.306 1.12.268 1.13-.121.059-.485-1.625-2.243-3.542-.45-.449-.961-1.007-1.595-1.187-.309-.09-.603-.016-.762.217-.161.222-.169.613-.069.98.471 1.489 2.054 2.95 3.923 3.063 1.858.127 3.607-1.234 3.936-2.768.074-.37.045-.762-.112-1.02a.684.684 0 0 0-.74-.308c-.632.126-1.144.687-1.565 1.154-1.685 1.977-1.876 3.717-2.005 3.662z" style="fill:#263238"/><path d="m54.778 287.713-19.881 37.736 15.874 9.51 25.664-36.161z" style="fill:#ffbe9d"/><path d="m37.382 320.401-.648 1.046s-22.163-3.778-24.424-.521l35.412 21.497 6.672-12.076c-6.745-.756-12.422-3.827-17.012-9.946z" style="fill:#455a64"/><path d="M48.522 331.939c.572.604.577 1.661-.002 2.257-.58.596-1.655.611-2.238.018-.582-.593-.628-1.863.015-2.39.642-.527 1.907-.476 2.33.24M47.723 342.424l1.605-2.905-34.528-19.54s-1.993-.271-2.489.948l35.412 21.497zM36.55 321.471c-.099.176.718.78 1.231 1.852.541 1.059.525 2.074.726 2.102.18.063.549-1.127-.095-2.415-.633-1.292-1.803-1.72-1.862-1.539zM31.903 320.753c-.141.143.429.892.572 1.98.175 1.083-.156 1.964.02 2.061.146.126.881-.814.677-2.163-.192-1.351-1.165-2.041-1.269-1.878zM27.095 323.917c.135.132.9-.586 1.031-1.802.14-1.216-.449-2.084-.61-1.985-.184.083.033.91-.09 1.907-.099 1-.492 1.759-.331 1.88zM148.721 233.475s11.589 15.977 9.683 30.777c-1.451 11.267-4.201 13.192-4.201 13.192l-35.539.036-7.597-47.695 11.025.862 26.629 2.828z" style="fill:#263238"/><path d="m92.83 254.969-.233.141a16.387 16.387 0 0 0-7.909 14.792l4.226 60.287 20.541.623 3.778-53.022 10.571-.602-17.535-20.185a10.64 10.64 0 0 0-13.439-2.034z" style="fill:#263238"/><path d="m44.944 306.033 33.802-70.007s4.746-6.961 11.39-6.644c6.644.316 48.091 13.605 48.091 13.605v33.854l-14.554-.316-32.905-3.164-12.531 23.793L63.538 318.1l-18.594-12.067z" style="fill:#263238"/><path d="M146.161 247.553c-.006.014-.169-.04-.473-.157l-1.319-.53-4.837-1.975a358.375 358.375 0 0 0-16.124-6.073 359.4 359.4 0 0 0-16.412-5.257l-5.017-1.456-1.363-.404c-.31-.097-.471-.156-.468-.171.004-.015.173.014.49.083l1.384.323c1.201.287 2.93.736 5.06 1.32a262.92 262.92 0 0 1 16.472 5.138 263.318 263.318 0 0 1 16.098 6.204c2.031.865 3.666 1.587 4.785 2.108l1.286.607c.294.144.444.226.438.24z" style="fill:#455a64"/><path d="M147.165 240.293c-.007.065-1.184-.011-3.084-.124-1.9-.115-4.525-.244-7.429-.317l-7.441-.15c-1.906-.043-3.084-.098-3.084-.16 0-.031.295-.06.828-.087a79.308 79.308 0 0 1 2.257-.07 168.98 168.98 0 0 1 7.452.019c2.911.073 5.544.253 7.442.449.949.097 1.716.19 2.244.271.528.08.818.138.815.169zM102.101 253.02c-.014.073-.959-.331-2.744-.332-1.757-.015-4.41.486-7.008 2.334-2.6 1.812-4.851 5.088-5.965 9.138-1.178 4.051-1.159 8.759-.793 13.616l1.877 25 .511 7.581.113 2.063c.02.472.022.721.004.722-.018.001-.055-.245-.108-.714l-.21-2.056-.676-7.568-2.029-24.992c-.366-4.872-.378-9.652.851-13.785 1.162-4.128 3.507-7.479 6.215-9.307 2.698-1.86 5.432-2.313 7.223-2.235a9.102 9.102 0 0 1 2.057.296c.453.141.687.222.682.239z" style="fill:#455a64"/><path d="M136.107 277.188c-.004.018-.16-.004-.452-.06-.291-.062-.726-.135-1.273-.284-1.1-.27-2.673-.75-4.558-1.499-3.779-1.474-8.717-4.256-13.516-8.166-4.804-3.908-8.649-7.994-11.381-10.967a178.7 178.7 0 0 1-3.185-3.572c-.739-.855-1.134-1.34-1.108-1.364.027-.024.473.414 1.257 1.227l3.304 3.457c2.798 2.905 6.67 6.934 11.44 10.814 4.765 3.881 9.618 6.682 13.33 8.231a45.57 45.57 0 0 0 4.472 1.645c1.077.329 1.68.497 1.67.538zM113.327 267.912c.144.008-.119 6.616-.587 14.756-.468 8.143-.964 14.736-1.107 14.728-.144-.008.119-6.614.587-14.758.467-8.14.963-14.734 1.107-14.726z" style="fill:#455a64"/><path d="M112.287 154.751c-.056-.018.269-.448.176-1.303a3.657 3.657 0 0 0-.516-1.441c-.312-.516-.788-1.029-1.331-1.592-.544-.558-1.147-1.226-1.585-2.073a7.476 7.476 0 0 1-.826-2.898 7.361 7.361 0 0 1 .51-3.292c.418-1.083 1.044-2.094 1.66-3.115.62-1.017 1.19-2.022 1.54-3.061.359-1.036.445-2.094.237-3.075-.419-1.972-1.491-3.568-1.994-5.078-.562-1.499-.544-2.873-.271-3.726.129-.431.299-.74.432-.932.132-.194.224-.278.236-.269.046.027-.279.414-.472 1.253-.199.832-.165 2.114.42 3.547.524 1.448 1.636 3.007 2.119 5.111.239 1.049.153 2.235-.223 3.332-.365 1.105-.956 2.147-1.578 3.169-.619 1.023-1.229 2.008-1.631 3.031a6.96 6.96 0 0 0-.506 3.073c.063 1 .333 1.935.731 2.734.396.805.941 1.441 1.471 2.02.525.579 1.004 1.13 1.313 1.698.309.566.445 1.118.466 1.571.019.456-.079.805-.18 1.019-.097.214-.188.303-.198.297zM139.962 146.86c.571 1.738 2.325 2.971 4.152 3.078 1.827.108 3.642-.835 4.744-2.296 1.102-1.461 1.515-3.382 1.285-5.197-.104-.822-.333-1.649-.192-2.465.2-1.157 1.102-2.071 1.456-3.191.638-2.016-.735-4.261-2.636-5.189-1.9-.928-4.148-.801-6.214-.348" style="fill:#263238"/><path d="M111.652 121.532c-1.981 1.78-1.405 4.295-.624 6.02.781 1.725 1.736 3.483 1.649 5.375-.088 1.934-1.25 3.632-1.885 5.461a10.396 10.396 0 0 0 .155 7.168c.678 1.71 1.803 3.213 2.49 4.919.687 1.706.858 3.815-.288 5.253 1.022-.105 1.909-.827 2.415-1.721.506-.894.676-1.94.712-2.967.138-3.897-1.513-7.784-.829-11.623.398-2.232 1.574-4.33 1.552-6.597-.022-2.275-1.239-4.336-2.084-6.448s-1.27-4.71.117-6.514" style="fill:#263238"/><path d="M116.676 114.408c-2.314.168-4.659 1.241-5.884 3.211-1.225 1.97-1.005 4.869.818 6.303 1.719 1.353 4.28 1.083 6.185.007 1.405-.794 2.607-2.012 3.185-3.519.578-1.507.472-3.307-.454-4.63-.926-1.322-2.708-2.047-4.248-1.563" style="fill:#263238"/><path d="M114.814 114.067c1.17-2.738 3.773-4.708 6.629-5.548 2.856-.841 5.936-.648 8.827.066 2.89.714 5.628 1.929 8.348 3.139 1.98.88 4.004 1.789 5.569 3.287 1.549 1.483 2.553 3.461 3.179 5.512 1.176 3.854 1.079 6.623-.756 10.211-.799 1.562-.323 3.387-1.049 4.983-.727 1.597-3.781 3.373-2.951 4.918" style="fill:#263238"/><path d="M138.304 117.286a3.099 3.099 0 0 1 2.765 3.148l-1.848 41.834c-.077 4.941-7.299 7.717-12.589 7.594-5.342-.124-5.514-2.744-5.581-7.445-.112-7.853-.102-10.801-.105-10.756 0 0-6.748-1.136-8.127-9.946-.686-4.382-.45-11.562-.067-17.431.345-5.283 3.86-11.757 9.123-11.189l16.429 4.191z" style="fill:#ffbe9d"/><path d="M114.725 130.296c-.022.596.464 1.107 1.087 1.142.621.035 1.144-.419 1.166-1.016.022-.596-.464-1.108-1.085-1.143-.622-.034-1.145.421-1.168 1.017zM114.301 127.453c.14.148.997-.484 2.212-.478 1.214-.012 2.105.616 2.237.467.065-.066-.077-.332-.465-.616-.382-.282-1.033-.558-1.79-.556-.757.002-1.395.28-1.761.564-.375.286-.502.552-.433.619zM126.231 130.296c-.023.596.464 1.107 1.086 1.142.621.035 1.144-.419 1.167-1.016.022-.596-.464-1.108-1.085-1.143-.623-.034-1.146.421-1.168 1.017zM126.247 128.277c.14.147.998-.484 2.213-.478 1.214-.012 2.105.616 2.237.467.065-.066-.076-.332-.465-.615-.382-.283-1.033-.558-1.79-.556-.757.003-1.395.28-1.761.564-.374.285-.502.551-.434.618zM121.817 137.28c.006-.069-.749-.201-1.973-.361-.31-.033-.604-.095-.656-.307-.073-.225.058-.559.209-.92l.923-2.361c1.282-3.362 2.211-6.127 2.075-6.177-.136-.05-1.285 2.634-2.567 5.996l-.885 2.375c-.118.352-.321.752-.164 1.218a.78.78 0 0 0 .509.455c.199.061.373.065.527.074 1.233.07 1.997.077 2.002.008z" style="fill:#263238"/><path d="M120.945 151.661s5.924.395 11.802-3.12c0 0-2.989 6.049-11.802 5.206v-2.086z" style="fill:#eb996e"/><path d="M125.715 124.717c.119.331 1.333.177 2.758.352 1.429.146 2.578.566 2.768.271.085-.142-.115-.453-.579-.774-.46-.32-1.195-.626-2.051-.723-.856-.095-1.64.039-2.16.249-.523.209-.787.468-.736.625zM114.756 124.507c.213.276 1.051-.008 2.058-.019 1.006-.047 1.859.19 2.056-.099.086-.14-.048-.417-.419-.679-.367-.261-.98-.475-1.672-.456-.692.02-1.292.269-1.643.551-.357.283-.474.567-.38.702z" style="fill:#263238"/><path d="M122.332 140.076c.409-.538 1.124-.832 1.833-.754.492.054.988.292 1.286.694.298.401.359.97.087 1.351-.307.43-.946.527-1.487.372-.541-.155-1.005-.512-1.447-.868-.122-.098-.247-.201-.323-.336-.076-.134-.092-.311.003-.422" style="fill:#eb996e"/><path d="M125.193 138.135c-.184-.011-.189 1.219-1.244 2.09-1.053.874-2.364.733-2.374.905-.017.077.292.24.845.256a3.063 3.063 0 0 0 1.982-.686c.644-.534.921-1.248.964-1.753.048-.514-.089-.819-.173-.812zM114.533 116.415c.419 2.787 4.824 3.243 7.591 2.708 1.819 2.379 4.918 3.713 7.896 3.4.405-.042.831-.11 1.206.049.397.169.648.554.906.9a7.87 7.87 0 0 0 4.792 2.994c.372 2.783 2.616 5.217 5.36 5.815 0 0 .904-.447.586-4.007-.319-3.56.068-10.964.068-10.964l-9.642-4.379-11.528-2.15c-.001.001-7.945.918-7.235 5.634z" style="fill:#263238"/><path d="M146.448 131.131c-.077.012.034-.973-.599-2.475a6.251 6.251 0 0 0-1.717-2.309 6.316 6.316 0 0 0-3.405-1.436l-.153-.015-.038-.153c-.351-1.401-1.016-2.935-2.28-4.039-1.218-1.082-3.206-1.621-4.822-.814l-.267.133-.102-.292-.111-.32c-.914-2.538-3.384-4.168-5.672-4.395a7.644 7.644 0 0 0-1.705.047c-.566.062-1.17.115-1.741-.08-.576-.2-.972-.623-1.304-.99-.331-.382-.635-.717-.989-.973-1.439-1.042-3.041-1.002-3.978-.768-.973.246-1.421.625-1.449.577-.011-.014.097-.106.316-.269.231-.139.578-.356 1.079-.503a4.97 4.97 0 0 1 4.248.665c.816.514 1.298 1.541 2.215 1.853.921.296 2.096-.186 3.355-.035 2.468.223 5.114 1.937 6.116 4.697l.121.349-.368-.158c1.88-.924 4.055-.291 5.387.903 1.368 1.217 2.038 2.849 2.381 4.313l-.191-.168a6.596 6.596 0 0 1 3.593 1.602 6.322 6.322 0 0 1 2.123 4.375c.014.444-.024.679-.043.678z" style="fill:#455a64"/><path d="M131.229 121.818c.008.029-.244.133-.725.239-.48.107-1.199.183-2.086.115-1.745-.112-4.287-1.006-6.004-3.233l.32.077-.29.131a6.647 6.647 0 0 1-3.945.366 6.348 6.348 0 0 1-2.88-1.47 6.047 6.047 0 0 1-1.34-1.706c-.233-.457-.301-.733-.272-.745.086-.054.485 1.048 1.85 2.171a6.297 6.297 0 0 0 2.738 1.281 6.377 6.377 0 0 0 3.646-.376l.266-.12.194-.087.126.164c1.596 2.08 3.964 2.989 5.629 3.188 1.7.221 2.758-.095 2.773.005z" style="fill:#455a64"/><path d="M126.27 116.609c-.02.153-1.294.042-2.792.395-1.503.334-2.601.987-2.686.859-.089-.101.952-1.003 2.57-1.366 1.614-.377 2.945-.017 2.908.112zM122.935 116.321c-.114.093-.564-.28-1.133-.688-.565-.414-1.059-.726-1.006-.864.047-.132.683-.016 1.312.442.63.455.938 1.024.827 1.11zM136.623 121.44c-.055.143-1.169-.218-2.573-.171-1.405.027-2.497.448-2.56.308-.073-.113 1.013-.794 2.546-.829 1.533-.047 2.653.575 2.587.692zM139.063 126.157c.005.133-1.664.203-3.576-.475-1.917-.666-3.176-1.763-3.089-1.864.089-.127 1.428.738 3.261 1.372 1.826.65 3.413.812 3.404.967zM145.077 129.527c-.117.1-.93-.814-2.295-1.284-1.356-.499-2.564-.304-2.59-.455-.061-.124 1.242-.587 2.765-.035 1.528.534 2.246 1.717 2.12 1.774zM144.902 116.876c-.043.014-.14-.295-.453-.764-.315-.465-.893-1.058-1.775-1.552-1.76-.981-4.579-1.69-7.687-1.726-3.123-.037-5.923.562-7.916 1.049-1.996.502-3.219.881-3.244.806-.011-.033.279-.171.82-.379a32.607 32.607 0 0 1 2.327-.783c1.983-.582 4.819-1.252 8.019-1.215 3.193.04 6.063.816 7.87 1.931.903.56 1.482 1.238 1.759 1.763.276.53.305.865.28.87z" style="fill:#455a64"/><path d="M145.619 121.649c-.099.035-.308-1.083-1.357-2.483-1.019-1.396-2.992-2.959-5.551-3.693-2.568-.728-5.042-.64-6.793-.523-1.762.129-2.853.278-2.865.198-.01-.062 1.057-.339 2.83-.565 1.76-.211 4.296-.367 6.973.389 2.68.767 4.72 2.463 5.707 3.98.503.756.791 1.439.924 1.925.137.487.161.766.132.772zM112.629 125.33c-.011.047-.804-.218-1.629-1.217-.813-.956-1.574-2.786-1.061-4.756.545-1.961 2.124-3.161 3.307-3.58 1.216-.448 2.034-.279 2.02-.234.007.095-.783.069-1.878.573-1.073.475-2.462 1.625-2.946 3.376-.461 1.756.163 3.448.852 4.398.692.987 1.389 1.362 1.335 1.44z" style="fill:#455a64"/><path d="M148.569 139.159c-.044-.082.871-.502 2.181-1.374.641-.446 1.364-1.057 1.884-1.925.525-.854.745-2.002.325-3.084a4.134 4.134 0 0 0-2.135-2.319c-.918-.407-1.869-.433-2.627-.317-1.543.256-2.328.948-2.377.861-.019-.024.149-.214.525-.475a5.109 5.109 0 0 1 1.786-.748c.802-.172 1.843-.192 2.884.238a4.5 4.5 0 0 1 2.434 2.581c.484 1.227.203 2.597-.405 3.512-.598.943-1.402 1.559-2.092 1.982-.698.423-1.297.683-1.712.855-.417.171-.655.245-.671.213zM148.976 139.232c.033-.011.165.265.363.78.196.516.463 1.271.702 2.236.232.963.441 2.15.358 3.485-.081 1.32-.46 2.817-1.417 4.074-.963 1.252-2.398 2.003-3.768 2.101-1.389.129-2.61-.538-3.258-1.32-.68-.781-.909-1.633-.908-2.197-.005-.572.136-.865.158-.856.047.009-.021.312.045.841.059.522.325 1.283.977 1.964a3.528 3.528 0 0 0 2.947 1.09c1.221-.109 2.523-.805 3.393-1.939.874-1.147 1.249-2.537 1.352-3.792.105-1.264-.057-2.419-.239-3.372-.396-1.907-.791-3.069-.705-3.095z" style="fill:#263238"/><path d="M106.58 168.319s-6.195 3.896-6.928 13.592c-.733 9.696-2.862 29.926-2.862 29.926l-23.652 5.782 2.635 14.189 39.02-10.878-8.213-52.611z" style="fill:#e8505b"/><path d="M156.192 164.784c-2.184-.936-15.748-3.409-15.748-3.409l-.677-7.269-18.797 1.622-.652 7.842-13.738 4.749-.324 14.587 3.292 47.741 38.237 3.404a5.334 5.334 0 0 0 5.806-5.418l-.83-42.321c-.001 0 5.615-20.592 3.431-21.528z" style="fill:#e8505b"/><path d="M156.192 164.784s7.793 2.988 8.454 14.737c.436 7.737 3.154 20.948 4.96 29.069 1.015 4.564.758 9.682-1.767 13.617-3.652 4.242-8.631 7.936-15.052 8.441h-16.106l-6.992-11.128 18.575-5.415 4.402-26.782 3.526-22.539z" style="fill:#e8505b"/><path d="M159.546 220.522c-.035.003-.09-.46-.237-1.285-.155-.821-.395-2.018-.979-3.387-.58-1.354-1.557-2.904-3.166-4.012-.794-.551-1.739-.98-2.772-1.144-1.036-.164-2.142-.064-3.253.155-4.463 1.006-8.482 2.076-11.305 3.101l-3.375 1.144c-.801.26-1.249.39-1.259.361-.01-.029.417-.215 1.2-.525a7385.5 7385.5 0 0 0 3.328-1.279c2.812-1.106 6.83-2.23 11.326-3.242 1.136-.224 2.299-.33 3.408-.148 1.109.182 2.11.65 2.94 1.239 1.681 1.186 2.665 2.825 3.222 4.229.561 1.421.755 2.646.858 3.482.095.841.091 1.309.064 1.311zM149.074 187.363c.031-.002.077.307.134.868.058.561.115 1.374.169 2.379l.351 7.844c.171 3.058.479 5.811.872 7.774.376 1.966.777 3.144.703 3.17-.029.01-.152-.276-.349-.806a10.551 10.551 0 0 1-.318-.979 16.033 16.033 0 0 1-.346-1.319c-.476-1.966-.838-4.743-1.009-7.814-.169-3.071-.189-5.85-.22-7.859l-.027-2.38c-.004-.564.009-.876.04-.878zM165.594 224.637c.021.023-.293.333-.883.878a20.666 20.666 0 0 1-2.742 2.008c-2.43 1.515-6.225 3.061-10.637 3.336a22.154 22.154 0 0 1-6.167-.462c-1.874-.397-3.451-1.064-4.827-1.387-1.368-.351-2.529-.357-3.326-.465-.799-.092-1.228-.221-1.222-.247.007-.034.442.036 1.237.073.788.054 1.965.01 3.383.33 1.417.292 3.008.927 4.841 1.291 1.831.375 3.897.566 6.053.419 4.327-.269 8.064-1.736 10.503-3.161 2.463-1.42 3.722-2.692 3.787-2.613zM109.838 177.452c.03-.002.102.4.13 1.135.03.735-.006 1.803-.171 3.109-.165 1.305-.471 2.841-.844 4.528-.369 1.688-.794 3.535-1.032 5.496-.233 1.958-.224 3.855.137 5.511.357 1.657 1.031 3.062 1.779 4.1 1.524 2.11 3.193 2.619 3.119 2.717-.007.017-.105-.009-.288-.075-.187-.058-.446-.18-.775-.354-.65-.353-1.528-1.015-2.351-2.068-.817-1.051-1.555-2.496-1.953-4.216-.402-1.722-.423-3.679-.185-5.677.243-2 .687-3.861 1.081-5.541.399-1.68.739-3.192.948-4.475.433-2.566.317-4.187.405-4.19zM152.469 163.971c.043.077-.758.509-1.838 1.465-1.077.944-2.399 2.488-3.23 4.513-.831 2.026-.972 4.054-.868 5.482.098 1.439.365 2.31.28 2.334-.051.021-.449-.821-.647-2.298-.203-1.463-.119-3.592.752-5.715.87-2.123 2.305-3.699 3.476-4.598 1.179-.914 2.053-1.234 2.075-1.183zM123.041 164.192c-.139.016-.464-1.849-.543-4.177-.084-2.328.11-4.211.25-4.205.147.006.188 1.881.271 4.187.077 2.305.168 4.179.022 4.195zM128.395 163.548c-.137.027-.6-1.77-.84-4.04-.245-2.27-.172-4.124-.032-4.127.147-.004.307 1.825.549 4.071.238 2.247.468 4.069.323 4.096zM134.209 163.135c-.137.026-.607-1.897-.845-4.319-.243-2.423-.16-4.4-.02-4.402.148-.003.298 1.951.539 4.35.235 2.399.471 4.345.326 4.371zM139.782 202.254c.013.03-.2.165-.617.348a8.574 8.574 0 0 1-1.849.55c-1.591.315-3.976.273-6.266-.823-2.289-1.101-3.814-2.935-4.564-4.373a8.624 8.624 0 0 1-.728-1.786c-.117-.44-.145-.691-.114-.699.089-.028.337.949 1.161 2.302.806 1.344 2.302 3.044 4.47 4.087 2.17 1.038 4.431 1.141 5.984.928 1.572-.203 2.489-.621 2.523-.534z" style="fill:#263238"/><path d="M147.268 168.758s-.15-.05-.427-.164l-1.211-.503c-1.054-.429-2.574-1.072-4.52-1.658-1.938-.567-4.354-1.09-7.027-.794-2.674.27-5.476 1.316-8.282 2.623-2.811 1.311-5.46 2.672-8.038 3.501-2.564.858-5.047 1.125-7.081.862-2.039-.242-3.6-.927-4.547-1.559-.958-.63-1.372-1.118-1.372-1.118s.127.094.355.288c.228.192.576.467 1.061.761.953.605 2.503 1.26 4.521 1.481 2.015.24 4.462-.038 7.004-.898 2.556-.833 5.192-2.194 8.011-3.508 2.813-1.31 5.641-2.362 8.349-2.625 2.71-.289 5.148.256 7.089.844 1.951.607 3.465 1.272 4.51 1.724l1.196.539c.271.128.409.204.409.204zM164.177 173.986c.003.007-.054.037-.164.09l-.489.221c-.424.194-1.056.433-1.85.688-1.585.513-3.861 1.001-6.413 1.064-2.552.055-4.849-.327-6.456-.766a17.823 17.823 0 0 1-1.879-.601l-.498-.198c-.113-.047-.171-.076-.168-.082.003-.007.066.008.183.043l.51.161c.439.15 1.085.337 1.889.535 1.607.4 3.885.755 6.415.701a24.998 24.998 0 0 0 6.374-.996 23.617 23.617 0 0 0 1.862-.622l.502-.185c.117-.042.179-.06.182-.053zM165.184 187.931c-.003.014-.247-.012-.685-.07a16.357 16.357 0 0 0-1.862-.143c-1.573-.053-3.769.14-6.06.884-2.288.753-4.174 1.895-5.413 2.867-.621.484-1.105.904-1.418 1.216-.319.306-.501.471-.511.461-.011-.01.151-.193.454-.518.297-.33.768-.77 1.383-1.273 1.225-1.01 3.124-2.187 5.44-2.949 2.318-.753 4.545-.924 6.13-.833.793.043 1.434.119 1.869.211.437.08.676.133.673.147zM169.732 212.583c-.026 0 .032-.296-.084-.804-.123-.499-.491-1.196-1.228-1.765-.724-.587-1.817-.926-3.049-.975-1.231-.064-2.601.089-4.043.042a27.65 27.65 0 0 1-7.265-1.157 25.641 25.641 0 0 1-2.107-.74l-.557-.241c-.126-.058-.191-.091-.188-.098.003-.007.073.014.204.059l.57.204c.496.172 1.215.42 2.119.674a29.58 29.58 0 0 0 7.229 1.091c1.429.047 2.793-.1 4.049-.026 1.251.058 2.391.426 3.129 1.051.751.605 1.114 1.342 1.215 1.863.095.531.006.822.006.822zM152.702 230.143c-.017-.005.053-.3.158-.837.106-.536.226-1.32.283-2.294a16.443 16.443 0 0 0-1.316-7.432 16.432 16.432 0 0 0-4.559-6.016 17.026 17.026 0 0 0-1.876-1.351c-.465-.288-.729-.437-.721-.452 0 0 1.14.464 2.69 1.689 1.543 1.207 3.445 3.272 4.657 6.047 1.212 2.773 1.434 5.572 1.272 7.524-.154 1.97-.588 3.122-.588 3.122zM147.756 188.857c-.038.018-.212-.549-.805-1.415-.585-.863-1.689-1.968-3.365-2.808-1.667-.842-3.896-1.384-6.37-1.315-2.479.077-5.137.826-7.835 1.778-2.703.958-5.25 1.99-7.679 2.589-2.424.602-4.7.783-6.583.591-1.886-.191-3.353-.727-4.277-1.236-.461-.26-.809-.475-1.027-.649-.225-.163-.336-.258-.336-.258.02-.03.467.354 1.4.835.928.483 2.385.99 4.253 1.161 1.866.171 4.119-.023 6.523-.631 2.408-.605 4.947-1.639 7.657-2.599 2.705-.954 5.384-1.706 7.898-1.774 2.506-.059 4.76.505 6.441 1.375 1.691.868 2.796 2.007 3.366 2.893.281.45.481.807.578 1.07.112.256.161.393.161.393zM112.193 203.606c.026.052-.292.261-.71.469-.418.207-.777.333-.803.282-.026-.052.292-.261.71-.469.418-.207.778-.333.803-.282zM135.281 203.695s-1.126.46-3.064.568c-1.937.143-4.6-.218-7.487-.722-2.888-.503-5.553-.706-7.454-.422-.948.129-1.702.325-2.208.499-.508.171-.783.287-.79.269 0 0 1.054-.621 2.978-.914 1.918-.325 4.615-.142 7.508.362 2.891.505 5.526.885 7.447.781a13.992 13.992 0 0 0 2.253-.256c.524-.106.812-.183.817-.165zM149.665 202.804c-.018.037-.654-.302-1.746-.674a14.85 14.85 0 0 0-4.416-.768c-1.76-.029-3.34.272-4.442.606-1.105.332-1.752.647-1.769.609-.006-.013.152-.098.445-.24.29-.147.728-.325 1.28-.51 1.102-.374 2.703-.703 4.49-.674 1.786.036 3.373.424 4.461.838.545.205.976.399 1.261.557.287.153.442.243.436.256zM132.128 215.533c.003.007-.058.042-.176.103l-.523.26c-.453.228-1.131.513-1.984.823-1.703.623-4.159 1.246-6.931 1.419-2.774.164-5.287-.157-7.053-.569-.884-.204-1.592-.405-2.069-.576l-.551-.194c-.125-.047-.189-.074-.187-.081.002-.007.071.008.2.041l.561.157c.483.147 1.194.325 2.076.509 1.764.373 4.258.668 7.01.505 2.75-.172 5.19-.767 6.896-1.35.854-.29 1.538-.553 1.999-.757l.538-.223c.124-.051.191-.073.194-.067zM109.607 183.861c-.02.037-.521-.261-1.4-.561a9.541 9.541 0 0 0-3.565-.472 9.54 9.54 0 0 0-3.484.895c-.837.402-1.299.758-1.323.724-.009-.011.102-.105.312-.265a6.42 6.42 0 0 1 .946-.591c.83-.445 2.091-.881 3.537-.971 1.446-.084 2.75.199 3.627.541.44.17.785.335 1.009.474.227.134.348.213.341.226z" style="fill:#fafafa"/><path d="M126.151 196.749c-1.355 2.898-.137 6.531 2.8 8.357 2.938 1.826 7.314 1.67 10.067-.359.543-.4 1.043-1.111.581-1.581-.356-.362-1.01-.281-1.553-.206-2.429.336-4.992-.108-7.082-1.227s-4.024-2.956-4.755-4.984" style="opacity:.4"/><path d="m103.41 225.881 22.766-.408-12.689 6.053z" style="fill:#263238"/><path d="m56.181 193.083 8.796 38.549a3.142 3.142 0 0 0 3.099 2.443l45.551-.524 12.499-6.151-.195-1.747-10.856 4.88-6.795-40.13c-.101-1.788-1.739-2.987-3.002-2.917l-46.834 2.592a2.461 2.461 0 0 0-2.263 3.005z" style="fill:#455a64"/><path d="M115.597 225.916c1.443 2.037 2.675.353 4.336-.28 1.378-.525 2.261-1.182 2.261-1.182l-.387 5.892-3.516 2.509s-.013 1.581 2.313 1.742 3.261-.241 3.261-.241l.126.787a1.842 1.842 0 0 0 1.777 1.556c.422.007.833-.034 1.09-.178 0 0 2.291 1.342 4.617.048 2.326-1.293 2.126-3.732 2.126-3.732l3.61-7.221 1.016-.294s2.162-3.587-.906-6.709c-1.617-1.645-4.097-2.104-6.286-1.377l-4.772 1.585a4.868 4.868 0 0 0-3.39.899c-.79.575-3.892 2.759-3.892 2.759l-3.384 3.437z" style="fill:#ffbe9d"/><path d="M126.403 229.125c.062-.004.141.375.219.99.063.609.212 1.481-.001 2.469-.109.484-.336.948-.652 1.266-.309.322-.67.522-.996.611-.678.173-1.068-.114-1.033-.149.02-.072.401.067.932-.152.528-.212 1.138-.797 1.312-1.678.192-.869.107-1.729.121-2.348.004-.62.037-1.005.098-1.009zM122.194 224.454c.123.011.137 1.335.031 2.957-.107 1.623-.294 2.937-.417 2.935-.124-.002-.137-1.326-.03-2.957.105-1.631.292-2.945.416-2.935zM130.394 230.533c.058-.004.162.429.223 1.151.047.706.076 1.788-.515 2.815-.6 1.018-1.563 1.537-2.23 1.799-.685.262-1.136.306-1.15.252-.019-.065.399-.218 1.019-.541.609-.323 1.455-.848 1.974-1.736.518-.888.554-1.887.585-2.582.021-.707.029-1.154.094-1.158z" style="fill:#eb996e"/><path d="M136.877 227.995c-.074-.038.425-.844 1.117-2.149.327-.66.613-1.489.693-2.452.095-.966-.002-2.03-.445-3.05a6.122 6.122 0 0 0-1.878-2.439 6.876 6.876 0 0 0-2.276-1.145c-1.419-.405-2.366-.294-2.365-.378-.002-.027.227-.083.652-.106a6.57 6.57 0 0 1 1.794.177 6.69 6.69 0 0 1 2.444 1.121 6.273 6.273 0 0 1 2.042 2.593c.476 1.089.567 2.266.443 3.267a6.65 6.65 0 0 1-.823 2.558c-.378.664-.74 1.153-.982 1.494-.247.341-.388.526-.416.509z" style="fill:#263238"/><path d="M85.68 210.615a2.56 2.56 0 1 1-5.12 0 2.56 2.56 0 0 1 5.12 0z" style="fill:#fafafa"/><path d="M136.789 126.499c-1.185 2.062-.514 4.679.458 6.849.973 2.17 2.248 4.337 2.206 6.715-.071 3.983-3.819 7.297-3.551 11.272.16 2.365 1.921 4.537 4.201 5.183-1.809-1.37-1.824-4.145-.984-6.253.84-2.108 4.636-7.575 5.265-9.756 2.111-7.324 1.437-8.228-1.01-10.982" style="fill:#263238"/><path d="M143.645 132.191c.002.061-.533.153-1.381-.019-.839-.164-1.992-.654-2.925-1.618-.933-.965-1.386-2.133-1.523-2.977-.144-.854-.035-1.385.026-1.381.082-.001.107.518.333 1.298a6.497 6.497 0 0 0 1.538 2.697 6.503 6.503 0 0 0 2.645 1.624c.772.252 1.29.295 1.287.376z" style="fill:#455a64"/><path d="M139.311 154.106c-.012.013-.099-.05-.255-.184a3.849 3.849 0 0 1-.588-.683 5.08 5.08 0 0 1-.828-3.188c.043-.711.257-1.49.704-2.215.449-.722 1.108-1.332 1.766-1.95.665-.617 1.304-1.285 1.731-2.14a6.424 6.424 0 0 0 .692-2.835 6.098 6.098 0 0 0-.656-2.839c-.424-.861-.992-1.62-1.53-2.351-1.114-1.44-1.98-2.894-2.463-4.205-.498-1.31-.632-2.455-.622-3.232.012-.781.128-1.2.154-1.196.108-.012-.249 1.761.811 4.292.516 1.26 1.372 2.63 2.504 4.052.549.725 1.144 1.497 1.604 2.412a6.53 6.53 0 0 1 .72 3.072 6.835 6.835 0 0 1-.759 3.063c-.468.925-1.183 1.652-1.857 2.257-.674.613-1.306 1.183-1.73 1.833a4.492 4.492 0 0 0-.7 2.014 5.134 5.134 0 0 0 .633 3.049c.38.651.704.94.669.974z" style="fill:#455a64"/><path d="M144.527 131.961c.022-.021.222.138.519.491.3.349.666.92.969 1.693.621 1.533.801 3.959-.086 6.349-.893 2.38-2.399 4.146-3.516 5.312-1.136 1.168-1.925 1.792-1.969 1.746-.056-.057.644-.777 1.697-1.993 1.037-1.216 2.45-2.973 3.3-5.245.84-2.269.73-4.559.227-6.046-.49-1.513-1.224-2.245-1.141-2.307z" style="fill:#455a64"/><path d="M113.627 233.551c-.009.001-.028-.079-.058-.237l-.119-.702-.414-2.703-1.506-9.942a673.85 673.85 0 0 0-2.425-14.711c-.498-2.76-1.03-5.657-1.67-8.639-.307-1.491-.664-3.01-1.041-4.524-.207-.74-.48-1.473-.975-2.017-.491-.545-1.214-.827-1.98-.918-.77-.093-1.565-.043-2.364.009l-2.378.156-4.65.302-8.791.564-14.887.925-10.039.578-2.731.131-.711.021c-.16.002-.243-.002-.243-.011s.081-.023.24-.042l.708-.073 2.725-.229 10.03-.744 14.881-1.036 8.789-.594 4.65-.31 2.378-.158c.794-.052 1.617-.108 2.459-.007.832.095 1.708.424 2.299 1.084.589.652.874 1.462 1.09 2.229.383 1.546.735 3.056 1.041 4.557.635 2.993 1.157 5.895 1.643 8.661a527.028 527.028 0 0 1 2.316 14.74 533.95 533.95 0 0 1 1.342 9.969l.318 2.717.068.708c.012.162.014.245.005.246zM399.249 177.207s.018-.153.077-.446l.274-1.298 1.102-4.984 4.149-18.328 13.906-60.587.246-1.069.242 1.071.305 1.346 13.858 61.554 4.144 18.666 1.102 5.08.274 1.324c.059.299.077.455.077.455s-.051-.148-.127-.443l-.323-1.313-1.193-5.06-4.299-18.631-14.001-61.521-.305-1.347.488.001-14.051 60.553-4.303 18.292-1.193 4.963-.322 1.287c-.076.29-.127.435-.127.435z" style="fill:#263238"/><path d="M399.239 195.201v-15.21h40.58v15.21c0 9.779-7.928 17.707-17.707 17.707h-5.166c-9.779 0-17.707-7.928-17.707-17.707z" style="fill:#455a64"/><path d="M399.239 179.991c.015-.009.173.211.46.639l1.238 1.884 4.472 6.977 14.595 23.12.103.165-.426.004 14.155-23.245 4.335-7.008 1.2-1.892c.279-.43.432-.651.447-.642.015.009-.11.248-.361.694l-1.12 1.94-4.199 7.091-14.029 23.322-.21.348-.216-.345a13.254 13.254 0 0 1-.103-.165l-14.471-23.198-4.338-7.062-1.158-1.934c-.259-.446-.389-.684-.374-.693zM423.558 91.43a4.431 4.431 0 1 1-8.862 0 4.431 4.431 0 0 1 8.862 0z" style="fill:#263238"/><path d="M419.127 16.009c.138 0 .25 17.071.25 38.124 0 21.061-.112 38.128-.25 38.128s-.25-17.067-.25-38.128c0-21.053.112-38.124.25-38.124zM421.426 214.561a1.897 1.897 0 1 1-3.793 0 1.897 1.897 0 0 1 3.793 0z" style="fill:#263238"/><path d="m418.69 215.27.305-.152c-1.107.623-1.744 1.88-1.916 3.139-.172 1.259.059 2.536.325 3.778.085.395.292.887.696.862.364-.022.535-.454.597-.813.129-.751.148-1.52.058-2.276a3.98 3.98 0 0 0 .88 2.685c.119.146.289.296.471.248.172-.046.248-.244.294-.416a8.916 8.916 0 0 0 .286-1.949c.099.565.214 1.164.604 1.585.39.421 1.154.545 1.512.096.239-.3.215-.726.162-1.106a13.065 13.065 0 0 0-2.654-6.232" style="fill:#263238"/><path d="M401.793 179.991s-18.231-21.016-16.205-21.776c2.026-.76 18.231 10.888 18.231 10.888s-13.926-31.145-11.141-33.424 17.472 27.6 17.472 27.6-2.279-43.552 0-44.058c2.279-.507 10.635 43.552 10.635 43.552s12.407-40.26 15.952-40.26-3.798 38.741-3.798 38.741 14.686-24.814 16.965-21.523c2.279 3.292-10.382 30.132-10.382 30.132s18.484-15.446 19.244-13.42c.76 2.026-20.004 23.548-20.004 23.548h-36.969z" style="fill:#e8505b"/><path d="M399.249 148.34c.126-.057 3.36 6.876 7.223 15.483 3.864 8.61 6.893 15.633 6.766 15.689-.126.057-3.359-6.875-7.223-15.484-3.862-8.607-6.892-15.632-6.766-15.688zM413.977 152.213c.138-.01.675 6.101 1.2 13.647.525 7.548.839 13.673.701 13.683-.138.01-.675-6.1-1.2-13.648-.525-7.546-.839-13.672-.701-13.682zM434.293 132.708c.016.006-.021.175-.107.494l-.4 1.385-1.525 5.074a576.839 576.839 0 0 0-4.774 16.808 581.902 581.902 0 0 0-4.235 16.955 9475.23 9475.23 0 0 1-1.206 5.158l-.343 1.4c-.084.319-.136.485-.153.481-.017-.003.002-.176.054-.502l.251-1.419c.226-1.231.584-3.007 1.051-5.196a354.51 354.51 0 0 1 4.097-17.006 355.723 355.723 0 0 1 4.92-16.783c.686-2.13 1.26-3.848 1.677-5.029l.49-1.356c.117-.31.186-.469.203-.464zM443.078 155.158c.113.079-3.445 5.385-7.948 11.85-4.504 6.467-8.246 11.644-8.359 11.565-.113-.079 3.445-5.384 7.949-11.851 4.501-6.465 8.244-11.643 8.358-11.564zM407.946 179.545c-.042.051-.66-.373-1.595-1.139a43.911 43.911 0 0 1-3.469-3.203 43.73 43.73 0 0 1-3.115-3.549c-.742-.954-1.15-1.583-1.098-1.624.116-.091 2.01 2.205 4.572 4.823 2.551 2.626 4.798 4.579 4.705 4.692zM419.019 171.196c.138-.013.427 1.928.647 4.335.22 2.407.286 4.368.148 4.381-.138.012-.427-1.928-.647-4.335-.219-2.407-.286-4.368-.148-4.381z" style="fill:#263238"/><path d="M439.819 189.469c.005.034-.553.148-1.568.325-1.014.179-2.487.409-4.312.661-3.648.504-8.714 1.081-14.34 1.275-5.629.189-10.733-.12-14.39-.601-1.829-.236-3.303-.477-4.311-.693-1.01-.207-1.565-.337-1.558-.371.006-.034.573.032 1.591.179 1.016.157 2.492.343 4.318.534 3.652.389 8.728.64 14.333.452 5.602-.194 10.658-.712 14.313-1.126l4.328-.503c1.023-.117 1.591-.166 1.596-.132zM439.819 193.997c.005.034-.553.148-1.568.325-1.014.179-2.487.408-4.312.661-3.648.504-8.714 1.081-14.34 1.275-5.629.189-10.733-.12-14.39-.601-1.829-.236-3.303-.477-4.311-.693-1.01-.207-1.565-.337-1.558-.371.006-.034.573.032 1.591.179 1.016.157 2.492.343 4.318.534 3.652.389 8.728.64 14.333.452 5.602-.194 10.658-.712 14.313-1.126l4.328-.503c1.023-.117 1.591-.166 1.596-.132z" style="fill:#fff"/></svg>