<?xml version="1.0" encoding="utf-8"?>
<!-- Generator: Adobe Illustrator 27.5.0, SVG Export Plug-In . SVG Version: 6.00 Build 0)  -->
<svg version="1.1" xmlns="http://www.w3.org/2000/svg" xmlns:xlink="http://www.w3.org/1999/xlink" x="0px" y="0px"
	 viewBox="0 0 500 500" style="enable-background:new 0 0 500 500;" xml:space="preserve">
<g id="Background_Simple">
	<g>
		<path style="fill:#C6FF00;" d="M317.705,96.973c0,0-54.339-24.782-112.139,2.189c-57.8,26.971-91.049,87.56-119.286,135.957
			c-28.237,48.396-18.972,100.91,21.01,127.948c39.981,27.038,71.551-4.99,130.64-1.57c59.089,3.419,74.209,13.214,126.013-15.84
			c51.805-29.055,67.481-106.902,33.956-168.407C364.374,115.744,317.705,96.973,317.705,96.973z"/>
		<path style="opacity:0.7;fill:#FFFFFF;" d="M317.705,96.973c0,0-54.339-24.782-112.139,2.189
			c-57.8,26.971-91.049,87.56-119.286,135.957c-28.237,48.396-18.972,100.91,21.01,127.948c39.981,27.038,71.551-4.99,130.64-1.57
			c59.089,3.419,74.209,13.214,126.013-15.84c51.805-29.055,67.481-106.902,33.956-168.407
			C364.374,115.744,317.705,96.973,317.705,96.973z"/>
	</g>
</g>
<g id="Clouds_1_">
	<g>
		<path style="fill:#FFFFFF;" d="M364.013,162.573c-4.46-2.432-6.487-0.405-8.108-2.432c-1.622-2.027,4.46-7.298-7.703-12.568
			c0,0-0.811-11.352-17.433-11.757c-16.622-0.405-12.162,11.352-16.622,14.19c-4.46,2.838-5.676-1.622-10.135,1.216
			c-4.46,2.838-2.433,8.514-6.081,9.325c-3.649,0.811-8.514-3.649-12.973-0.811c-4.46,2.838-4.46,5.27-6.487,5.27
			c-2.027,0-6.081-1.622-8.514,0c-2.432,1.622-5.27,3.649-5.27,3.649h102.57C367.256,168.654,368.472,165.005,364.013,162.573z"/>
		<path style="opacity:0.5;fill:#FFFFFF;" d="M364.013,162.573c-4.46-2.432-6.487-0.405-8.108-2.432
			c-1.622-2.027,4.46-7.298-7.703-12.568c0,0-0.811-11.352-17.433-11.757c-16.622-0.405-12.162,11.352-16.622,14.19
			c-4.46,2.838-5.676-1.622-10.135,1.216c-4.46,2.838-2.433,8.514-6.081,9.325c-3.649,0.811-8.514-3.649-12.973-0.811
			c-4.46,2.838-4.46,5.27-6.487,5.27c-2.027,0-6.081-1.622-8.514,0c-2.432,1.622-5.27,3.649-5.27,3.649h102.57
			C367.256,168.654,368.472,165.005,364.013,162.573z"/>
	</g>
	<g>
		<path style="fill:#FFFFFF;" d="M182.403,223.631c-3.937-2.147-5.727-0.358-7.158-2.147c-1.432-1.79,3.937-6.443-6.8-11.095
			c0,0-0.716-10.021-15.39-10.38c-14.674-0.358-10.737,10.022-14.674,12.527c-3.937,2.505-5.011-1.432-8.948,1.074
			c-3.937,2.505-2.148,7.516-5.369,8.232c-3.221,0.716-7.516-3.221-11.453-0.716c-3.937,2.505-3.937,4.653-5.727,4.653
			c-1.789,0-5.369-1.432-7.516,0C97.22,227.211,94.715,229,94.715,229h90.552C185.266,229,186.34,225.779,182.403,223.631z"/>
		<path style="opacity:0.5;fill:#FFFFFF;" d="M182.403,223.631c-3.937-2.147-5.727-0.358-7.158-2.147
			c-1.432-1.79,3.937-6.443-6.8-11.095c0,0-0.716-10.021-15.39-10.38c-14.674-0.358-10.737,10.022-14.674,12.527
			c-3.937,2.505-5.011-1.432-8.948,1.074c-3.937,2.505-2.148,7.516-5.369,8.232c-3.221,0.716-7.516-3.221-11.453-0.716
			c-3.937,2.505-3.937,4.653-5.727,4.653c-1.789,0-5.369-1.432-7.516,0C97.22,227.211,94.715,229,94.715,229h90.552
			C185.266,229,186.34,225.779,182.403,223.631z"/>
	</g>
	<g>
		<path style="fill:#FFFFFF;" d="M166.094,279.038c-2.172-1.185-3.16-0.197-3.949-1.185c-0.79-0.987,2.172-3.555-3.752-6.122
			c0,0-0.395-5.529-8.491-5.727c-8.096-0.197-5.924,5.529-8.096,6.911c-2.172,1.382-2.764-0.79-4.937,0.592
			c-2.172,1.382-1.185,4.147-2.962,4.542c-1.777,0.395-4.147-1.777-6.319-0.395c-2.172,1.382-2.172,2.567-3.16,2.567
			c-0.987,0-2.962-0.79-4.147,0c-1.185,0.79-2.567,1.777-2.567,1.777h49.96C167.674,282,168.266,280.223,166.094,279.038z"/>
		<path style="opacity:0.5;fill:#FFFFFF;" d="M166.094,279.038c-2.172-1.185-3.16-0.197-3.949-1.185
			c-0.79-0.987,2.172-3.555-3.752-6.122c0,0-0.395-5.529-8.491-5.727c-8.096-0.197-5.924,5.529-8.096,6.911
			c-2.172,1.382-2.764-0.79-4.937,0.592c-2.172,1.382-1.185,4.147-2.962,4.542c-1.777,0.395-4.147-1.777-6.319-0.395
			c-2.172,1.382-2.172,2.567-3.16,2.567c-0.987,0-2.962-0.79-4.147,0c-1.185,0.79-2.567,1.777-2.567,1.777h49.96
			C167.674,282,168.266,280.223,166.094,279.038z"/>
	</g>
</g>
<g id="Mountain">
	<g>
		<path style="fill:#C6FF00;" d="M237.93,361.496c59.089,3.419,74.209,13.214,126.013-15.84
			c33.435-18.752,51.814-57.829,51.636-99.718L397,268l-60-61l-65,100l-31-28l-43,82l0.975,2.97
			C210.665,361.947,223.472,360.659,237.93,361.496z"/>
		<path style="opacity:0.5;fill:#FFFFFF;" d="M237.93,361.496c59.089,3.419,74.209,13.214,126.013-15.84
			c33.435-18.752,51.814-57.829,51.636-99.718L397,268l-60-61l-65,100l-31-28l-43,82l0.975,2.97
			C210.665,361.947,223.472,360.659,237.93,361.496z"/>
	</g>
</g>
<g id="Plants">
	<g>
		<path style="fill:#263238;" d="M341.055,347.603c-1.833-0.553-3.195,1.875-3.534,3.354c-0.282,1.229-0.559,3.072-0.623,3.504
			c-0.018-0.028-0.035-0.056-0.053-0.084c0.02-0.032,0.031-0.049,0.031-0.049c-0.009,0.014-0.024,0.027-0.037,0.04
			c-0.799-1.257-1.713-2.333-2.665-3.265c0.2-0.492,1.371-1.395,1.625-1.618c1.053-0.926,2.094-1.733,2.42-3.171
			c0.258-1.138,0.075-2.561-1.333-2.699c-1.905-0.187-2.771,2.459-2.817,3.975c-0.036,1.191,0.038,2.918,0.064,3.473
			c-0.921-0.897-1.875-1.663-2.793-2.332c0.172-0.569,0.954-1.59,1.128-1.849c0.781-1.164,1.581-2.211,1.529-3.684
			c-0.041-1.166-0.582-2.495-1.979-2.269c-1.89,0.306-2.05,3.086-1.707,4.564c0.24,1.037,0.676,2.465,0.885,3.135
			c-0.747-0.538-1.467-1.015-2.121-1.447c-0.692-0.457-1.306-0.864-1.807-1.247c0.066-0.06,0.104-0.095,0.104-0.095
			c-0.032,0.03-0.082,0.051-0.14,0.067c-0.009-0.007-0.017-0.013-0.026-0.02c0.104-0.52,1.09-1.625,1.298-1.892
			c0.864-1.104,1.738-2.089,1.793-3.563c0.044-1.166-0.399-2.531-1.808-2.407c-1.907,0.168-2.269,2.928-2.035,4.427
			c0.184,1.174,0.574,2.854,0.703,3.398c-0.084-0.066-0.165-0.131-0.242-0.196c-1.022-0.862-1.947-1.807-2.702-2.648
			c0.075-0.04,0.12-0.064,0.121-0.064c-0.038,0.021-0.091,0.029-0.151,0.031c-0.03-0.034-0.061-0.068-0.091-0.101
			c0.085-0.593,0.685-1.712,0.814-1.994c0.583-1.275,1.204-2.437,0.915-3.883c-0.229-1.144-0.977-2.368-2.319-1.92
			c-1.815,0.607-1.525,3.376-0.949,4.779c0.354,0.861,0.902,1.991,1.245,2.682c-0.543-0.628-0.97-1.169-1.245-1.528
			c0.004,0.002,0.007,0.003,0.007,0.003c-0.003-0.001-0.006-0.004-0.009-0.006c-0.133-0.175-0.231-0.307-0.288-0.385
			c-0.271-0.578-0.486-1.6-0.56-1.867c-0.373-1.351-0.644-2.64-1.796-3.562c-0.911-0.729-2.271-1.186-3.01,0.02
			c-1,1.632,1.002,3.566,2.346,4.271c0.946,0.496,2.319,1.1,2.961,1.377c0.267,0.358,0.869,1.145,1.699,2.083
			c-0.618-0.134-1.601-0.635-1.864-0.749c-1.286-0.558-2.46-1.156-3.9-0.839c-1.139,0.251-2.349,1.023-1.874,2.356
			c0.642,1.803,3.405,1.459,4.797,0.855c1.008-0.438,2.388-1.154,2.981-1.467c0.766,0.856,1.708,1.822,2.752,2.702
			c0.057,0.048,0.118,0.097,0.179,0.146c-0.629,0.028-1.725-0.22-2.01-0.266c-1.384-0.224-2.669-0.515-3.986,0.147
			c-1.042,0.524-2.024,1.57-1.237,2.745c1.066,1.59,3.659,0.576,4.86-0.352c0.868-0.671,2.027-1.704,2.527-2.154
			c0.512,0.393,1.138,0.808,1.845,1.275c0.712,0.47,1.502,0.993,2.32,1.592c0.001,0.004,0.002,0.006,0.003,0.01
			c-0.326,0.292-2.04-0.104-2.407-0.163c-1.384-0.224-2.669-0.515-3.986,0.147c-1.042,0.524-2.025,1.57-1.237,2.745
			c1.066,1.59,3.66,0.576,4.86-0.352c1.12-0.866,2.725-2.334,2.771-2.376c0.012,0.038,0.021,0.064,0.021,0.064
			c-0.006-0.018-0.007-0.041-0.008-0.063c0.893,0.655,1.819,1.404,2.712,2.276c-0.466,0.277-1.913,0.336-2.245,0.371
			c-1.394,0.147-2.71,0.203-3.808,1.188c-0.868,0.779-1.542,2.046-0.473,2.973c1.446,1.254,3.682-0.404,4.597-1.615
			c0.725-0.959,1.674-2.43,1.964-2.884c0.939,0.922,1.839,1.983,2.626,3.222c-0.53,0.244-1.855,0.299-2.171,0.332
			c-1.394,0.147-2.71,0.203-3.808,1.188c-0.868,0.779-1.542,2.046-0.473,2.973c1.446,1.254,3.682-0.404,4.597-1.615
			c0.683-0.904,1.566-2.263,1.908-2.796c0.929,1.481,1.696,3.211,2.17,5.261l0.184-0.043c-0.477-2.061-1.246-3.803-2.176-5.293
			c0.209-0.442,1.636-1.151,1.941-1.328c1.212-0.704,2.39-1.294,2.989-2.642C342.313,349.443,342.409,348.012,341.055,347.603z"/>
		<path style="fill:#FFFFFF;" d="M321.951,348.932c-1.094,1.012-1.274,2.331-1.552,3.72c-0.063,0.315-0.243,1.643-0.538,2.153
			c-1.173-0.908-2.156-1.914-2.995-2.945c0.484-0.249,2.052-1.066,3.085-1.706c1.304-0.807,3.182-2.902,2.056-4.474
			c-0.832-1.162-2.171-0.603-3.036,0.197c-1.094,1.012-1.274,2.331-1.552,3.72c-0.066,0.331-0.261,1.782-0.583,2.224
			c-0.794-0.98-1.461-1.982-2.036-2.942c0.022,0.003,0.045,0.006,0.063,0.014c0,0-0.026-0.011-0.063-0.027
			c0.046-0.042,1.674-1.52,2.65-2.565c1.046-1.121,2.31-3.635,0.81-4.857c-1.108-0.903-2.253-0.013-2.878,0.987
			c-0.79,1.264-0.618,2.584-0.522,3.997c0.025,0.375,0.263,2.137-0.061,2.438c-0.003-0.001-0.006-0.003-0.009-0.004
			c-0.526-0.879-0.978-1.723-1.384-2.484c-0.404-0.755-0.763-1.425-1.11-1.977c0.5-0.46,1.648-1.53,2.405-2.34
			c1.046-1.121,2.309-3.635,0.81-4.857c-1.108-0.903-2.253-0.013-2.878,0.987c-0.79,1.264-0.618,2.584-0.522,3.997
			c0.02,0.292,0.167,1.418,0.079,2.048c-0.043-0.066-0.086-0.131-0.13-0.193c-0.787-1.133-1.671-2.172-2.46-3.022
			c0.37-0.567,1.22-1.888,1.755-2.862c0.738-1.344,1.343-4.091-0.411-4.907c-1.296-0.602-2.187,0.542-2.546,1.665
			c-0.454,1.419,0.037,2.656,0.478,4.003c0.09,0.275,0.502,1.312,0.579,1.946c-0.867-0.923-1.601-1.603-1.937-1.904
			c-0.219-0.672-0.698-2.11-1.108-3.109c-0.582-1.418-2.341-3.614-4.077-2.761c-1.283,0.631-0.951,2.042-0.302,3.027
			c0.819,1.245,2.091,1.639,3.416,2.141c0.262,0.099,1.271,0.412,1.827,0.739c0.073,0.064,0.197,0.175,0.36,0.326
			c0.001,0.003,0.004,0.007,0.005,0.01c0,0-0.001-0.003-0.002-0.007c0.336,0.31,0.839,0.791,1.42,1.396
			c-0.663-0.41-1.748-1.067-2.581-1.504c-1.358-0.712-4.117-1.263-4.898,0.507c-0.577,1.308,0.585,2.176,1.715,2.513
			c1.428,0.427,2.655-0.089,3.993-0.556c0.296-0.103,1.478-0.602,2.083-0.632c0.031,0.033,0.062,0.067,0.094,0.101
			c-0.008,0.06-0.021,0.112-0.045,0.149c0,0,0.029-0.044,0.076-0.115c0.776,0.838,1.64,1.858,2.411,2.967
			c0.058,0.083,0.116,0.171,0.174,0.262c-0.535-0.181-2.188-0.731-3.353-1.026c-1.486-0.376-4.298-0.271-4.645,1.633
			c-0.257,1.406,1.075,1.98,2.252,2.045c1.488,0.083,2.562-0.705,3.754-1.47c0.288-0.185,1.493-1.073,2.025-1.129
			c0.006,0.009,0.012,0.019,0.018,0.028c-0.022,0.057-0.048,0.105-0.081,0.135c0,0,0.039-0.035,0.105-0.096
			c0.339,0.54,0.69,1.197,1.085,1.935c0.374,0.699,0.785,1.468,1.257,2.27c-0.655-0.274-2.051-0.845-3.071-1.185
			c-1.455-0.483-4.267-0.583-4.752,1.29c-0.358,1.384,0.928,2.053,2.097,2.204c1.478,0.191,2.606-0.516,3.851-1.193
			c0.277-0.151,1.378-0.842,1.966-0.962c0.587,0.987,1.268,2.018,2.085,3.029c-0.556-0.078-2.287-0.315-3.488-0.39
			c-1.53-0.095-4.274,0.527-4.264,2.462c0.007,1.429,1.422,1.747,2.591,1.594c1.478-0.194,2.387-1.165,3.418-2.138
			c0.249-0.235,1.267-1.328,1.78-1.483c0.849,1.046,1.846,2.066,3.036,2.988c-0.015,0.012-0.029,0.026-0.044,0.034
			c0,0,0.019-0.009,0.053-0.027c0.027,0.02,0.053,0.041,0.079,0.061c-0.44,0.023-2.321,0.129-3.584,0.298
			c-1.52,0.203-4.091,1.346-3.706,3.242c0.284,1.401,1.734,1.438,2.851,1.062c1.412-0.476,2.116-1.606,2.938-2.76
			c0.207-0.29,1.054-1.66,1.518-1.828c1.412,1.076,3.092,2.013,5.121,2.686l0.06-0.181c-2.018-0.669-3.687-1.603-5.09-2.677
			c0.568-0.294,2.018-1.055,2.992-1.657c1.304-0.807,3.182-2.902,2.056-4.474C324.154,347.573,322.816,348.131,321.951,348.932z"/>
		<path style="fill:#FFFFFF;" d="M104.785,348c-2.842-0.566-5.124,0.656-7.628,1.804c-0.568,0.26-2.864,1.494-4.003,1.612
			c0.091-2.882,0.551-5.578,1.215-8.076c0.944,0.477,4.021,2.013,6.207,2.909c2.758,1.131,8.2,1.696,9.389-1.873
			c0.879-2.637-1.528-4.105-3.777-4.553c-2.842-0.566-5.124,0.656-7.628,1.804c-0.597,0.274-3.102,1.623-4.167,1.621
			c0.636-2.369,1.451-4.562,2.306-6.564c0.02,0.039,0.041,0.078,0.05,0.115c0-0.001-0.012-0.053-0.03-0.13
			c0.118,0.025,4.303,0.9,7.063,1.243c2.958,0.367,8.357-0.515,8.569-4.27c0.156-2.775-2.552-3.56-4.839-3.402
			c-2.891,0.199-4.772,1.977-6.887,3.742c-0.562,0.469-3.063,2.853-3.906,2.687c-0.002-0.007-0.003-0.012-0.005-0.02
			c0.783-1.832,1.596-3.506,2.329-5.014c0.728-1.498,1.372-2.827,1.843-4.004c1.296,0.262,4.29,0.847,6.429,1.113
			c2.958,0.367,8.357-0.515,8.569-4.27c0.156-2.775-2.552-3.56-4.839-3.402c-2.891,0.199-4.772,1.977-6.887,3.742
			c-0.436,0.364-2.041,1.881-3.132,2.463c0.054-0.143,0.108-0.286,0.156-0.425c0.883-2.532,1.51-5.109,1.948-7.323
			c1.316-0.065,4.365-0.235,6.508-0.504c2.958-0.372,7.973-2.557,7.254-6.248c-0.532-2.728-3.35-2.822-5.528-2.106
			c-2.753,0.905-4.138,3.091-5.754,5.323c-0.33,0.456-1.491,2.288-2.401,3.133c0.463-2.418,0.694-4.35,0.786-5.223
			c0.808-1.111,2.525-3.508,3.628-5.293c1.567-2.536,3.016-7.811-0.309-9.569c-2.457-1.299-4.3,0.835-5.11,2.98
			c-1.024,2.711-0.192,5.162,0.53,7.82c0.143,0.526,0.802,2.47,0.923,3.718c-0.018,0.187-0.051,0.51-0.102,0.938
			c-0.004,0.005-0.006,0.014-0.009,0.019c0,0,0.003-0.004,0.009-0.011c-0.105,0.882-0.286,2.223-0.575,3.829
			c-0.112-1.511-0.316-3.971-0.58-5.78c-0.43-2.95-2.712-7.922-6.389-7.13c-2.717,0.585-2.756,3.404-1.998,5.568
			c0.959,2.735,3.172,4.077,5.434,5.649c0.5,0.348,2.635,1.639,3.372,2.557c-0.017,0.086-0.034,0.174-0.052,0.262
			c-0.103,0.056-0.2,0.095-0.285,0.099c0.001,0,0.102-0.004,0.268-0.012c-0.434,2.178-1.051,4.702-1.916,7.183
			c-0.065,0.186-0.137,0.378-0.213,0.574c-0.326-1.049-1.347-4.279-2.212-6.449c-1.105-2.769-4.481-7.073-7.873-5.448
			c-2.506,1.201-1.889,3.952-0.647,5.88c1.569,2.436,4.034,3.227,6.599,4.229c0.62,0.242,3.393,1.124,4.089,1.898
			c-0.008,0.02-0.016,0.04-0.024,0.06c-0.115,0.03-0.22,0.044-0.304,0.026c0.001,0,0.099,0.021,0.271,0.056
			c-0.464,1.15-1.095,2.452-1.808,3.917c-0.673,1.385-1.413,2.912-2.137,4.569c-0.317-1.343-1.011-4.193-1.642-6.186
			c-0.9-2.842-3.954-7.381-7.456-6.006c-2.587,1.016-2.171,3.804-1.074,5.817c1.387,2.544,3.788,3.512,6.274,4.698
			c0.554,0.264,2.898,1.206,3.759,1.997c-0.883,2.051-1.729,4.3-2.388,6.74c-0.51-0.964-2.115-3.959-3.368-5.936
			c-1.597-2.517-5.71-6.125-8.743-3.901c-2.241,1.643-1.127,4.233,0.449,5.898c1.992,2.105,4.56,2.427,7.267,2.938
			c0.653,0.123,3.536,0.478,4.367,1.109c-0.676,2.531-1.144,5.264-1.236,8.189c-0.036-0.009-0.074-0.016-0.103-0.031
			c0.001,0,0.037,0.019,0.103,0.052c-0.002,0.065-0.004,0.13-0.006,0.195c-0.54-0.667-2.853-3.506-4.56-5.3
			c-2.055-2.16-6.789-4.902-9.334-2.132c-1.88,2.046-0.284,4.371,1.584,5.699c2.362,1.679,4.944,1.497,7.698,1.474
			c0.693-0.006,3.815-0.236,4.61,0.302c-0.082,3.451,0.362,7.165,1.619,11.127l0.353-0.112c-1.25-3.94-1.686-7.634-1.598-11.068
			c1.111,0.559,3.964,1.972,6.024,2.817c2.758,1.131,8.2,1.696,9.389-1.873C109.44,349.916,107.033,348.448,104.785,348z"/>
		<path style="fill:#FFFFFF;" d="M160.067,371.739c-2.325-0.463-4.192,0.537-6.241,1.476c-0.465,0.213-2.343,1.223-3.275,1.319
			c0.074-2.358,0.451-4.564,0.994-6.608c0.772,0.39,3.29,1.647,5.078,2.38c2.257,0.925,6.709,1.387,7.682-1.532
			c0.719-2.157-1.25-3.359-3.09-3.725c-2.325-0.463-4.192,0.537-6.241,1.476c-0.489,0.224-2.538,1.328-3.41,1.326
			c0.52-1.939,1.187-3.732,1.886-5.37c0.016,0.032,0.034,0.064,0.041,0.094c0,0-0.01-0.043-0.024-0.106
			c0.097,0.02,3.521,0.736,5.779,1.017c2.42,0.301,6.838-0.421,7.011-3.494c0.128-2.27-2.088-2.913-3.959-2.784
			c-2.365,0.163-3.904,1.618-5.635,3.062c-0.46,0.383-2.506,2.334-3.196,2.198c-0.001-0.006-0.002-0.01-0.004-0.016
			c0.641-1.499,1.306-2.869,1.905-4.102c0.596-1.226,1.122-2.313,1.508-3.276c1.06,0.214,3.51,0.693,5.26,0.91
			c2.42,0.301,6.838-0.421,7.011-3.494c0.128-2.27-2.088-2.913-3.959-2.784c-2.365,0.163-3.904,1.618-5.635,3.061
			c-0.357,0.298-1.67,1.539-2.563,2.015c0.045-0.117,0.088-0.234,0.128-0.348c0.723-2.072,1.236-4.18,1.594-5.991
			c1.076-0.053,3.572-0.192,5.325-0.413c2.42-0.305,6.523-2.092,5.935-5.112c-0.435-2.232-2.741-2.309-4.522-1.723
			c-2.252,0.74-3.386,2.529-4.708,4.355c-0.27,0.373-1.22,1.872-1.965,2.564c0.379-1.978,0.568-3.559,0.643-4.273
			c0.661-0.909,2.066-2.87,2.968-4.33c1.282-2.075,2.467-6.391-0.253-7.829c-2.01-1.063-3.518,0.683-4.181,2.438
			c-0.838,2.218-0.157,4.223,0.434,6.398c0.117,0.43,0.656,2.021,0.755,3.042c-0.015,0.153-0.042,0.417-0.083,0.768
			c-0.003,0.005-0.005,0.011-0.008,0.016c0,0,0.002-0.003,0.007-0.009c-0.086,0.722-0.234,1.819-0.471,3.133
			c-0.091-1.236-0.259-3.249-0.475-4.729c-0.352-2.414-2.219-6.481-5.227-5.834c-2.223,0.479-2.255,2.785-1.635,4.555
			c0.784,2.237,2.595,3.336,4.446,4.622c0.41,0.285,2.156,1.341,2.759,2.092c-0.014,0.071-0.028,0.143-0.042,0.215
			c-0.084,0.046-0.164,0.078-0.233,0.081c0.001,0,0.084-0.004,0.22-0.01c-0.355,1.782-0.86,3.847-1.568,5.876
			c-0.053,0.152-0.112,0.309-0.174,0.469c-0.267-0.858-1.102-3.501-1.81-5.276c-0.904-2.265-3.666-5.787-6.441-4.457
			c-2.051,0.983-1.545,3.234-0.53,4.811c1.283,1.993,3.3,2.64,5.399,3.46c0.507,0.198,2.776,0.92,3.346,1.553
			c-0.006,0.016-0.013,0.033-0.02,0.049c-0.094,0.024-0.18,0.036-0.249,0.022c0.001,0,0.081,0.017,0.222,0.046
			c-0.38,0.941-0.896,2.006-1.479,3.205c-0.551,1.133-1.157,2.382-1.748,3.738c-0.259-1.099-0.827-3.43-1.343-5.061
			c-0.736-2.325-3.235-6.039-6.1-4.914c-2.117,0.831-1.776,3.113-0.879,4.759c1.135,2.082,3.099,2.874,5.133,3.844
			c0.453,0.216,2.371,0.987,3.075,1.634c-0.722,1.678-1.415,3.518-1.954,5.514c-0.418-0.789-1.73-3.239-2.756-4.856
			c-1.306-2.06-4.671-5.011-7.153-3.191c-1.834,1.344-0.922,3.463,0.367,4.826c1.629,1.722,3.731,1.986,5.945,2.404
			c0.534,0.101,2.893,0.391,3.573,0.907c-0.553,2.07-0.936,4.307-1.012,6.7c-0.029-0.008-0.061-0.013-0.085-0.025
			c0,0,0.03,0.015,0.084,0.043c-0.002,0.053-0.003,0.106-0.005,0.159c-0.441-0.546-2.335-2.868-3.731-4.336
			c-1.681-1.767-5.554-4.01-7.636-1.744c-1.538,1.674-0.233,3.576,1.296,4.663c1.932,1.374,4.045,1.225,6.298,1.206
			c0.567-0.005,3.121-0.193,3.772,0.247c-0.067,2.824,0.296,5.862,1.325,9.104l0.289-0.091c-1.023-3.223-1.38-6.246-1.307-9.055
			c0.909,0.457,3.243,1.613,4.929,2.305c2.257,0.925,6.709,1.387,7.682-1.532C163.876,373.306,161.906,372.105,160.067,371.739z"/>
		<path style="fill:#FFFFFF;" d="M152.795,371.145c-2.042,1.205-2.767,3.194-3.668,5.26c-0.204,0.469-0.932,2.473-1.562,3.167
			c-1.516-1.807-2.706-3.702-3.663-5.588c0.836-0.224,3.551-0.965,5.372-1.611c2.299-0.815,5.926-3.438,4.705-6.262
			c-0.902-2.087-3.171-1.67-4.786-0.717c-2.042,1.205-2.767,3.194-3.668,5.26c-0.215,0.492-1.007,2.682-1.658,3.261
			c-0.904-1.792-1.603-3.574-2.173-5.26c0.033,0.013,0.068,0.025,0.093,0.043c0,0-0.036-0.025-0.089-0.063
			c0.086-0.049,3.115-1.798,4.986-3.094c2.005-1.389,4.816-4.872,2.897-7.277c-1.418-1.777-3.498-0.78-4.807,0.564
			c-1.654,1.698-1.832,3.809-2.16,6.038c-0.087,0.592-0.312,3.41-0.917,3.769c-0.005-0.003-0.008-0.006-0.013-0.009
			c-0.521-1.544-0.939-3.009-1.314-4.328c-0.373-1.311-0.705-2.472-1.06-3.447c0.933-0.547,3.078-1.823,4.528-2.827
			c2.005-1.389,4.816-4.872,2.897-7.277c-1.418-1.777-3.498-0.78-4.807,0.564c-1.654,1.698-1.832,3.809-2.16,6.038
			c-0.068,0.46-0.219,2.26-0.567,3.21c-0.045-0.117-0.09-0.233-0.136-0.344c-0.842-2.026-1.865-3.94-2.805-5.528
			c0.767-0.757,2.534-2.524,3.694-3.857c1.601-1.84,3.469-5.908,1.016-7.767c-1.812-1.374-3.582,0.105-4.52,1.73
			c-1.185,2.053-0.838,4.142-0.607,6.384c0.047,0.458,0.338,2.209,0.244,3.221c-1.036-1.727-1.949-3.032-2.369-3.614
			c-0.113-1.118-0.373-3.516-0.674-5.207c-0.427-2.401-2.42-6.409-5.407-5.667c-2.207,0.548-2.167,2.854-1.491,4.604
			c0.854,2.212,2.698,3.253,4.588,4.48c0.374,0.243,1.836,1.069,2.59,1.764c0.091,0.124,0.247,0.339,0.45,0.628
			c0.001,0.005,0.004,0.012,0.005,0.017c0,0,0-0.004-0.001-0.012c0.417,0.595,1.038,1.512,1.737,2.649
			c-0.892-0.861-2.358-2.249-3.506-3.209c-1.871-1.565-5.974-3.353-7.785-0.864c-1.338,1.838,0.175,3.579,1.818,4.485
			c2.076,1.145,4.158,0.757,6.395,0.482c0.495-0.061,2.501-0.437,3.451-0.279c0.037,0.062,0.074,0.125,0.111,0.188
			c-0.032,0.09-0.07,0.167-0.12,0.216c0.001,0,0.06-0.058,0.157-0.154c0.923,1.565,1.923,3.441,2.748,5.426
			c0.062,0.149,0.123,0.305,0.183,0.466c-0.771-0.462-3.155-1.875-4.866-2.727c-2.184-1.086-6.59-1.87-7.773,0.971
			c-0.873,2.099,1.004,3.44,2.812,3.939c2.286,0.631,4.22-0.231,6.331-1.019c0.51-0.19,2.682-1.165,3.529-1.072
			c0.006,0.016,0.012,0.033,0.018,0.049c-0.054,0.081-0.11,0.147-0.171,0.182c0.001,0,0.072-0.041,0.196-0.114
			c0.344,0.954,0.669,2.093,1.034,3.375c0.345,1.212,0.726,2.547,1.189,3.952c-0.926-0.646-2.903-2.006-4.375-2.878
			c-2.099-1.242-6.437-2.345-7.823,0.403c-1.024,2.03,0.75,3.504,2.517,4.133c2.234,0.795,4.226,0.076,6.389-0.556
			c0.482-0.141,2.426-0.845,3.382-0.832c0.58,1.732,1.291,3.566,2.219,5.413c-0.837-0.309-3.449-1.262-5.291-1.783
			c-2.347-0.665-6.822-0.622-7.46,2.389c-0.471,2.224,1.621,3.196,3.49,3.352c2.363,0.198,4.105-1.006,6.034-2.171
			c0.466-0.281,2.418-1.637,3.268-1.705c0.968,1.912,2.173,3.834,3.712,5.669c-0.027,0.014-0.054,0.031-0.08,0.038
			c0.001,0,0.032-0.008,0.091-0.024c0.034,0.041,0.068,0.081,0.103,0.122c-0.693-0.112-3.652-0.582-5.672-0.746
			c-2.431-0.197-6.813,0.713-6.855,3.79c-0.031,2.273,2.21,2.821,4.074,2.612c2.356-0.264,3.832-1.783,5.499-3.299
			c0.419-0.381,2.198-2.225,2.977-2.33c1.832,2.15,4.128,4.173,7.056,5.904l0.154-0.261c-2.911-1.721-5.191-3.736-7.01-5.879
			c0.982-0.265,3.493-0.959,5.21-1.567c2.299-0.815,5.926-3.438,4.705-6.262C156.679,369.775,154.41,370.192,152.795,371.145z"/>
		<path style="fill:#263238;" d="M119.86,361.233c-2.842-0.566-5.124,0.656-7.628,1.804c-0.568,0.26-2.864,1.494-4.003,1.613
			c0.091-2.882,0.551-5.578,1.215-8.076c0.944,0.477,4.021,2.013,6.207,2.909c2.758,1.131,8.2,1.696,9.389-1.873
			c0.879-2.637-1.528-4.105-3.777-4.553c-2.842-0.566-5.124,0.656-7.628,1.804c-0.597,0.274-3.102,1.623-4.168,1.621
			c0.636-2.369,1.451-4.561,2.306-6.564c0.02,0.039,0.041,0.078,0.05,0.115c0,0-0.012-0.053-0.03-0.13
			c0.118,0.025,4.303,0.9,7.063,1.243c2.958,0.367,8.357-0.515,8.569-4.27c0.156-2.775-2.552-3.56-4.839-3.402
			c-2.891,0.199-4.772,1.977-6.887,3.742c-0.562,0.469-3.063,2.853-3.906,2.687c-0.002-0.007-0.003-0.012-0.005-0.02
			c0.783-1.832,1.596-3.506,2.328-5.014c0.728-1.498,1.372-2.827,1.843-4.004c1.295,0.262,4.29,0.847,6.429,1.113
			c2.958,0.367,8.357-0.515,8.569-4.27c0.156-2.775-2.552-3.56-4.839-3.402c-2.891,0.199-4.772,1.977-6.887,3.742
			c-0.437,0.364-2.042,1.881-3.132,2.463c0.054-0.143,0.108-0.286,0.156-0.425c0.883-2.532,1.51-5.109,1.948-7.323
			c1.316-0.065,4.365-0.235,6.508-0.504c2.958-0.372,7.973-2.557,7.254-6.249c-0.532-2.728-3.35-2.822-5.528-2.106
			c-2.753,0.905-4.138,3.091-5.754,5.323c-0.33,0.456-1.491,2.288-2.401,3.133c0.463-2.418,0.694-4.35,0.786-5.223
			c0.808-1.111,2.525-3.508,3.628-5.293c1.567-2.536,3.016-7.811-0.309-9.569c-2.457-1.299-4.3,0.835-5.11,2.98
			c-1.024,2.711-0.192,5.162,0.53,7.82c0.143,0.526,0.802,2.47,0.923,3.718c-0.018,0.187-0.051,0.51-0.102,0.938
			c-0.004,0.005-0.006,0.014-0.009,0.019c0,0,0.003-0.004,0.008-0.012c-0.105,0.882-0.286,2.223-0.576,3.829
			c-0.112-1.511-0.316-3.971-0.58-5.78c-0.43-2.95-2.712-7.922-6.389-7.13c-2.717,0.585-2.757,3.404-1.998,5.568
			c0.959,2.735,3.172,4.077,5.434,5.649c0.5,0.348,2.635,1.639,3.372,2.557c-0.017,0.087-0.034,0.175-0.052,0.262
			c-0.103,0.056-0.2,0.095-0.285,0.099c0.001,0,0.102-0.004,0.268-0.012c-0.434,2.178-1.051,4.702-1.917,7.183
			c-0.065,0.186-0.137,0.378-0.213,0.574c-0.326-1.049-1.347-4.279-2.213-6.449c-1.105-2.769-4.481-7.073-7.873-5.448
			c-2.506,1.201-1.888,3.952-0.647,5.88c1.569,2.437,4.034,3.227,6.599,4.229c0.62,0.242,3.393,1.124,4.089,1.898
			c-0.008,0.02-0.016,0.04-0.024,0.06c-0.115,0.03-0.22,0.044-0.304,0.026c0.001,0,0.099,0.021,0.271,0.056
			c-0.464,1.15-1.095,2.452-1.808,3.917c-0.673,1.385-1.413,2.912-2.137,4.569c-0.317-1.343-1.01-4.193-1.642-6.186
			c-0.9-2.842-3.954-7.381-7.455-6.006c-2.587,1.016-2.171,3.804-1.074,5.817c1.387,2.544,3.788,3.512,6.274,4.698
			c0.554,0.264,2.898,1.206,3.759,1.997c-0.882,2.05-1.729,4.3-2.388,6.74c-0.51-0.964-2.115-3.959-3.368-5.936
			c-1.597-2.518-5.71-6.125-8.743-3.901c-2.241,1.643-1.127,4.233,0.449,5.898c1.992,2.105,4.56,2.427,7.267,2.938
			c0.653,0.123,3.536,0.478,4.367,1.109c-0.676,2.53-1.144,5.264-1.237,8.189c-0.035-0.009-0.074-0.016-0.103-0.031
			c0.001,0,0.036,0.019,0.103,0.052c-0.002,0.065-0.004,0.13-0.006,0.195c-0.54-0.667-2.854-3.506-4.561-5.3
			c-2.054-2.16-6.789-4.901-9.334-2.132c-1.88,2.047-0.285,4.371,1.584,5.699c2.362,1.679,4.944,1.497,7.698,1.474
			c0.693-0.006,3.815-0.236,4.61,0.302c-0.082,3.451,0.362,7.165,1.619,11.127l0.353-0.112c-1.25-3.94-1.686-7.634-1.598-11.068
			c1.111,0.559,3.964,1.972,6.024,2.817c2.758,1.131,8.2,1.696,9.389-1.873C124.515,363.149,122.108,361.68,119.86,361.233z"/>
		<path style="fill:#263238;" d="M137.3,368.805c-0.981-1.654-2.596-2.238-4.273-2.965c-0.38-0.165-2.008-0.751-2.571-1.261
			c1.463-1.233,2.998-2.202,4.525-2.982c0.184,0.677,0.79,2.878,1.317,4.354c0.665,1.863,2.799,4.799,5.088,3.804
			c1.691-0.736,1.348-2.575,0.572-3.883c-0.981-1.654-2.596-2.238-4.273-2.965c-0.4-0.173-2.177-0.811-2.648-1.338
			c1.452-0.737,2.895-1.307,4.262-1.773c-0.01,0.027-0.02,0.055-0.035,0.076c0,0,0.021-0.029,0.051-0.072
			c0.04,0.069,1.464,2.523,2.519,4.038c1.131,1.623,3.96,3.897,5.908,2.336c1.439-1.153,0.626-2.838-0.467-3.897
			c-1.38-1.338-3.092-1.478-4.901-1.74c-0.48-0.069-2.766-0.246-3.058-0.737c0.003-0.004,0.005-0.007,0.008-0.011
			c1.251-0.426,2.438-0.767,3.507-1.074c1.062-0.305,2.004-0.577,2.794-0.866c0.445,0.756,1.484,2.493,2.302,3.667
			c1.131,1.623,3.96,3.897,5.908,2.336c1.439-1.153,0.626-2.838-0.467-3.897c-1.38-1.338-3.092-1.478-4.901-1.74
			c-0.373-0.054-1.834-0.174-2.605-0.454c0.095-0.037,0.189-0.074,0.279-0.111c1.642-0.687,3.192-1.52,4.478-2.286
			c0.616,0.621,2.052,2.051,3.135,2.989c1.495,1.295,4.798,2.802,6.301,0.809c1.111-1.472-0.092-2.905-1.412-3.662
			c-1.667-0.957-3.361-0.672-5.179-0.48c-0.371,0.039-1.791,0.279-2.612,0.204c1.398-0.844,2.455-1.586,2.927-1.928
			c0.907-0.094,2.851-0.309,4.221-0.556c1.947-0.351,5.193-1.975,4.586-4.396c-0.449-1.789-2.319-1.752-3.737-1.201
			c-1.792,0.697-2.633,2.194-3.625,3.73c-0.196,0.304-0.863,1.491-1.426,2.104c-0.1,0.074-0.274,0.201-0.508,0.366
			c-0.004,0.001-0.009,0.004-0.014,0.004c0,0,0.004,0,0.009-0.001c-0.482,0.34-1.224,0.845-2.145,1.414
			c0.696-0.725,1.82-1.917,2.596-2.85c1.265-1.52,2.707-4.852,0.686-6.316c-1.493-1.082-2.903,0.149-3.634,1.483
			c-0.925,1.686-0.606,3.374-0.378,5.187c0.05,0.401,0.359,2.027,0.233,2.798c-0.05,0.03-0.101,0.06-0.152,0.091
			c-0.073-0.026-0.136-0.056-0.175-0.097c0,0,0.048,0.049,0.125,0.127c-1.268,0.752-2.787,1.566-4.395,2.239
			c-0.121,0.051-0.247,0.1-0.378,0.149c0.373-0.626,1.515-2.563,2.202-3.952c0.877-1.773,1.504-5.349-0.803-6.302
			c-1.704-0.704-2.788,0.821-3.189,2.288c-0.507,1.855,0.196,3.422,0.839,5.133c0.155,0.413,0.95,2.173,0.876,2.86
			c-0.013,0.005-0.027,0.01-0.04,0.015c-0.066-0.043-0.119-0.089-0.148-0.139c0,0.001,0.034,0.058,0.093,0.159
			c-0.773,0.281-1.696,0.547-2.735,0.845c-0.982,0.282-2.064,0.594-3.203,0.972c0.522-0.752,1.621-2.358,2.325-3.554
			c1.004-1.705,1.889-5.225-0.342-6.343c-1.648-0.827-2.841,0.615-3.347,2.05c-0.641,1.813-0.054,3.427,0.463,5.18
			c0.115,0.391,0.69,1.966,0.681,2.741c-1.404,0.474-2.889,1.054-4.386,1.81c0.249-0.679,1.016-2.799,1.436-4.295
			c0.535-1.905,0.491-5.534-1.952-6.046c-1.805-0.378-2.589,1.321-2.712,2.837c-0.156,1.917,0.824,3.327,1.772,4.89
			c0.229,0.377,1.332,1.957,1.389,2.647c-1.549,0.789-3.105,1.77-4.59,3.021c-0.011-0.022-0.025-0.043-0.031-0.065
			c0,0,0.007,0.026,0.02,0.074c-0.033,0.028-0.066,0.056-0.099,0.084c0.09-0.562,0.465-2.963,0.594-4.602
			c0.155-1.972-0.591-5.525-3.087-5.552c-1.844-0.021-2.284,1.798-2.111,3.309c0.219,1.91,1.453,3.104,2.687,4.453
			c0.31,0.339,1.809,1.778,1.896,2.41c-1.74,1.49-3.376,3.356-4.774,5.734l0.212,0.125c1.39-2.364,3.02-4.218,4.754-5.697
			c0.217,0.796,0.784,2.831,1.281,4.223c0.665,1.863,2.799,4.799,5.088,3.804C138.419,371.952,138.076,370.113,137.3,368.805z"/>
		<path style="fill:#263238;" d="M94.454,363.286c-1.121,1.562-1.009,3.276-1.002,5.104c0.002,0.415,0.118,2.14-0.124,2.861
			c-1.717-0.845-3.219-1.862-4.547-2.949c0.547-0.44,2.319-1.878,3.46-2.953c1.44-1.357,3.273-4.49,1.443-6.187
			c-1.352-1.254-2.899-0.202-3.786,1.034c-1.121,1.562-1.009,3.276-1.002,5.104c0.002,0.436,0.13,2.32-0.163,2.963
			c-1.257-1.034-2.358-2.128-3.334-3.193c0.029-0.001,0.058-0.003,0.083,0.002c0,0-0.035-0.007-0.087-0.018
			c0.047-0.065,1.724-2.353,2.688-3.927c1.033-1.687,1.981-5.191-0.23-6.349c-1.634-0.855-2.851,0.565-3.383,1.991
			c-0.672,1.801-0.114,3.426,0.372,5.188c0.129,0.468,0.884,2.633,0.552,3.097c-0.005-0.001-0.008-0.002-0.013-0.003
			c-0.892-0.975-1.681-1.926-2.391-2.782c-0.706-0.851-1.332-1.604-1.914-2.212c0.513-0.711,1.688-2.36,2.435-3.579
			c1.033-1.687,1.981-5.191-0.23-6.349c-1.634-0.855-2.851,0.565-3.383,1.991c-0.672,1.801-0.114,3.426,0.372,5.188
			c0.1,0.364,0.577,1.749,0.629,2.568c-0.072-0.072-0.143-0.144-0.214-0.211c-1.288-1.228-2.673-2.314-3.89-3.185
			c0.322-0.813,1.055-2.702,1.48-4.071c0.586-1.889,0.642-5.519-1.786-6.096c-1.794-0.427-2.624,1.25-2.788,2.762
			c-0.208,1.911,0.733,3.348,1.638,4.936c0.185,0.324,0.974,1.529,1.235,2.31c-1.334-0.943-2.438-1.612-2.94-1.907
			c-0.45-0.793-1.427-2.488-2.203-3.644c-1.103-1.642-3.893-3.964-5.867-2.437c-1.458,1.128-0.674,2.827,0.399,3.905
			c1.357,1.362,3.066,1.531,4.871,1.824c0.357,0.058,1.713,0.193,2.5,0.462c0.108,0.062,0.294,0.171,0.539,0.319
			c0.002,0.004,0.007,0.007,0.009,0.011c0,0-0.002-0.003-0.005-0.008c0.504,0.305,1.265,0.783,2.156,1.398
			c-0.944-0.347-2.486-0.898-3.652-1.235c-1.9-0.549-5.53-0.534-6.06,1.905c-0.392,1.802,1.301,2.599,2.816,2.734
			c1.915,0.171,3.333-0.798,4.903-1.734c0.347-0.207,1.713-1.143,2.47-1.336c0.048,0.034,0.096,0.069,0.144,0.103
			c0.006,0.077,0.003,0.147-0.019,0.2c0-0.001,0.025-0.063,0.066-0.166c1.197,0.859,2.553,1.925,3.814,3.128
			c0.095,0.09,0.191,0.186,0.288,0.286c-0.723-0.091-2.955-0.36-4.503-0.432c-1.976-0.092-5.503,0.768-5.451,3.263
			c0.038,1.844,1.87,2.225,3.375,2.004c1.902-0.28,3.056-1.552,4.365-2.828c0.316-0.308,1.61-1.742,2.268-1.95
			c0.01,0.01,0.02,0.021,0.03,0.031c-0.014,0.077-0.034,0.145-0.068,0.191c0,0,0.04-0.054,0.108-0.148
			c0.567,0.596,1.181,1.334,1.871,2.166c0.653,0.787,1.372,1.652,2.175,2.544c-0.898-0.177-2.81-0.539-4.188-0.704
			c-1.964-0.235-5.544,0.365-5.674,2.858c-0.096,1.842,1.703,2.355,3.22,2.244c1.918-0.141,3.161-1.326,4.56-2.503
			c0.312-0.262,1.524-1.42,2.237-1.724c0.997,1.096,2.124,2.224,3.418,3.291c-0.722,0.044-2.972,0.192-4.51,0.408
			c-1.959,0.274-5.266,1.77-4.755,4.213c0.378,1.805,2.249,1.841,3.687,1.346c1.818-0.626,2.717-2.09,3.768-3.585
			c0.254-0.361,1.259-2.006,1.868-2.334c1.344,1.102,2.867,2.135,4.609,2.993c-0.015,0.019-0.03,0.04-0.047,0.054
			c0,0,0.021-0.017,0.06-0.048c0.039,0.019,0.077,0.038,0.116,0.057c-0.551,0.143-2.901,0.763-4.453,1.302
			c-1.869,0.649-4.823,2.758-3.848,5.055c0.721,1.697,2.563,1.371,3.878,0.606c1.662-0.967,2.26-2.577,3.002-4.247
			c0.186-0.42,0.903-2.37,1.447-2.703c2.063,0.996,4.428,1.746,7.167,2.073l0.029-0.244c-2.723-0.325-5.075-1.075-7.125-2.07
			c0.642-0.518,2.279-1.854,3.354-2.868c1.44-1.357,3.273-4.49,1.443-6.187C96.888,360.999,95.341,362.051,94.454,363.286z"/>
		<path style="fill:#263238;" d="M373.75,353.539c-2.072-0.413-3.736,0.478-5.562,1.315c-0.414,0.19-2.088,1.09-2.919,1.176
			c0.066-2.102,0.401-4.067,0.886-5.889c0.689,0.348,2.932,1.468,4.526,2.121c2.011,0.824,5.979,1.236,6.846-1.366
			c0.641-1.922-1.114-2.993-2.754-3.319c-2.072-0.413-3.736,0.478-5.562,1.315c-0.435,0.199-2.262,1.183-3.039,1.182
			c0.464-1.728,1.058-3.326,1.681-4.786c0.014,0.028,0.03,0.057,0.036,0.084c0,0-0.009-0.038-0.022-0.095
			c0.086,0.018,3.138,0.656,5.15,0.906c2.157,0.268,6.094-0.375,6.248-3.114c0.114-2.023-1.861-2.596-3.528-2.481
			c-2.108,0.145-3.479,1.442-5.022,2.728c-0.41,0.342-2.233,2.08-2.848,1.959c-0.001-0.005-0.002-0.009-0.003-0.014
			c0.571-1.335,1.164-2.556,1.698-3.656c0.531-1.092,1-2.061,1.344-2.92c0.945,0.191,3.128,0.618,4.687,0.811
			c2.157,0.268,6.094-0.375,6.248-3.114c0.114-2.023-1.861-2.596-3.528-2.481c-2.108,0.145-3.479,1.442-5.022,2.728
			c-0.318,0.266-1.489,1.371-2.284,1.796c0.04-0.105,0.079-0.209,0.114-0.31c0.644-1.846,1.101-3.725,1.42-5.339
			c0.959-0.047,3.183-0.171,4.745-0.368c2.157-0.271,5.814-1.864,5.289-4.556c-0.388-1.989-2.442-2.058-4.03-1.536
			c-2.007,0.66-3.017,2.254-4.195,3.881c-0.241,0.332-1.087,1.668-1.751,2.285c0.337-1.763,0.506-3.172,0.573-3.808
			c0.589-0.81,1.841-2.558,2.645-3.859c1.143-1.849,2.199-5.695-0.226-6.977c-1.791-0.947-3.135,0.609-3.726,2.173
			c-0.747,1.977-0.14,3.764,0.387,5.702c0.104,0.383,0.585,1.801,0.673,2.711c-0.013,0.137-0.037,0.372-0.074,0.684
			c-0.003,0.004-0.004,0.01-0.007,0.014c0,0,0.002-0.003,0.006-0.008c-0.076,0.643-0.209,1.621-0.42,2.792
			c-0.082-1.102-0.231-2.895-0.423-4.214c-0.314-2.151-1.977-5.776-4.659-5.199c-1.981,0.426-2.01,2.482-1.457,4.06
			c0.699,1.994,2.313,2.973,3.962,4.119c0.365,0.254,1.921,1.195,2.459,1.864c-0.012,0.063-0.025,0.127-0.038,0.191
			c-0.075,0.041-0.146,0.069-0.208,0.072c0.001,0,0.074-0.003,0.196-0.009c-0.316,1.588-0.767,3.429-1.397,5.237
			c-0.047,0.136-0.1,0.276-0.155,0.418c-0.238-0.765-0.982-3.12-1.613-4.702c-0.805-2.019-3.267-5.157-5.74-3.972
			c-1.827,0.876-1.377,2.882-0.472,4.287c1.144,1.777,2.941,2.353,4.812,3.084c0.452,0.176,2.474,0.82,2.981,1.384
			c-0.006,0.014-0.012,0.029-0.017,0.043c-0.084,0.022-0.16,0.032-0.222,0.019c0.001,0,0.072,0.015,0.198,0.041
			c-0.339,0.838-0.799,1.788-1.318,2.856c-0.491,1.01-1.031,2.123-1.558,3.332c-0.231-0.979-0.737-3.057-1.197-4.511
			c-0.656-2.072-2.883-5.382-5.436-4.379c-1.886,0.74-1.583,2.774-0.783,4.241c1.012,1.855,2.762,2.561,4.575,3.426
			c0.404,0.193,2.113,0.88,2.741,1.456c-0.643,1.495-1.261,3.135-1.741,4.914c-0.372-0.703-1.542-2.887-2.456-4.328
			c-1.164-1.836-4.163-4.466-6.375-2.844c-1.634,1.198-0.821,3.086,0.327,4.3c1.452,1.535,3.325,1.77,5.298,2.143
			c0.476,0.09,2.578,0.349,3.184,0.809c-0.493,1.845-0.834,3.838-0.902,5.971c-0.026-0.007-0.054-0.012-0.075-0.022
			c0,0,0.027,0.014,0.075,0.038c-0.001,0.047-0.003,0.095-0.004,0.142c-0.394-0.486-2.081-2.556-3.325-3.865
			c-1.498-1.575-4.95-3.574-6.805-1.554c-1.371,1.492-0.207,3.187,1.155,4.156c1.722,1.224,3.605,1.092,5.613,1.075
			c0.505-0.004,2.782-0.172,3.362,0.22c-0.06,2.517,0.264,5.224,1.181,8.113l0.258-0.082c-0.911-2.873-1.229-5.566-1.165-8.07
			c0.81,0.407,2.89,1.438,4.392,2.054c2.011,0.824,5.979,1.236,6.846-1.366C377.145,354.936,375.389,353.865,373.75,353.539z"/>
		<path style="fill:#263238;" d="M385.063,362.566c-0.981-1.654-2.596-2.238-4.273-2.965c-0.38-0.165-2.008-0.751-2.571-1.261
			c1.463-1.233,2.997-2.202,4.525-2.982c0.183,0.677,0.79,2.878,1.317,4.354c0.665,1.863,2.799,4.799,5.088,3.804
			c1.691-0.736,1.348-2.575,0.572-3.883c-0.981-1.654-2.596-2.238-4.273-2.965c-0.4-0.173-2.177-0.812-2.648-1.338
			c1.452-0.737,2.895-1.307,4.262-1.773c-0.01,0.027-0.02,0.055-0.035,0.076c0,0,0.021-0.029,0.051-0.072
			c0.04,0.069,1.464,2.523,2.519,4.038c1.131,1.623,3.96,3.897,5.908,2.336c1.439-1.153,0.626-2.838-0.467-3.897
			c-1.38-1.338-3.092-1.479-4.901-1.74c-0.48-0.069-2.766-0.246-3.058-0.737c0.003-0.004,0.005-0.007,0.008-0.011
			c1.251-0.426,2.438-0.767,3.507-1.074c1.062-0.305,2.004-0.577,2.794-0.866c0.445,0.755,1.484,2.493,2.302,3.667
			c1.131,1.623,3.96,3.897,5.908,2.336c1.439-1.153,0.626-2.838-0.466-3.897c-1.38-1.339-3.092-1.478-4.901-1.74
			c-0.373-0.054-1.834-0.174-2.605-0.454c0.095-0.037,0.189-0.074,0.279-0.111c1.642-0.687,3.192-1.521,4.478-2.286
			c0.616,0.621,2.052,2.051,3.135,2.989c1.495,1.295,4.798,2.802,6.301,0.809c1.111-1.472-0.092-2.905-1.412-3.662
			c-1.667-0.957-3.361-0.672-5.179-0.48c-0.371,0.039-1.791,0.279-2.612,0.204c1.398-0.844,2.455-1.586,2.927-1.928
			c0.907-0.094,2.851-0.309,4.221-0.556c1.947-0.351,5.193-1.976,4.586-4.396c-0.449-1.789-2.319-1.752-3.737-1.201
			c-1.792,0.697-2.633,2.195-3.625,3.73c-0.196,0.304-0.863,1.491-1.426,2.104c-0.1,0.074-0.274,0.201-0.508,0.366
			c-0.004,0.001-0.009,0.003-0.014,0.004c0,0,0.004,0,0.009-0.001c-0.482,0.34-1.224,0.845-2.145,1.414
			c0.696-0.725,1.819-1.917,2.596-2.85c1.265-1.521,2.707-4.852,0.686-6.316c-1.493-1.082-2.903,0.149-3.634,1.483
			c-0.925,1.686-0.606,3.374-0.378,5.187c0.05,0.401,0.359,2.027,0.233,2.798c-0.05,0.03-0.101,0.061-0.152,0.091
			c-0.073-0.026-0.136-0.057-0.175-0.097c0,0,0.047,0.049,0.125,0.127c-1.268,0.752-2.787,1.567-4.395,2.239
			c-0.121,0.051-0.247,0.1-0.378,0.149c0.373-0.626,1.515-2.563,2.202-3.952c0.877-1.773,1.504-5.348-0.803-6.302
			c-1.704-0.704-2.788,0.821-3.189,2.288c-0.507,1.855,0.196,3.422,0.839,5.133c0.155,0.413,0.95,2.173,0.876,2.86
			c-0.013,0.005-0.027,0.01-0.04,0.015c-0.066-0.043-0.119-0.089-0.148-0.138c0,0,0.034,0.058,0.092,0.159
			c-0.773,0.281-1.696,0.547-2.735,0.845c-0.982,0.282-2.064,0.594-3.203,0.972c0.522-0.752,1.621-2.358,2.325-3.554
			c1.004-1.705,1.889-5.225-0.342-6.344c-1.648-0.827-2.841,0.615-3.347,2.05c-0.641,1.813-0.054,3.427,0.463,5.18
			c0.115,0.391,0.69,1.965,0.681,2.741c-1.403,0.474-2.889,1.054-4.385,1.81c0.249-0.679,1.017-2.799,1.436-4.295
			c0.534-1.905,0.491-5.534-1.952-6.045c-1.805-0.378-2.589,1.321-2.712,2.837c-0.156,1.917,0.824,3.327,1.772,4.89
			c0.229,0.377,1.332,1.957,1.389,2.647c-1.549,0.788-3.105,1.77-4.59,3.021c-0.011-0.022-0.025-0.043-0.031-0.065
			c0,0,0.007,0.026,0.02,0.074c-0.033,0.028-0.066,0.056-0.099,0.084c0.09-0.562,0.465-2.963,0.594-4.602
			c0.155-1.972-0.591-5.524-3.087-5.552c-1.844-0.02-2.284,1.798-2.111,3.309c0.219,1.91,1.454,3.104,2.687,4.453
			c0.31,0.339,1.809,1.778,1.896,2.41c-1.74,1.49-3.376,3.356-4.774,5.734l0.212,0.125c1.39-2.364,3.02-4.218,4.754-5.697
			c0.217,0.796,0.784,2.831,1.281,4.223c0.665,1.863,2.799,4.799,5.088,3.804C386.182,365.714,385.839,363.874,385.063,362.566z"/>
		<path style="fill:#263238;" d="M355.808,348.073c-1.734,0.831-2.459,2.387-3.332,3.994c-0.198,0.364-0.926,1.933-1.484,2.449
			c-1.099-1.566-1.928-3.181-2.569-4.772c0.691-0.123,2.936-0.532,4.453-0.926c1.914-0.497,5.029-2.363,4.24-4.731
			c-0.583-1.75-2.445-1.571-3.817-0.914c-1.734,0.831-2.459,2.388-3.332,3.993c-0.208,0.383-1.001,2.096-1.568,2.519
			c-0.605-1.511-1.045-3-1.388-4.403c0.026,0.013,0.053,0.025,0.072,0.041c0,0-0.027-0.023-0.068-0.057
			c0.073-0.034,2.643-1.235,4.245-2.151c1.717-0.982,4.233-3.599,2.85-5.677c-1.021-1.535-2.772-0.875-3.923,0.119
			c-1.456,1.256-1.747,2.949-2.168,4.728c-0.112,0.473-0.491,2.734-1.005,2.981c-0.004-0.003-0.006-0.005-0.01-0.009
			c-0.313-1.284-0.548-2.497-0.759-3.589c-0.21-1.085-0.397-2.047-0.615-2.86c0.792-0.377,2.615-1.257,3.856-1.967
			c1.717-0.982,4.233-3.599,2.85-5.678c-1.021-1.535-2.772-0.875-3.923,0.119c-1.456,1.256-1.747,2.949-2.168,4.728
			c-0.087,0.367-0.335,1.811-0.683,2.554c-0.028-0.098-0.056-0.195-0.086-0.288c-0.539-1.696-1.232-3.314-1.88-4.663
			c0.673-0.558,2.224-1.862,3.255-2.858c1.422-1.375,3.216-4.531,1.365-6.204c-1.368-1.237-2.902-0.166-3.773,1.081
			c-1.101,1.576-0.967,3.288-0.937,5.116c0.006,0.373,0.119,1.808-0.028,2.619c-0.716-1.468-1.362-2.586-1.661-3.086
			c-0.013-0.912-0.055-2.867-0.18-4.254c-0.177-1.97-1.507-5.348-3.972-4.957c-1.821,0.288-1.951,2.155-1.527,3.616
			c0.535,1.847,1.952,2.817,3.394,3.941c0.285,0.222,1.409,0.992,1.97,1.607c0.065,0.107,0.176,0.291,0.319,0.539
			c0,0.004,0.003,0.01,0.003,0.014c0,0,0-0.003,0-0.009c0.296,0.51,0.733,1.294,1.219,2.262c-0.661-0.758-1.748-1.982-2.608-2.838
			c-1.402-1.395-4.593-3.127-6.23-1.243c-1.21,1.392-0.109,2.905,1.155,3.751c1.597,1.07,3.307,0.902,5.133,0.837
			c0.404-0.015,2.051-0.178,2.808,0.016c0.026,0.053,0.051,0.106,0.077,0.16c-0.032,0.071-0.068,0.13-0.112,0.166
			c0.001,0,0.053-0.043,0.138-0.113c0.637,1.329,1.313,2.915,1.841,4.576c0.04,0.125,0.078,0.255,0.115,0.389
			c-0.591-0.427-2.418-1.736-3.741-2.544c-1.688-1.03-5.194-1.972-6.348,0.241c-0.853,1.635,0.57,2.85,1.996,3.38
			c1.803,0.669,3.426,0.108,5.187-0.381c0.425-0.118,2.249-0.753,2.926-0.619c0.004,0.013,0.007,0.027,0.011,0.041
			c-0.049,0.061-0.099,0.111-0.151,0.135c0,0,0.061-0.028,0.166-0.078c0.211,0.795,0.394,1.738,0.599,2.799
			c0.194,1.004,0.408,2.109,0.684,3.276c-0.703-0.587-2.205-1.824-3.334-2.631c-1.609-1.151-5.037-2.345-6.349-0.222
			c-0.969,1.569,0.361,2.884,1.745,3.516c1.749,0.799,3.409,0.357,5.201-0.002c0.399-0.08,2.019-0.513,2.79-0.436
			c0.347,1.44,0.793,2.971,1.414,4.529c-0.655-0.309-2.698-1.261-4.151-1.811c-1.85-0.701-5.469-0.98-6.195,1.408
			c-0.536,1.764,1.086,2.696,2.586,2.953c1.895,0.325,3.387-0.526,5.028-1.332c0.396-0.194,2.068-1.154,2.76-1.149
			c0.648,1.612,1.487,3.25,2.602,4.84c-0.023,0.009-0.046,0.021-0.067,0.025c0,0,0.027-0.005,0.075-0.013
			c0.025,0.035,0.05,0.07,0.075,0.106c-0.552-0.139-2.91-0.726-4.531-0.999c-1.95-0.329-5.555,0.099-5.804,2.583
			c-0.184,1.835,1.589,2.434,3.109,2.396c1.922-0.048,3.221-1.172,4.674-2.281c0.366-0.279,1.932-1.644,2.568-1.674
			c1.33,1.865,3.044,3.66,5.288,5.264l0.143-0.2c-2.232-1.594-3.933-3.382-5.253-5.241c0.812-0.146,2.889-0.53,4.32-0.902
			c1.915-0.497,5.029-2.363,4.24-4.731C359.043,347.237,357.18,347.416,355.808,348.073z"/>
	</g>
</g>
<g id="Ground">
	<g>
		<path style="fill:#FFFFFF;" d="M210.035,299.045c0.669,2.082,1.555,4.032,2.034,4.511c0.936,0.936,2.808,1.248,3.12,0.312
			c0.312-0.936-0.624-3.12-0.624-3.12C213.101,302.314,212.553,300.974,210.035,299.045z"/>
	</g>
	<path style="fill:#FFFFFF;stroke:#263238;stroke-linecap:round;stroke-linejoin:round;stroke-miterlimit:10;" d="M96,376
		c0,0,152-39,304-8"/>
</g>
<g id="Character">
	<g>
		<g>
			<ellipse style="fill:#C6FF00;" cx="325.114" cy="412.372" rx="59.202" ry="16.877"/>
			<ellipse style="opacity:0.5;fill:#FFFFFF;" cx="325.114" cy="412.372" rx="59.202" ry="16.877"/>
		</g>
		<g>
			<g>
				<polygon style="fill:#FFFFFF;stroke:#263238;stroke-linecap:round;stroke-linejoin:round;stroke-miterlimit:10;" points="
					296.087,417.55 288.637,413.921 288.637,410.1 285.771,409.691 285.771,409.336 284.53,409.514 283.288,409.336 
					283.288,409.691 280.423,410.1 280.423,413.921 272.973,417.55 272.973,419.651 284.53,418.616 296.087,419.651 				"/>
				<path style="fill:#263238;stroke:#263238;stroke-linecap:round;stroke-linejoin:round;stroke-miterlimit:10;" d="M272.474,425
					h-0.721c-0.803,0-1.454-0.651-1.454-1.454v-7.216c0-0.803,0.651-1.454,1.454-1.454h0.721c0.803,0,1.454,0.651,1.454,1.454v7.216
					C273.928,424.349,273.277,425,272.474,425z"/>
				<path style="fill:#263238;stroke:#263238;stroke-linecap:round;stroke-linejoin:round;stroke-miterlimit:10;" d="M298.453,425
					h-0.721c-0.803,0-1.454-0.651-1.454-1.454v-7.216c0-0.803,0.651-1.454,1.454-1.454h0.721c0.803,0,1.454,0.651,1.454,1.454v7.216
					C299.907,424.349,299.256,425,298.453,425z"/>
			</g>
			<g>
				<path style="fill:#FFFFFF;stroke:#263238;stroke-linecap:round;stroke-linejoin:round;stroke-miterlimit:10;" d="
					M266.039,317.906c0,0-4.16,0.416-7.071,3.328c-2.912,2.912-0.416,8.319,1.664,14.974c2.08,6.655,0.416,11.231,1.664,15.806
					c1.248,4.576,4.159,9.151,7.903,5.823c3.744-3.328,5.823-15.39,4.575-20.798C273.526,331.633,271.03,319.986,266.039,317.906z"
					/>
				<path style="fill:#FFFFFF;stroke:#263238;stroke-linecap:round;stroke-linejoin:round;stroke-miterlimit:10;" d="
					M263.642,346.178c1.346-5.836-1.462-11.328-2.923-17.541c-0.754-3.206-1.021-6.016-1.103-7.991
					c-0.221,0.185-0.438,0.378-0.648,0.588c-2.912,2.912-0.416,8.319,1.664,14.974c2.08,6.655,0.416,11.231,1.664,15.806
					c0.932,3.419,2.795,6.836,5.238,6.957C264.501,356.613,262.364,351.718,263.642,346.178z"/>
				<path style="fill:#FFFFFF;stroke:#263238;stroke-linecap:round;stroke-linejoin:round;stroke-miterlimit:10;" d="
					M268.027,334.85c0,0,0.365,8.77,1.462,9.501c1.096,0.731,1.827-4.751,1.462-11.328
					C270.585,326.445,268.027,334.85,268.027,334.85z"/>
			</g>
			<path style="fill:#C6FF00;stroke:#263238;stroke-linecap:round;stroke-linejoin:round;stroke-miterlimit:10;" d="
				M276.854,318.738c0,0-8.319-0.832-10.815-0.832c-2.496,0-3.328,9.567-2.08,13.727c1.248,4.16,9.567,4.991,12.479,4.991
				c2.912,0,7.071-13.311,2.08-17.886H276.854z"/>
			<polygon style="fill:#FFFFFF;stroke:#263238;stroke-linecap:round;stroke-linejoin:round;stroke-miterlimit:10;" points="
				267.911,394.65 267.911,410.872 302.851,410.872 299.107,394.65 			"/>
			<path style="fill:#263238;stroke:#263238;stroke-linecap:round;stroke-linejoin:round;stroke-miterlimit:10;" d="M267.911,394.65
				h31.197c0,0-3.741-10.526-14.35-10.295C270.407,384.667,267.911,394.65,267.911,394.65z"/>
			<g>
				<path style="fill:#FFFFFF;stroke:#263238;stroke-linecap:round;stroke-linejoin:round;stroke-miterlimit:10;" d="
					M275.606,387.787c0,0,1.248,8.319,1.248,13.311c0,4.991,12.063,8.319,16.222,7.071c4.159-1.248,3.744-5.823,0.832-10.815
					c-2.912-4.992-3.744-8.319-4.16-11.647C289.333,382.379,276.854,382.379,275.606,387.787z"/>
				<path style="fill:#FFFFFF;stroke:#263238;stroke-linecap:round;stroke-linejoin:round;stroke-miterlimit:10;" d="
					M280.817,387.472c0,0,0,7.674,2.558,9.501c2.558,1.827,4.02,0.731,4.02-4.02c0-4.751-0.366-5.847-0.366-5.847L280.817,387.472z"
					/>
				<path style="fill:#FFFFFF;stroke:#263238;stroke-linecap:round;stroke-linejoin:round;stroke-miterlimit:10;" d="
					M293.076,408.169c2.921-0.876,3.579-3.397,2.707-6.547c-2.475,3.99-5.441,6.17-12.043,3.39
					c-4.665-1.964-6.355-4.748-6.966-6.367c0.048,0.865,0.079,1.698,0.079,2.452C276.854,406.089,288.917,409.417,293.076,408.169z"
					/>
			</g>
			<g>
				<defs>
					<path id="XMLID_1_" d="M259.384,259.673c0,0-1.664,11.231,0.416,24.125c2.08,12.895,17.054,34.524,17.054,39.516
						c0,4.991-4.159,12.895-4.991,19.966c-0.832,7.071,4.991,39.516,4.991,39.516l-1.248,4.991l1.248,2.496
						c0,0,3.744-1.248,7.071-1.248c3.328,0,6.239,0,6.239,0s1.664-3.744,1.664-6.655c0-2.912-1.248-4.576-1.248-4.576
						s2.496-2.08,2.496-8.319c0-6.239-4.16-20.382-0.832-30.781c0,0,4.159,2.08,9.983-2.08c5.823-4.159,8.735-38.684,9.567-55.322
						c0.832-16.638-0.832-23.293-0.832-23.293s-11.231,1.248-24.541-2.08C273.11,252.602,260.632,254.265,259.384,259.673z"/>
				</defs>
				<use xlink:href="#XMLID_1_"  style="overflow:visible;fill:#C6FF00;"/>
				<clipPath id="XMLID_00000165210127097588828910000000307654652467063228_">
					<use xlink:href="#XMLID_1_"  style="overflow:visible;"/>
				</clipPath>
				<path style="opacity:0.5;clip-path:url(#XMLID_00000165210127097588828910000000307654652467063228_);" d="M310.962,258.009
					c0,0-3.73,0.409-9.425,0.126c-7.765,1.15-15.826,2.786-20.94,2.786c-9.983,0-19.55,5.823-14.974,5.407
					c4.576-0.416,15.806,4.16,17.886,7.903c2.08,3.744,11.647,31.197,12.063,41.595c0.416,10.399-3.328,22.878-3.328,22.878
					s4.159,2.08,9.983-2.08c5.823-4.16,8.735-38.684,9.567-55.322C312.626,264.664,310.962,258.009,310.962,258.009z"/>
				
					<path style="clip-path:url(#XMLID_00000165210127097588828910000000307654652467063228_);fill:none;stroke:#263238;stroke-linecap:round;stroke-linejoin:round;stroke-miterlimit:10;" d="
					M283.509,274.231c0,0,10.504,25.877,11.916,35.477c1.412,9.601-0.847,20.896-0.847,20.896"/>
				
					<path style="clip-path:url(#XMLID_00000165210127097588828910000000307654652467063228_);fill:none;stroke:#263238;stroke-linecap:round;stroke-linejoin:round;stroke-miterlimit:10;" d="
					M267.124,298.398c0,0,4.73,12.299,8.988,18.448c4.257,6.149,4.257,7.569,1.892,12.299c-2.365,4.73-5.203,19.395-3.784,25.071
					c1.419,5.676,3.784,13.718,3.311,17.975c-0.473,4.257,0.946,11.353,0.946,11.353s9.803,0.136,8.042,0.473
					c-1.761,0.337-7.569,2.838-7.569,2.838"/>
				
					<path style="clip-path:url(#XMLID_00000165210127097588828910000000307654652467063228_);fill:none;stroke:#263238;stroke-linecap:round;stroke-linejoin:round;stroke-miterlimit:10;" d="
					M262.951,268.199c0,0,6.777-1.129,13.272,1.694"/>
				
					<use xlink:href="#XMLID_1_"  style="overflow:visible;fill:none;stroke:#263238;stroke-linecap:round;stroke-linejoin:round;stroke-miterlimit:10;"/>
			</g>
			<g>
				<defs>
					<path id="XMLID_5_" d="M315.538,224.316l7.604,8.916c0,0-0.372,17.501-1.117,28.299c-0.405,5.869-2.327,14.779-2.327,14.779
						s-5.823,3.328-6.239,4.576c-0.416,1.248-2.912,7.071-2.912,7.071s-0.832,2.496,0.832,1.664
						c1.664-0.832,3.744-5.823,3.744-5.823v16.222c0,0,1.248,2.08,2.496,0c1.248-2.08,2.912-4.16,2.912-4.16s3.328-4.16,4.576-7.487
						c1.248-3.328,1.664-14.974,1.664-14.974s6.194-18.414,7.916-25.272c1.732-6.898,1.862-14.336,1.236-18.819
						c-0.288-2.06-9.983-14.559-9.983-14.559S317.202,220.989,315.538,224.316z"/>
				</defs>
				<use xlink:href="#XMLID_5_"  style="overflow:visible;fill:#FFFFFF;"/>
				<clipPath id="XMLID_00000127738894382454062800000001189769806039822237_">
					<use xlink:href="#XMLID_5_"  style="overflow:visible;"/>
				</clipPath>
				<path style="clip-path:url(#XMLID_00000127738894382454062800000001189769806039822237_);fill:#C6FF00;" d="M335.92,229.308
					c-0.288-2.06-9.983-14.558-9.983-14.558s-8.735,6.239-10.399,9.567l2.143,2.513l10.563-4.983c0,0,4.953,7.038,4.692,13.294
					c-0.261,6.256-6.517,39.101-8.341,41.708c-1.825,2.607-3.91,11.47-4.692,13.034c-0.782,1.564-2.085,2.607-2.867,1.303
					c-0.782-1.303-1.564-5.996-1.564-5.996s-0.134,0.583-0.349,1.527v13.303c0,0,1.248,2.08,2.496,0
					c1.248-2.08,2.912-4.159,2.912-4.159s3.328-4.16,4.576-7.487c1.248-3.328,1.664-14.974,1.664-14.974s6.194-18.414,7.915-25.272
					C336.416,241.229,336.546,233.791,335.92,229.308z"/>
				<path style="opacity:0.5;clip-path:url(#XMLID_00000127738894382454062800000001189769806039822237_);fill:#FFFFFF;" d="
					M335.92,229.308c-0.288-2.06-9.983-14.558-9.983-14.558s-8.735,6.239-10.399,9.567l2.143,2.513l10.563-4.983
					c0,0,4.953,7.038,4.692,13.294c-0.261,6.256-6.517,39.101-8.341,41.708c-1.825,2.607-3.91,11.47-4.692,13.034
					c-0.782,1.564-2.085,2.607-2.867,1.303c-0.782-1.303-1.564-5.996-1.564-5.996s-0.134,0.583-0.349,1.527v13.303
					c0,0,1.248,2.08,2.496,0c1.248-2.08,2.912-4.159,2.912-4.159s3.328-4.16,4.576-7.487c1.248-3.328,1.664-14.974,1.664-14.974
					s6.194-18.414,7.915-25.272C336.416,241.229,336.546,233.791,335.92,229.308z"/>
				
					<use xlink:href="#XMLID_5_"  style="overflow:visible;fill:none;stroke:#263238;stroke-linecap:round;stroke-linejoin:round;stroke-miterlimit:10;"/>
			</g>
			<g>
				<defs>
					<path id="XMLID_4_" d="M229.227,231.18l-3.12,9.983c0,0-4.68,9.671-5.927,15.286c-1.248,5.615-4.992,23.086-4.992,24.645
						c0,1.56-5.303,10.607-5.927,12.791c-0.624,2.184,1.872,8.735,2.808,9.671s2.808,1.248,3.12,0.312
						c0.312-0.936-0.624-3.12-0.624-3.12l4.368-5.303c0,0-1.248,7.175,0.624,4.992c1.872-2.184,1.872-5.615,1.872-9.047
						c0-3.432-0.321-8.806-0.321-8.806s12.8-24.574,13.736-29.254s4.992-16.222,4.992-16.222L229.227,231.18z"/>
				</defs>
				<use xlink:href="#XMLID_4_"  style="overflow:visible;fill:#FFFFFF;"/>
				<clipPath id="XMLID_00000005970342073191631900000005707718857851825062_">
					<use xlink:href="#XMLID_4_"  style="overflow:visible;"/>
				</clipPath>
				<path style="clip-path:url(#XMLID_00000005970342073191631900000005707718857851825062_);fill:#C6FF00;" d="M239.834,237.107
					l-10.607-5.927l-1.702,5.447c1.562,2.606,3.817,5.494,6.876,7.377c0,0-1.303,10.427-7.82,21.375
					c-6.517,10.948-7.82,17.726-7.299,21.375c0.521,3.65,0,5.735-1.564,7.56c-1.564,1.825-1.615,4.788-3.154,6.435l4.368-5.303
					c0,0-1.248,7.175,0.624,4.992c1.872-2.184,1.872-5.615,1.872-9.047c0-3.432-0.321-8.806-0.321-8.806s12.8-24.574,13.736-29.254
					C235.778,248.65,239.834,237.107,239.834,237.107z"/>
				<path style="opacity:0.5;clip-path:url(#XMLID_00000005970342073191631900000005707718857851825062_);fill:#FFFFFF;" d="
					M239.834,237.107l-10.607-5.927l-1.702,5.447c1.562,2.606,3.817,5.494,6.876,7.377c0,0-1.303,10.427-7.82,21.375
					c-6.517,10.948-7.82,17.726-7.299,21.375c0.521,3.65,0,5.735-1.564,7.56c-1.564,1.825-1.615,4.788-3.154,6.435l4.368-5.303
					c0,0-1.248,7.175,0.624,4.992c1.872-2.184,1.872-5.615,1.872-9.047c0-3.432-0.321-8.806-0.321-8.806s12.8-24.574,13.736-29.254
					C235.778,248.65,239.834,237.107,239.834,237.107z"/>
				
					<use xlink:href="#XMLID_4_"  style="overflow:visible;fill:none;stroke:#263238;stroke-linecap:round;stroke-linejoin:round;stroke-miterlimit:10;"/>
			</g>
			<g>
				<path style="fill:#263238;stroke:#263238;stroke-linecap:round;stroke-linejoin:round;stroke-miterlimit:10;" d="
					M262.711,195.616c0,0-23.709,15.39-26.621,19.55c-2.912,4.16-9.151,14.974-9.151,14.974s1.664,4.576,6.239,7.071
					c4.576,2.496,6.655,2.496,6.655,2.496l9.151-6.655l9.567,20.798l-1.248,9.567c0,0,7.071-2.912,14.974,0.832
					c7.903,3.744,23.294,8.735,29.949,6.655s14.142-6.655,14.142-6.655s-6.655-15.806-8.319-21.63
					c-1.664-5.823-0.832-21.63-0.832-21.63l8.735,6.655l13.311-15.39c0,0-12.895-12.063-19.134-16.638
					c-6.239-4.576-9.151-6.239-20.382-6.239C278.518,189.376,262.711,195.616,262.711,195.616z"/>
				<g>
					<g>
						
							<polyline style="fill:none;stroke:#FFFFFF;stroke-width:0.75;stroke-linecap:round;stroke-linejoin:round;stroke-miterlimit:10;" points="
							244.069,221.329 248.985,233.052 240.508,223.821 						"/>
						
							<line style="fill:none;stroke:#FFFFFF;stroke-width:0.75;stroke-linecap:round;stroke-linejoin:round;stroke-miterlimit:10;" x1="307.219" y1="220.989" x2="297.838" y2="214.563"/>
						
							<line style="fill:none;stroke:#FFFFFF;stroke-width:0.75;stroke-linecap:round;stroke-linejoin:round;stroke-miterlimit:10;" x1="305.672" y1="220.26" x2="294.989" y2="219.192"/>
						
							<path style="fill:none;stroke:#FFFFFF;stroke-width:0.75;stroke-linecap:round;stroke-linejoin:round;stroke-miterlimit:10;" d="
							M300.331,266.908c0,0-11.751-1.068-19.733-5.987c-7.982-4.919-18.012-6.12-18.012-6.12s12.107-1.78,22.077,2.136"/>
					</g>
					
						<path style="fill:none;stroke:#FFFFFF;stroke-width:0.75;stroke-linecap:round;stroke-linejoin:round;stroke-miterlimit:10;" d="
						M287.698,196.732c-0.248-1.715-0.543-2.822-0.543-2.822"/>
					
						<path style="fill:none;stroke:#FFFFFF;stroke-width:0.75;stroke-linecap:round;stroke-linejoin:round;stroke-miterlimit:10;" d="
						M265.078,215.631c0,0,5.697,3.561,16.024-1.068c5.178-2.321,6.685-7.506,6.901-12.101"/>
				</g>
			</g>
			<g>
				<defs>
					<path id="XMLID_3_" d="M282.641,190.025c-9.802,1.595-19.93,5.591-19.93,5.591s-3.473,2.255-7.921,5.269
						c1.63,4.491,6.127,12.953,17.072,13.865C283.895,215.752,287.693,201.077,282.641,190.025z"/>
				</defs>
				<use xlink:href="#XMLID_3_"  style="overflow:visible;fill:#FFFFFF;"/>
				<clipPath id="XMLID_00000070810361654953199300000008198289667907593346_">
					<use xlink:href="#XMLID_3_"  style="overflow:visible;"/>
				</clipPath>
				<path style="clip-path:url(#XMLID_00000070810361654953199300000008198289667907593346_);fill:#C6FF00;" d="M282.641,190.025
					c-9.802,1.595-19.93,5.591-19.93,5.591s-3.473,2.255-7.921,5.269c1.63,4.491,6.127,12.953,17.072,13.865
					C283.895,215.752,287.693,201.077,282.641,190.025z"/>
				<path style="opacity:0.5;clip-path:url(#XMLID_00000070810361654953199300000008198289667907593346_);fill:#FFFFFF;" d="
					M282.641,190.025c-9.802,1.595-19.93,5.591-19.93,5.591s-3.473,2.255-7.921,5.269c1.63,4.491,6.127,12.953,17.072,13.865
					C283.895,215.752,287.693,201.077,282.641,190.025z"/>
				
					<use xlink:href="#XMLID_3_"  style="overflow:visible;fill:none;stroke:#263238;stroke-linecap:round;stroke-linejoin:round;stroke-miterlimit:10;"/>
			</g>
			<path style="fill:#FFFFFF;stroke:#263238;stroke-linecap:round;stroke-linejoin:round;stroke-miterlimit:10;" d="
				M252.456,193.911c0,0-3.688-2.151-3.688,1.536c0,3.688,1.844,6.146,4.609,6.146C256.144,201.593,252.456,193.911,252.456,193.911
				z"/>
			<path style="fill:#FFFFFF;stroke:#263238;stroke-linecap:round;stroke-linejoin:round;stroke-miterlimit:10;" d="
				M276.111,189.428c0,0,2.855-3.174,3.98,0.337c1.126,3.511,0.12,6.415-2.513,7.26
				C274.944,197.869,276.111,189.428,276.111,189.428z"/>
			<g>
				<g>
					<defs>
						<path id="XMLID_2_" d="M250.612,190.223c0,0,3.073,11.984,5.224,15.672c2.151,3.688,9.219,9.526,13.214,8.604
							c3.995-0.922,7.375-6.453,8.297-11.985c0.922-5.531-0.615-16.594-0.615-16.594s-9.526-0.615-15.672,0
							C254.914,186.536,250.612,190.223,250.612,190.223z"/>
					</defs>
					<use xlink:href="#XMLID_2_"  style="overflow:visible;fill:#FFFFFF;"/>
					<clipPath id="XMLID_00000085229879148941033860000013262838665658798476_">
						<use xlink:href="#XMLID_2_"  style="overflow:visible;"/>
					</clipPath>
					<path style="clip-path:url(#XMLID_00000085229879148941033860000013262838665658798476_);fill:#C6FF00;" d="M276.732,185.921
						c0,0-9.526-0.615-15.672,0c-6.146,0.615-10.448,4.302-10.448,4.302s0.689,2.68,1.639,5.89c5.351-1.215,15.68-3.284,25.16-3.609
						C277.142,188.884,276.732,185.921,276.732,185.921z"/>
					<path style="opacity:0.5;clip-path:url(#XMLID_00000085229879148941033860000013262838665658798476_);fill:#FFFFFF;" d="
						M276.732,185.921c0,0-9.526-0.615-15.672,0c-6.146,0.615-10.448,4.302-10.448,4.302s0.689,2.68,1.639,5.89
						c5.351-1.215,15.68-3.284,25.16-3.609C277.142,188.884,276.732,185.921,276.732,185.921z"/>
					
						<use xlink:href="#XMLID_2_"  style="overflow:visible;fill:none;stroke:#263238;stroke-linecap:round;stroke-linejoin:round;stroke-miterlimit:10;"/>
				</g>
				<g>
					<path style="fill:#263238;" d="M261.017,194.377c0.111,0.852-0.171,1.592-0.63,1.651c-0.459,0.06-0.921-0.583-1.032-1.435
						c-0.111-0.852,0.171-1.592,0.63-1.651C260.444,192.882,260.906,193.525,261.017,194.377z"/>
					<path style="fill:#263238;" d="M269.277,193.3c0.111,0.852-0.171,1.592-0.63,1.651c-0.459,0.06-0.921-0.583-1.032-1.435
						c-0.111-0.852,0.171-1.592,0.63-1.652C268.704,191.805,269.166,192.447,269.277,193.3z"/>
					<path style="fill:#FFFFFF;stroke:#263238;stroke-linecap:round;stroke-linejoin:round;stroke-miterlimit:10;" d="
						M265.334,193.408c0,0,0,2.155,0.718,3.591c0.718,1.436,2.394,0.718,2.394,1.915s-2.634,2.394-2.634,2.394"/>
					<path style="fill:#FFFFFF;stroke:#263238;stroke-linecap:round;stroke-linejoin:round;stroke-miterlimit:10;" d="
						M262.221,203.942c0,0,4.31,3.112,7.661-1.676"/>
					
						<line style="fill:#FFFFFF;stroke:#263238;stroke-linecap:round;stroke-linejoin:round;stroke-miterlimit:10;" x1="256.954" y1="191.732" x2="261.742" y2="191.253"/>
					<path style="fill:#FFFFFF;stroke:#263238;stroke-linecap:round;stroke-linejoin:round;stroke-miterlimit:10;" d="
						M265.573,190.535c0,0,0.479-2.394,3.591-1.676"/>
				</g>
			</g>
			<path style="fill:#FFFFFF;stroke:#263238;stroke-linecap:round;stroke-linejoin:round;stroke-miterlimit:10;" d="
				M248.461,186.843c0,0-1.211-11.714,0.633-16.631c1.844-4.917,12.085-7.315,19.4-5.725c6.613,1.438,8.546,13.136,8.853,18.36
				L248.461,186.843z"/>
			<path style="fill:#C6FF00;stroke:#263238;stroke-linecap:round;stroke-linejoin:round;stroke-miterlimit:10;" d="
				M248.461,186.843c0,0-3.073,2.151-1.536,3.995s10.141-3.38,17.209-3.38c7.068,0,14.75,0.615,15.365-1.844
				c0.615-2.458-2.151-2.766-2.151-2.766S259.831,181.005,248.461,186.843z"/>
			<path style="fill:#263238;stroke:#263238;stroke-linecap:round;stroke-linejoin:round;stroke-miterlimit:10;" d="
				M267.911,410.872h34.94c0,0-4.191-4.145-16.073-4.054C270.706,406.941,267.911,410.872,267.911,410.872z"/>
		</g>
	</g>
</g>
<g id="Drone">
	<g>
		<g>
			
				<path style="fill:#FFFFFF;stroke:#263238;stroke-width:0.75;stroke-linecap:round;stroke-linejoin:round;stroke-miterlimit:10;" d="
				M130.964,155.426l0.712,1.087c0.857,1.308,2.277,2.14,3.837,2.247l17.266,1.192l-0.545-2.127l-3.272-5.617l-18.652,0.818
				L130.964,155.426z"/>
			
				<path style="fill:#263238;stroke:#263238;stroke-width:0.75;stroke-linecap:round;stroke-linejoin:round;stroke-miterlimit:10;" d="
				M130.748,153.701l0.712,1.087c0.857,1.308,2.277,2.14,3.837,2.247l17.266,1.192l-0.545-2.127l-3.272-5.617l-18.652,0.818
				L130.748,153.701z"/>
			
				<path style="fill:#FFFFFF;stroke:#263238;stroke-width:0.75;stroke-linecap:round;stroke-linejoin:round;stroke-miterlimit:10;" d="
				M135.108,151.499l-22.197,0.818l-0.109,3.599h20.997c0,0,2.182,0.436,3.381,0.491c1.2,0.055,1.363-0.764,0.818-1.909
				C137.453,153.354,135.108,151.499,135.108,151.499z"/>
			
				<path style="fill:#FFFFFF;stroke:#263238;stroke-width:0.75;stroke-linecap:round;stroke-linejoin:round;stroke-miterlimit:10;" d="
				M160.969,145.024l-0.501,2.548l0.982,0.709l-0.6,6.108l4.309,1.036l2.381-9.476c0.131-0.523-0.18-1.054-0.7-1.195l-3.142-0.853
				c-0.221-0.06-0.455-0.056-0.674,0.012l-1.463,0.453C161.257,144.46,161.03,144.713,160.969,145.024z"/>
			
				<path style="fill:#FFFFFF;stroke:#263238;stroke-width:0.75;stroke-linecap:round;stroke-linejoin:round;stroke-miterlimit:10;" d="
				M152.451,149.699l11.453-3.327c0,0,1.418-0.054,1.636,1.036c0.218,1.091-0.382,1.8-0.382,1.8l-10.908,5.345L152.451,149.699z"/>
			
				<path style="fill:#FFFFFF;stroke:#263238;stroke-width:0.75;stroke-linecap:round;stroke-linejoin:round;stroke-miterlimit:10;" d="
				M153.706,153.572l20.288,4.417c0,0,0.545-1.145,0.982-1.254c0.368-0.092,7.14,1.951,9.249,2.592
				c0.357,0.109,0.573,0.466,0.508,0.833l-2.156,12.201c-0.081,0.459-0.386,0.848-0.813,1.035l-0.094,0.041
				c-0.372,0.164-0.798,0.157-1.165-0.018l-2.616-1.25c-0.279-0.133-0.452-0.42-0.439-0.729l0.265-6.628
				c0.025-0.625-0.349-1.196-0.931-1.424l-3.073-1.199c-0.271-0.106-0.486-0.32-0.591-0.592l0,0c-0.134-0.344-0.44-0.592-0.805-0.65
				l-18.881-3.015L153.706,153.572z"/>
			
				<path style="fill:#FFFFFF;stroke:#263238;stroke-width:0.75;stroke-linecap:round;stroke-linejoin:round;stroke-miterlimit:10;" d="
				M184.574,159.789l-1.363,0.491l-8.944-2.454c0,0-1.107-0.032-1.147,3.774"/>
			
				<path style="fill:#263238;stroke:#263238;stroke-width:0.75;stroke-linecap:round;stroke-linejoin:round;stroke-miterlimit:10;" d="
				M182.577,172.361l2.156-12.201c0.017-0.098,0.012-0.195-0.009-0.287l-1.514,0.407l-1.541,13.158l0.094-0.041
				C182.191,173.209,182.496,172.82,182.577,172.361z"/>
			<g>
				
					<path style="fill:#FFFFFF;stroke:#263238;stroke-width:0.75;stroke-linecap:round;stroke-linejoin:round;stroke-miterlimit:10;" d="
					M174.801,154.478l-0.384,1.777c-0.13,0.556,1.111,1.322,2.772,1.711c1.661,0.389,3.113,0.253,3.244-0.303l0.384-1.777
					L174.801,154.478z"/>
				
					<path style="fill:#FFFFFF;stroke:#263238;stroke-width:0.75;stroke-linecap:round;stroke-linejoin:round;stroke-miterlimit:10;" d="
					M180.817,155.886c-0.13,0.556-1.582,0.692-3.244,0.303c-1.661-0.389-2.902-1.155-2.772-1.711
					c0.13-0.556,1.582-0.692,3.244-0.303C179.706,154.564,180.947,155.33,180.817,155.886z"/>
			</g>
			
				<path style="fill:#FFFFFF;stroke:#263238;stroke-width:0.75;stroke-linecap:round;stroke-linejoin:round;stroke-miterlimit:10;" d="
				M155.778,149.699c0,0-0.818-0.709-1.636-1.254c-0.818-0.545-1.963-0.873-1.963-0.873s-3.163-3.109-6.381-5.508
				c-3.218-2.4-6.49-3.763-7.199-3.872c-0.589-0.09-3.056-0.519-4.782-0.6c-0.582-0.027-1.152,0.154-1.62,0.501l0,0
				c-0.513,0.38-0.864,0.938-0.986,1.564l-1.38,7.1l3.642,1.253l0.218,0.491l0.927,0.818l-0.654,3.109l-1.391-0.498l0.301,0.335
				l1.036,1.036l2.236,0.436l2.509,2.781l2.836,0.164c0,0,0.764-2.563,0.6-3.327c-0.164-0.764-1.145-2.182-1.145-2.182
				s0.654-1.254,4.09-1.036c3.436,0.218,4.854,0.164,6.654,0.873c1.8,0.709,5.018,3.981,5.672,5.017
				c0.654,1.036,0.982,1.745,2.018,2.182c1.036,0.436,2.182,0.545,2.182,0.545l0.218-2.073L155.778,149.699z"/>
			
				<path style="fill:#263238;stroke:#263238;stroke-width:0.75;stroke-linecap:round;stroke-linejoin:round;stroke-miterlimit:10;" d="
				M160.141,156.353c-0.764-0.382-4.854-4.363-5.726-5.508c-0.873-1.145-2.018-2.672-3.436-3.109s-6.49-0.927-7.69-0.654
				c-1.2,0.273-2.345,2.072-2.672,2.891c-0.327,0.818,0.327,1.2,0.327,1.2s0.654-1.254,4.09-1.036
				c3.436,0.218,4.854,0.164,6.654,0.873c1.8,0.709,5.018,3.981,5.672,5.017c0.654,1.036,0.982,1.745,2.018,2.182
				c1.036,0.436,2.182,0.545,2.182,0.545l0.218-2.073C161.777,156.68,160.905,156.735,160.141,156.353z"/>
			<path style="fill:none;stroke:#263238;stroke-width:0.75;stroke-linecap:round;stroke-linejoin:round;stroke-miterlimit:10;" d="
				M133.745,146.482c0,0,2.291,2.891,3.818,4.854c1.527,1.963,1.527,2.781,2.127,2.945s1.963,0.218,2.345-0.273"/>
			
				<path style="fill:#FFFFFF;stroke:#263238;stroke-width:0.75;stroke-linecap:round;stroke-linejoin:round;stroke-miterlimit:10;" d="
				M151.6,150.961l-4.943,0.791c-1.409,0.225-2.397,1.502-2.257,2.914l0.6,6.029c0.131,1.317,1.34,2.258,2.657,2.069l3.759-0.541
				c1.684-0.242,2.923-1.695,2.889-3.387l-0.117-5.727C154.16,151.76,152.94,150.747,151.6,150.961z"/>
			
				<path style="fill:#FFFFFF;stroke:#263238;stroke-width:0.75;stroke-linecap:round;stroke-linejoin:round;stroke-miterlimit:10;" d="
				M154.251,158.426c0,1.898-1.538,3.436-3.436,3.436s-3.436-1.538-3.436-3.436c0-1.898,1.538-3.436,3.436-3.436
				S154.251,156.528,154.251,158.426z"/>
			
				<path style="fill:#263238;stroke:#263238;stroke-width:0.75;stroke-linecap:round;stroke-linejoin:round;stroke-miterlimit:10;" d="
				M152.724,158.426c0,1.054-0.855,1.909-1.909,1.909s-1.909-0.855-1.909-1.909c0-1.054,0.855-1.909,1.909-1.909
				S152.724,157.371,152.724,158.426z"/>
			
				<path style="fill:#FFFFFF;stroke:#263238;stroke-width:0.75;stroke-linecap:round;stroke-linejoin:round;stroke-miterlimit:10;" d="
				M133.472,148.009l-24.106-8.29l0.088-0.736c0.044-0.368-0.169-0.718-0.516-0.847l-4.971-1.852l-3.202,0.225
				c-0.388,0.027-0.7,0.329-0.741,0.716l-1.137,10.727c-0.027,0.251,0.138,0.481,0.383,0.538l1.551,0.358
				c0.097,0.022,0.197,0.027,0.295,0.013l2.386-0.335c0.352-0.049,0.646-0.293,0.759-0.63l1.833-5.45l27.869,9.98l0.654-3.109
				l-0.927-0.818L133.472,148.009z"/>
			
				<polyline style="fill:#FFFFFF;stroke:#263238;stroke-width:0.75;stroke-linecap:round;stroke-linejoin:round;stroke-miterlimit:10;" points="
				100.259,136.883 106.585,138.901 109.421,138.574 			"/>
			
				<path style="fill:#263238;stroke:#263238;stroke-width:0.75;stroke-linecap:round;stroke-linejoin:round;stroke-miterlimit:10;" d="
				M106.094,142.446c0,0-2.563-0.818-3.218-0.818c-0.493,0-1.326,4.116-1.708,6.147c-0.102,0.545,0.361,1.028,0.91,0.951l1.423-0.2
				c0.352-0.049,0.646-0.293,0.759-0.63L106.094,142.446z"/>
			
				<path style="fill:#FFFFFF;stroke:#263238;stroke-width:0.75;stroke-linecap:round;stroke-linejoin:round;stroke-miterlimit:10;" d="
				M115.802,152.099l-0.413,3.811c-0.048,0.445-0.321,0.835-0.723,1.033l-1.776,0.872c-0.367,0.18-0.639,0.509-0.747,0.904
				l-2.005,7.321c-0.107,0.391-0.393,0.707-0.77,0.854l-2.668,1.035c-0.249,0.096-0.524,0.096-0.772,0l-2.533-0.983
				c-0.431-0.167-0.691-0.608-0.628-1.066l1.896-13.821c0.042-0.303,0.27-0.546,0.569-0.606l5.99-1.208L115.802,152.099z"/>
			
				<path style="fill:#263238;stroke:#263238;stroke-width:0.75;stroke-linecap:round;stroke-linejoin:round;stroke-miterlimit:10;" d="
				M110.136,166.04l2.005-7.321c0.108-0.394,0.38-0.723,0.747-0.904l1.776-0.872c0.402-0.197,0.675-0.587,0.723-1.033l0.347-3.198
				l-5.605,0.805l-3.431,14.412l2.668-1.035C109.744,166.747,110.029,166.43,110.136,166.04z"/>
			<g>
				
					<path style="fill:#FFFFFF;stroke:#263238;stroke-width:0.75;stroke-linecap:round;stroke-linejoin:round;stroke-miterlimit:10;" d="
					M109.573,147.227l-0.436,2.018c-0.148,0.632,1.262,1.502,3.149,1.943c1.887,0.441,3.537,0.287,3.684-0.344l0.436-2.018
					L109.573,147.227z"/>
				
					<path style="fill:#FFFFFF;stroke:#263238;stroke-width:0.75;stroke-linecap:round;stroke-linejoin:round;stroke-miterlimit:10;" d="
					M116.407,148.826c-0.148,0.632-1.797,0.786-3.684,0.344s-3.297-1.312-3.149-1.943c0.148-0.632,1.797-0.786,3.684-0.344
					S116.555,148.194,116.407,148.826z"/>
			</g>
			<g>
				
					<path style="fill:#FFFFFF;stroke:#263238;stroke-width:0.75;stroke-linecap:round;stroke-linejoin:round;stroke-miterlimit:10;" d="
					M104.555,133.9l-0.382,1.768c-0.13,0.553,1.106,1.316,2.759,1.702c1.653,0.387,3.098,0.252,3.228-0.302l0.382-1.768
					L104.555,133.9z"/>
				
					<path style="fill:#FFFFFF;stroke:#263238;stroke-width:0.75;stroke-linecap:round;stroke-linejoin:round;stroke-miterlimit:10;" d="
					M110.541,135.301c-0.13,0.553-1.575,0.689-3.228,0.302c-1.653-0.387-2.888-1.149-2.759-1.702s1.575-0.689,3.228-0.302
					C109.436,133.985,110.671,134.747,110.541,135.301z"/>
			</g>
			
				<polyline style="fill:#FFFFFF;stroke:#263238;stroke-width:0.75;stroke-linecap:round;stroke-linejoin:round;stroke-miterlimit:10;" points="
				105.003,151.772 110.13,153.517 115.802,152.099 			"/>
			<g>
				
					<path style="fill:#FFFFFF;stroke:#263238;stroke-width:0.75;stroke-linecap:round;stroke-linejoin:round;stroke-miterlimit:10;" d="
					M161.182,141.882l-0.21,1.496c-0.074,0.469,1.084,1.018,2.588,1.225c1.504,0.207,2.783-0.005,2.858-0.474l0.21-1.496
					L161.182,141.882z"/>
				
					<path style="fill:#FFFFFF;stroke:#263238;stroke-width:0.75;stroke-linecap:round;stroke-linejoin:round;stroke-miterlimit:10;" d="
					M166.628,142.632c-0.074,0.469-1.354,0.682-2.857,0.474c-1.504-0.207-2.662-0.756-2.588-1.225
					c0.075-0.469,1.354-0.682,2.858-0.474C165.544,141.614,166.702,142.163,166.628,142.632z"/>
			</g>
			<path style="fill:none;stroke:#263238;stroke-width:0.75;stroke-linecap:round;stroke-linejoin:round;stroke-miterlimit:10;" d="
				M142.699,147.102c0,0-3.882-5.257-8.896-8.572"/>
			<path style="fill:none;stroke:#263238;stroke-width:0.75;stroke-miterlimit:10;" d="M194.189,156.391
				c-0.218,1.37-7.562,1.34-16.404-0.068c-8.842-1.407-15.833-3.659-15.614-5.029c0.218-1.37,7.562-1.34,16.404,0.068
				C187.416,152.77,194.407,155.021,194.189,156.391z"/>
			<path style="fill:none;stroke:#263238;stroke-width:0.75;stroke-miterlimit:10;" d="M130.302,149.113
				c-0.218,1.37-7.562,1.34-16.404-0.068s-15.833-3.659-15.615-5.029c0.218-1.37,7.562-1.34,16.404,0.068
				C123.529,145.492,130.52,147.743,130.302,149.113z"/>
			<path style="fill:none;stroke:#263238;stroke-width:0.75;stroke-miterlimit:10;" d="M177.042,143.259
				c-0.179,1.126-6.264,1.093-13.591-0.074c-7.327-1.166-13.122-3.024-12.942-4.15c0.179-1.126,6.264-1.093,13.591,0.074
				C171.427,140.275,177.221,142.133,177.042,143.259z"/>
			<path style="fill:none;stroke:#263238;stroke-width:0.75;stroke-miterlimit:10;" d="M120.595,136.337
				c-0.251,1.112-6.321,0.691-13.559-0.939c-7.238-1.631-12.902-3.854-12.652-4.966c0.251-1.112,6.321-0.691,13.559,0.939
				C115.181,133.001,120.846,135.225,120.595,136.337z"/>
			<path style="fill:none;stroke:#263238;stroke-width:0.75;stroke-linecap:round;stroke-linejoin:round;stroke-miterlimit:10;" d="
				M137.181,144.846c0,0,0.109,0.491-0.982,0.654c-1.091,0.164-2.454,0.327-2.454,0.982c0,0.654-0.109,1.8-0.109,1.8l0.982,1.036
				l-0.709,3.981"/>
		</g>
		<g>
			<ellipse style="fill:#C6FF00;" cx="201.414" cy="375.349" rx="28.474" ry="8.117"/>
			<ellipse style="opacity:0.5;fill:#FFFFFF;" cx="201.414" cy="375.349" rx="28.474" ry="8.117"/>
		</g>
	</g>
</g>
</svg>
